<svg width="22" height="24" viewBox="0 0 22 24" fill="none" xmlns="http://www.w3.org/2000/svg">
<path d="M6.61374 0.0146754C9.37767 0.00249538 12.1435 -0.0115576 14.9074 0.0156133C14.9112 0.523427 14.9037 1.03218 14.9149 1.54093C12.1453 1.53625 9.37579 1.53625 6.60718 1.54093C6.61748 1.03218 6.60905 0.523426 6.61374 0.0146754Z" fill="#8B2AFF"/>
<path d="M3.47865 1.53369C4.52145 1.544 5.56424 1.53182 6.60704 1.54119C6.61266 2.07805 6.61922 2.61678 6.60142 3.15457C5.55768 3.16675 4.51301 3.15738 3.46927 3.16019C3.45897 2.61771 3.44398 2.07523 3.47865 1.53369Z" fill="#8B2AFF"/>
<path d="M14.9149 1.54119C15.9567 1.53182 16.9995 1.544 18.0423 1.53369C18.0751 2.07523 18.062 2.61771 18.0517 3.16019C17.0079 3.15738 15.9633 3.16675 14.9195 3.15363C14.9008 2.61584 14.9074 2.07805 14.9149 1.54119Z" fill="#8B2AFF"/>
<path d="M1.92511 3.16245C2.43948 3.15683 2.95385 3.15964 3.46916 3.15964C3.44573 4.18089 3.46822 5.20214 3.45698 6.22432C2.94167 6.23369 2.42636 6.21964 1.91199 6.23557C1.93635 5.21151 1.91293 4.18651 1.92511 3.16245Z" fill="#8B2AFF"/>
<path d="M8.15103 3.16351C9.8909 3.15695 11.6298 3.15789 13.3697 3.16351C13.3716 3.67601 13.3725 4.1885 13.3697 4.701C11.6298 4.69444 9.8909 4.69444 8.15103 4.701C8.14822 4.1885 8.14728 3.67601 8.15103 3.16351Z" fill="#8B2AFF"/>
<path d="M18.0516 3.15964C18.566 3.15964 19.0804 3.15683 19.5957 3.16245C19.6079 4.18651 19.5844 5.21151 19.6088 6.23557C19.0935 6.2187 18.5782 6.23369 18.0638 6.22432C18.0516 5.20214 18.0751 4.18089 18.0516 3.15964Z" fill="#8B2AFF"/>
<path d="M6.61471 4.70039C7.12628 4.69571 7.63878 4.69384 8.15127 4.70133C8.14846 5.20915 8.15127 5.71602 8.14752 6.22384C7.63315 6.23227 7.11972 6.22571 6.60535 6.22946C6.61846 5.71977 6.60816 5.21008 6.61471 4.70039Z" fill="#8B2AFF"/>
<path d="M13.3696 4.70094C13.8812 4.69345 14.3937 4.69439 14.9071 4.70001C14.9137 5.21157 14.8968 5.72313 14.9202 6.23563C14.404 6.2197 13.8878 6.23376 13.3724 6.22345C13.3687 5.71564 13.3724 5.20876 13.3696 4.70094Z" fill="#8B2AFF"/>
<path d="M0.3137 6.23654C0.760614 6.22717 1.2094 6.22061 1.65725 6.22811C1.79311 6.21031 1.93364 6.33773 1.92146 6.47733C1.92708 8.64538 1.91491 10.8134 1.92802 12.9815C1.38367 12.9843 0.838379 13.004 0.295898 12.9655C0.3137 10.7225 0.279971 8.47861 0.3137 6.23654Z" fill="#8B2AFF"/>
<path d="M5.17714 6.22968C5.65216 6.22593 6.12906 6.22874 6.60502 6.22968C6.62001 7.9733 6.61064 9.71786 6.61064 11.4615C7.11283 11.4549 7.61502 11.4633 8.11721 11.4549C8.17062 11.9955 8.13783 12.5399 8.16031 13.0824C7.66374 13.0824 7.16811 13.0749 6.67247 13.088C6.56192 12.553 6.62938 12.0049 6.61064 11.4633C6.06816 11.4418 5.52005 11.5027 4.98413 11.4034C4.99912 9.74034 4.98413 8.0773 4.99163 6.41425C5.05346 6.35335 5.1153 6.29151 5.17714 6.22968Z" fill="#8B2AFF"/>
<path d="M15.0385 6.23808C15.4723 6.21185 15.9089 6.23339 16.3446 6.22965C16.4036 6.29148 16.4654 6.35332 16.5292 6.41422C16.5366 8.07727 16.5207 9.74124 16.5367 11.4043C15.9998 11.5027 15.4526 11.4408 14.9102 11.4633C14.8905 12.0039 14.9589 12.553 14.8483 13.0879C14.3517 13.0748 13.8561 13.0823 13.3605 13.0823C13.382 12.5398 13.3492 11.9955 13.4026 11.4549C13.9048 11.4633 14.407 11.4558 14.9102 11.4614C14.9055 9.82744 14.9111 8.19344 14.9073 6.55944C14.8942 6.43483 14.9195 6.30273 15.0385 6.23808Z" fill="#8B2AFF"/>
<path d="M19.5992 6.47733C19.5861 6.33773 19.7257 6.21031 19.8634 6.22811C20.3113 6.22061 20.7591 6.22717 21.207 6.23654C21.2407 8.47861 21.207 10.7225 21.2248 12.9655C20.6814 13.004 20.1361 12.9843 19.5927 12.9805C19.6058 10.8125 19.5926 8.64444 19.5992 6.47733Z" fill="#8B2AFF"/>
<path d="M1.91309 13.0745C2.42746 13.0876 2.94277 13.0745 3.45808 13.0848C3.46651 14.1051 3.4487 15.1263 3.46744 16.1466C2.95307 16.1457 2.43964 16.1476 1.92527 16.1438C1.91309 15.1207 1.93651 14.0966 1.91309 13.0745Z" fill="#8B2AFF"/>
<path d="M8.16046 13.0817C9.89377 13.0799 11.6271 13.0799 13.3604 13.0817C13.381 13.5886 13.3688 14.0964 13.3679 14.6052C11.629 14.6117 9.89096 14.6108 8.15296 14.6052C8.15109 14.0974 8.13797 13.5886 8.16046 13.0817Z" fill="#8B2AFF"/>
<path d="M18.0628 13.0848C18.5772 13.0745 19.0925 13.0876 19.6078 13.0745C19.5844 14.0966 19.6078 15.1207 19.5957 16.1438C19.0813 16.1476 18.5669 16.1457 18.0535 16.1466C18.0722 15.1263 18.0544 14.1051 18.0628 13.0848Z" fill="#8B2AFF"/>
<path d="M3.46736 16.1464C3.97143 16.1446 4.4755 16.1464 4.97956 16.1455C5.01704 16.6786 4.9552 17.2211 5.00861 17.7495C5.53703 17.802 6.07858 17.7411 6.61262 17.7776C6.61075 18.2817 6.61262 18.7858 6.61169 19.2908C6.06921 19.2964 5.52673 19.3161 4.98612 19.2748C4.9627 18.7914 5.05639 18.2873 4.93927 17.8189C4.46987 17.7008 3.96581 17.7945 3.48329 17.772C3.44113 17.2314 3.4608 16.688 3.46736 16.1464Z" fill="#8B2AFF"/>
<path d="M16.5402 16.1448C17.0443 16.1466 17.5483 16.1438 18.0533 16.1467C18.0599 16.6882 18.0786 17.2307 18.0374 17.7722C17.554 17.7956 17.0499 17.7019 16.5814 17.8191C16.4643 18.2875 16.5571 18.7916 16.5346 19.275C15.993 19.3163 15.4506 19.2966 14.909 19.291C14.9071 18.786 14.909 18.2819 14.9081 17.7778C15.4412 17.7413 15.9837 17.8022 16.5121 17.7497C16.5646 17.2213 16.5037 16.6788 16.5402 16.1448Z" fill="#8B2AFF"/>
<path d="M6.61158 19.2913C7.12314 19.3072 7.63564 19.2856 8.1472 19.3156C8.15376 19.8225 8.14158 20.3303 8.1575 20.8372C7.64313 20.8344 7.12876 20.8391 6.61439 20.8334C6.6097 20.3191 6.61158 19.8047 6.61158 19.2913Z" fill="#8B2AFF"/>
<path d="M13.3737 19.3147C13.8843 19.2847 14.3968 19.3081 14.9093 19.2913C14.9084 19.8047 14.9103 20.3191 14.9065 20.8334C14.3921 20.8391 13.8768 20.8344 13.3634 20.8372C13.3793 20.3294 13.3662 19.8225 13.3737 19.3147Z" fill="#8B2AFF"/>
<path d="M8.15754 20.8373C8.65879 20.8354 9.16006 20.8373 9.66225 20.8345C9.69036 21.3751 9.67442 21.9157 9.6763 22.4563C9.17223 22.4619 8.6691 22.4554 8.16691 22.46C8.13693 21.9194 8.14817 21.3779 8.15754 20.8373Z" fill="#8B2AFF"/>
<path d="M11.8586 20.8345C12.3599 20.8373 12.8612 20.8345 13.3634 20.8373C13.3718 21.3779 13.383 21.9194 13.354 22.46C12.8509 22.4544 12.3477 22.4619 11.8446 22.4563C11.8455 21.9157 11.8305 21.3751 11.8586 20.8345Z" fill="#8B2AFF"/>
<path d="M9.67652 22.4561C10.3989 22.4589 11.1213 22.4589 11.8446 22.4561C11.8436 22.9564 11.8361 23.4576 11.8502 23.958C11.125 24.0142 10.3951 24.0142 9.6709 23.958C9.68402 23.4576 9.67652 22.9564 9.67652 22.4561Z" fill="#8B2AFF"/>
</svg>
