<svg width="64" height="64" viewBox="0 0 64 64" fill="none" xmlns="http://www.w3.org/2000/svg">
<path d="M32 0C14.3274 0 0 14.3274 0 32C0 49.6726 14.3274 64 32 64C49.6726 64 64 49.6726 64 32C64 14.3274 49.6726 0 32 0ZM61.9191 32C61.9191 48.523 48.5249 61.9191 32 61.9191C15.4751 61.9191 2.0809 48.523 2.0809 32C2.0809 15.477 15.477 2.0809 32 2.0809C48.523 2.0809 61.9191 15.477 61.9191 32Z" fill="#6F6F6F"/>
<path d="M31.9999 13.0371V14.0768C41.8819 14.0768 49.9232 22.1162 49.9232 32.0001H50.9629C50.9629 21.5278 42.4723 13.0371 31.9999 13.0371ZM31.9999 49.9233C22.118 49.9233 14.0767 41.8839 14.0767 32.0001H13.037C13.037 42.4724 21.5276 50.963 31.9999 50.963" fill="#6F6F6F"/>
<path d="M47.3217 18.4967C47.7559 18.9596 48.3818 19.7063 48.7333 20.16L55.2071 16.0792C54.8838 15.6592 54.3688 15.0207 53.9834 14.5708L49.8837 17.2627L49.6036 17.5017L49.8123 17.1993L51.6225 13.6113L50.3424 12.34L46.7277 14.1377L46.4231 14.345L46.6656 14.0668L49.3781 9.99724C48.9006 9.59401 48.442 9.22439 47.8574 8.77637L43.7483 15.1999C44.269 15.5976 44.9551 16.1819 45.3931 16.5795L49.2615 14.5858L49.5097 14.4047L49.3273 14.6511L47.3217 18.4967Z" fill="#6F6F6F"/>
<path d="M32.6316 10.3556L34.4004 6.42043L34.5132 6.07134L34.4813 6.43536L34.6673 11.6941C35.2877 11.7519 35.9286 11.8378 36.5602 11.9423L36.2726 4.15416C35.3892 4.05709 34.5095 3.98802 33.6297 3.95068L31.8872 8.24613L31.8252 8.56535L31.7632 8.24613L30.0225 3.95068C29.1428 3.98802 28.2631 4.05709 27.3796 4.15416L27.092 11.9423C27.7236 11.8378 28.3646 11.7538 28.9849 11.6941L29.171 6.43536L29.1391 6.07134L29.2518 6.42043L31.0207 10.3556H32.6316Z" fill="#6F6F6F"/>
<path d="M18.3249 16.5627C19.3475 15.4931 19.9265 14.2573 18.9039 13.0775C18.3475 12.4371 17.4133 12.2971 16.6388 12.6126L16.5617 12.6425L16.5862 12.5753C16.7008 12.271 16.7742 11.3003 15.9414 10.6301C15.5354 10.3034 15.026 10.1821 14.511 10.2344C13.5504 10.3314 12.8117 10.9829 10.8004 13.21C10.1932 13.882 9.30975 14.9424 8.77966 15.6293L14.3042 20.8339C16.135 18.8215 16.8813 18.0729 18.3249 16.5627ZM11.1162 15.2896C12.229 13.938 13.4113 12.7116 13.947 12.2262C14.1162 12.0731 14.3004 11.9201 14.5241 11.8603C14.8869 11.7614 15.261 12.0171 15.3456 12.3867C15.4301 12.7582 15.1952 13.1111 14.9339 13.4023C14.3455 14.0612 12.1876 16.3032 12.1876 16.3032L11.1162 15.2896ZM13.2797 17.3281C13.2797 17.3281 15.3813 15.1216 16.0674 14.4159C16.3399 14.1359 16.5147 13.966 16.7027 13.8746C16.9452 13.757 17.2102 13.7327 17.4471 13.8895C17.6802 14.0444 17.7873 14.3114 17.7291 14.5765C17.6595 14.892 17.4001 15.1925 17.1858 15.4221C16.8963 15.7301 14.4038 18.3791 14.4001 18.3828L13.2797 17.3281Z" fill="#6F6F6F"/>
<path d="M32 13.0371V32.0001H13.037C13.037 21.5202 21.5201 13.0371 32 13.0371Z" fill="#0066B1"/>
<path d="M50.963 32C50.963 42.4798 42.4798 50.963 32 50.963V32H50.963Z" fill="#0066B1"/>
</svg>
