<svg width="1279" height="700" viewBox="0 0 1279 700" fill="none" xmlns="http://www.w3.org/2000/svg">
<g opacity="0.1">
<path d="M20 -2V700" stroke="white"/>
<path d="M60 -2V700" stroke="white"/>
<path d="M100 -2V700" stroke="white"/>
<path d="M140 -2V700" stroke="white"/>
<path d="M180 -2V700" stroke="white"/>
<path d="M220 -2V700" stroke="white"/>
<path d="M260 -2V700" stroke="white"/>
<path d="M300 -2V700" stroke="white"/>
<path d="M340 -2V700" stroke="white"/>
<path d="M380 -2V700" stroke="white"/>
<path d="M420 -2V700" stroke="white"/>
<path d="M460 -2V700" stroke="white"/>
<path d="M500 -2V700" stroke="white"/>
<path d="M540 -2V700" stroke="white"/>
<path d="M580 -2V700" stroke="white"/>
<path d="M620 -2V700" stroke="white"/>
<path d="M660 -2V700" stroke="white"/>
<path d="M700 -2V700" stroke="white"/>
<path d="M740 -2V700" stroke="white"/>
<path d="M780 -2V700" stroke="white"/>
<path d="M820 -2V700" stroke="white"/>
<path d="M860 -2V700" stroke="white"/>
<path d="M900 -2V700" stroke="white"/>
<path d="M940 -2V700" stroke="white"/>
<path d="M980 -2V700" stroke="white"/>
<path d="M1020 -2V700" stroke="white"/>
<path d="M1060 -2V700" stroke="white"/>
<path d="M1100 -2V700" stroke="white"/>
<path d="M1140 -2V700" stroke="white"/>
<path d="M1180 -2V700" stroke="white"/>
<path d="M1220 -2V700" stroke="white"/>
<path d="M1260 -2V700" stroke="white"/>
<path d="M1285 38.1194L-67.9981 38.1193" stroke="white"/>
<path d="M1285 78.1194L-67.9981 78.1193" stroke="white"/>
<path d="M1285 118.12L-67.9982 118.119" stroke="white"/>
<path d="M1285 158.12L-67.9982 158.119" stroke="white"/>
<path d="M1285 198.12L-67.9982 198.119" stroke="white"/>
<path d="M1285 238.12L-67.9982 238.12" stroke="white"/>
<path d="M1285 278.12L-67.9982 278.12" stroke="white"/>
<path d="M1285 318.12L-67.9982 318.12" stroke="white"/>
<path d="M1285 358.12L-67.9982 358.12" stroke="white"/>
<path d="M1285 398.12L-67.9982 398.12" stroke="white"/>
<path d="M1285 438.12L-67.9983 438.12" stroke="white"/>
<path d="M1285 478.12L-67.9983 478.12" stroke="white"/>
<path d="M1285 518.12L-67.9983 518.12" stroke="white"/>
<path d="M1285 558.12L-67.9983 558.12" stroke="white"/>
<path d="M1285 598.12L-67.9983 598.12" stroke="white"/>
<path d="M1285 638.12L-67.9983 638.12" stroke="white"/>
<path d="M1285 678.12L-67.9983 678.12" stroke="white"/>
</g>
</svg>
