<svg width="335" height="57" viewBox="0 0 335 57" fill="none" xmlns="http://www.w3.org/2000/svg">
<path d="M99.3828 17.4237C99.3828 16.3628 99.2667 15.523 99.0345 14.9042C98.8023 14.2853 98.4182 13.8168 97.8823 13.4985C97.3464 13.1803 96.6409 12.977 95.7656 12.8886C94.8992 12.8002 93.823 12.756 92.5368 12.756H86.5215C85.3782 12.756 84.4136 12.7913 83.6277 12.862C82.8506 12.9239 82.2076 13.0565 81.6985 13.2599C81.1894 13.4632 80.7964 13.7549 80.5195 14.135C80.2426 14.5152 80.0417 15.0191 79.9166 15.6467C79.7916 16.2744 79.7201 17.0479 79.7023 17.9673C79.6844 18.8779 79.6755 19.9697 79.6755 21.2427C79.6755 22.5157 79.6844 23.6119 79.7023 24.5313C79.7291 25.4418 79.805 26.2109 79.93 26.8386C80.0551 27.4663 80.2516 27.9702 80.5195 28.3503C80.7964 28.7304 81.1894 29.0222 81.6985 29.2255C82.2076 29.4288 82.8506 29.5659 83.6277 29.6366C84.4136 29.6985 85.3782 29.7294 86.5215 29.7294H92.5368C93.5372 29.7294 94.399 29.7029 95.1225 29.6498C95.8459 29.5968 96.4622 29.4995 96.9713 29.3581C97.4804 29.2167 97.8913 29.0222 98.2039 28.7746C98.5165 28.5271 98.7576 28.2177 98.9273 27.8464C99.1059 27.4663 99.2265 27.0154 99.289 26.4938C99.3516 25.9634 99.3828 25.3446 99.3828 24.6374H101.955C101.955 25.486 101.901 26.2551 101.794 26.9447C101.687 27.6254 101.495 28.2354 101.218 28.7746C100.95 29.3051 100.589 29.7648 100.133 30.1537C99.6776 30.5427 99.1015 30.8654 98.4048 31.1218C97.7082 31.3693 96.8775 31.5505 95.9129 31.6654C94.9483 31.7892 93.823 31.8511 92.5368 31.8511H86.5215C84.9495 31.8511 83.6232 31.7538 82.5425 31.5593C81.4707 31.3737 80.5865 31.0908 79.8898 30.7107C79.1932 30.3217 78.6528 29.8355 78.2688 29.252C77.8936 28.6686 77.6168 27.9834 77.4381 27.1966C77.2684 26.4099 77.1702 25.5214 77.1434 24.5313C77.1166 23.5412 77.1032 22.445 77.1032 21.2427C77.1032 20.0404 77.1166 18.9442 77.1434 17.9541C77.1702 16.964 77.2684 16.0755 77.4381 15.2887C77.6168 14.5019 77.8936 13.8168 78.2688 13.2333C78.6528 12.6499 79.1932 12.1681 79.8898 11.7879C80.5865 11.399 81.4707 11.1117 82.5425 10.926C83.6232 10.7315 84.9495 10.6343 86.5215 10.6343H92.5368C93.823 10.6343 94.9483 10.6962 95.9129 10.8199C96.8775 10.9348 97.7082 11.1161 98.4048 11.3636C99.1015 11.6023 99.6776 11.9073 100.133 12.2786C100.589 12.6499 100.95 13.0875 101.218 13.5914C101.495 14.0953 101.687 14.6655 101.794 15.302C101.901 15.9385 101.955 16.6457 101.955 17.4237H99.3828Z" fill="#1F0850"/>
<path d="M127.691 11.0586H130.263V31.4267H127.691V22.0914H108.828V31.4267H106.256V11.0586H108.828V19.9697H127.691V11.0586Z" fill="#1F0850"/>
<path d="M135.408 11.0586H137.98V31.4267H135.408V11.0586Z" fill="#1F0850"/>
<path d="M164.547 17.4237C164.547 16.3628 164.431 15.523 164.199 14.9042C163.966 14.2853 163.582 13.8168 163.047 13.4985C162.511 13.1803 161.805 12.977 160.93 12.8886C160.063 12.8002 158.987 12.756 157.701 12.756H151.686C150.542 12.756 149.578 12.7913 148.792 12.862C148.015 12.9239 147.372 13.0565 146.863 13.2599C146.354 13.4632 145.961 13.7549 145.684 14.135C145.407 14.5152 145.206 15.0191 145.081 15.6467C144.956 16.2744 144.884 17.0479 144.866 17.9673C144.849 18.8779 144.84 19.9697 144.84 21.2427C144.84 22.5157 144.849 23.6119 144.866 24.5313C144.893 25.4418 144.969 26.2109 145.094 26.8386C145.219 27.4663 145.416 27.9702 145.684 28.3503C145.961 28.7304 146.354 29.0222 146.863 29.2255C147.372 29.4288 148.015 29.5659 148.792 29.6366C149.578 29.6985 150.542 29.7294 151.686 29.7294H157.701C158.701 29.7294 159.563 29.7029 160.287 29.6498C161.01 29.5968 161.626 29.4995 162.135 29.3581C162.645 29.2167 163.055 29.0222 163.368 28.7746C163.681 28.5271 163.922 28.2177 164.091 27.8464C164.27 27.4663 164.391 27.0154 164.453 26.4938C164.516 25.9634 164.547 25.3446 164.547 24.6374H167.119C167.119 25.486 167.066 26.2551 166.958 26.9447C166.851 27.6254 166.659 28.2354 166.382 28.7746C166.114 29.3051 165.753 29.7648 165.297 30.1537C164.842 30.5427 164.266 30.8654 163.569 31.1218C162.872 31.3693 162.042 31.5505 161.077 31.6654C160.113 31.7892 158.987 31.8511 157.701 31.8511H151.686C150.114 31.8511 148.787 31.7538 147.707 31.5593C146.635 31.3737 145.751 31.0908 145.054 30.7107C144.357 30.3217 143.817 29.8355 143.433 29.252C143.058 28.6686 142.781 27.9834 142.602 27.1966C142.433 26.4099 142.334 25.5214 142.308 24.5313C142.281 23.5412 142.267 22.445 142.267 21.2427C142.267 20.0404 142.281 18.9442 142.308 17.9541C142.334 16.964 142.433 16.0755 142.602 15.2887C142.781 14.5019 143.058 13.8168 143.433 13.2333C143.817 12.6499 144.357 12.1681 145.054 11.7879C145.751 11.399 146.635 11.1117 147.707 10.926C148.787 10.7315 150.114 10.6343 151.686 10.6343H157.701C158.987 10.6343 160.113 10.6962 161.077 10.8199C162.042 10.9348 162.872 11.1161 163.569 11.3636C164.266 11.6023 164.842 11.9073 165.297 12.2786C165.753 12.6499 166.114 13.0875 166.382 13.5914C166.659 14.0953 166.851 14.6655 166.958 15.302C167.066 15.9385 167.119 16.6457 167.119 17.4237H164.547Z" fill="#1F0850"/>
<path d="M190.712 11.0586H194.57L179.994 21.0305L194.999 31.4267H191.141L177.422 22.0914H173.992V31.4267H171.42V11.0586H173.992V19.9697H177.422L190.712 11.0586Z" fill="#1F0850"/>
<path d="M198.429 31.4267V11.0586H219.007V13.1803H201.001V19.9697H218.149V22.0914H201.001V29.3051H219.007V31.4267H198.429Z" fill="#1F0850"/>
<path d="M225.009 31.4267H222.436V11.0586H226.951L245.815 28.8807V11.0586H248.387V31.4267H244.957L225.009 13.1803V31.4267Z" fill="#1F0850"/>
<path d="M253.545 31.4267V11.0586H273.266V13.1803H256.117V19.9697H272.408V22.0914H256.117V31.4267H253.545Z" fill="#1F0850"/>
<path d="M276.695 11.0586H279.268V31.4267H276.695V11.0586Z" fill="#1F0850"/>
<path d="M297.381 19.9697C298.792 19.9697 300.002 20.0271 301.011 20.1421C302.021 20.257 302.869 20.4294 303.557 20.6592C304.253 20.8802 304.807 21.1587 305.218 21.4946C305.629 21.8306 305.946 22.2151 306.169 22.6483C306.392 23.0726 306.535 23.55 306.598 24.0804C306.669 24.6108 306.705 25.1855 306.705 25.8043C306.705 26.4231 306.647 27.0066 306.531 27.5547C306.424 28.0939 306.227 28.589 305.941 29.0399C305.656 29.4907 305.267 29.8929 304.776 30.2466C304.285 30.6002 303.659 30.9007 302.9 31.1483C302.141 31.3958 301.226 31.5814 300.154 31.7052C299.091 31.8378 297.845 31.9041 296.416 31.9041H292.986C291.7 31.9041 290.575 31.8555 289.61 31.7583C288.646 31.661 287.815 31.5151 287.118 31.3207C286.422 31.1173 285.846 30.8654 285.39 30.5648C284.935 30.2554 284.568 29.8974 284.292 29.4907C284.024 29.0752 283.836 28.6067 283.729 28.0851C283.622 27.5547 283.568 26.9712 283.568 26.3347H286.14C286.14 27.1303 286.256 27.7536 286.489 28.2044C286.721 28.6553 287.105 28.9957 287.641 29.2255C288.177 29.4465 288.878 29.588 289.744 29.6498C290.619 29.7029 291.7 29.7294 292.986 29.7294H296.416C297.917 29.7294 299.162 29.6587 300.154 29.5172C301.145 29.3758 301.936 29.1504 302.525 28.8409C303.115 28.5315 303.53 28.1293 303.771 27.6342C304.012 27.1303 304.133 26.5204 304.133 25.8043C304.133 25.0882 304.048 24.4915 303.878 24.0141C303.718 23.5367 303.392 23.1566 302.9 22.8737C302.418 22.5908 301.735 22.3919 300.85 22.277C299.966 22.1532 298.81 22.0914 297.381 22.0914H293.844C292.272 22.0914 290.923 22.0339 289.798 21.919C288.681 21.804 287.744 21.6405 286.984 21.4283C286.225 21.2073 285.618 20.9377 285.162 20.6194C284.707 20.2923 284.358 19.921 284.117 19.5056C283.885 19.0901 283.733 18.6304 283.662 18.1265C283.59 17.6137 283.555 17.0612 283.555 16.4689C283.555 15.8501 283.608 15.2755 283.715 14.745C283.832 14.2146 284.041 13.7372 284.345 13.3129C284.649 12.8797 285.064 12.4952 285.591 12.1592C286.118 11.8233 286.792 11.5448 287.614 11.3238C288.445 11.094 289.441 10.9216 290.602 10.8067C291.763 10.6917 293.129 10.6343 294.701 10.6343H297.273C298.56 10.6343 299.685 10.6829 300.65 10.7801C301.614 10.8685 302.445 11.0144 303.141 11.2177C303.838 11.4122 304.414 11.6598 304.87 11.9603C305.334 12.2521 305.7 12.6057 305.968 13.0212C306.245 13.4278 306.437 13.8919 306.544 14.4135C306.652 14.9351 306.705 15.5141 306.705 16.1506H304.133C304.133 15.355 304.017 14.7318 303.785 14.2809C303.552 13.8301 303.168 13.4941 302.632 13.2731C302.096 13.0433 301.391 12.9018 300.516 12.8488C299.64 12.7869 298.56 12.756 297.273 12.756H294.701C292.986 12.756 291.575 12.8178 290.468 12.9416C289.36 13.0565 288.485 13.2554 287.842 13.5383C287.199 13.8212 286.752 14.2014 286.502 14.6787C286.252 15.1561 286.127 15.7528 286.127 16.4689C286.127 16.9109 286.158 17.3043 286.221 17.6491C286.283 17.9939 286.408 18.2988 286.596 18.5641C286.792 18.8204 287.065 19.037 287.413 19.2138C287.761 19.3906 288.221 19.5365 288.793 19.6514C289.365 19.7663 290.061 19.8503 290.883 19.9034C291.714 19.9476 292.701 19.9697 293.844 19.9697H297.381Z" fill="#1F0850"/>
<path d="M332.428 11.0586H335V31.4267H332.428V22.0914H313.564V31.4267H310.992V11.0586H313.564V19.9697H332.428V11.0586Z" fill="#1F0850"/>
<path d="M27.8344 54.7553C26.6966 50.3505 27.3603 41.6022 27.8344 37.7786L30.2047 43.7434V46.4963C30.3627 47.7199 30.5839 50.2588 30.2047 50.6258C29.8254 50.9929 29.0985 49.5552 28.7825 48.7905C28.9405 52.6141 28.9721 59.1601 27.8344 54.7553Z" fill="#1F0850"/>
<path d="M54.698 10.4836C48.2823 11.6866 48.416 22.5132 49.0843 25.7211C52.2921 28.528 56.703 35.7457 62.7177 33.7408C59.1088 32.9388 57.5049 23.7161 53.0941 23.7161C55.901 17.3004 51.4902 17.3004 54.698 10.4836Z" fill="#00C2FF"/>
<path fill-rule="evenodd" clip-rule="evenodd" d="M56.4396 9.13721L55.6051 10.9105C54.841 12.5342 54.5583 13.693 54.4884 14.6017C54.4186 15.5087 54.554 16.2294 54.7264 17.0423C54.737 17.0924 54.7478 17.143 54.7587 17.1942C54.9237 17.966 55.1133 18.8535 55.0798 19.9317C55.0524 20.813 54.8792 21.7907 54.4733 22.9518C55.3341 23.2575 56.0631 23.8272 56.6805 24.4821C57.596 25.453 58.3738 26.7248 59.0726 27.9226C59.1966 28.1352 59.318 28.3453 59.4376 28.5521C60.0157 29.5522 60.5499 30.4763 61.1163 31.238C61.8131 32.175 62.4038 32.6441 62.9352 32.7622L66.4682 33.5473L63.0348 34.6918C59.5254 35.8616 56.5499 34.2842 54.2017 32.3013C53.0213 31.3045 51.944 30.1603 50.9849 29.1197C50.8707 28.9958 50.7586 28.8738 50.6484 28.754C49.8118 27.8439 49.0871 27.0556 48.4242 26.4755L48.1715 26.2544L48.103 25.9256C47.742 24.1931 47.5388 20.5445 48.2537 17.1443C48.956 13.804 50.6652 10.2199 54.5133 9.49839L56.4396 9.13721ZM50.007 25.203C50.6826 25.8274 51.3977 26.6058 52.124 27.3964C52.2355 27.5178 52.3472 27.6395 52.4592 27.7609C53.4173 28.8004 54.4201 29.8616 55.4952 30.7695C56.9426 31.9917 58.4233 32.8568 59.9953 33.0452C59.8236 32.8467 59.6612 32.6412 59.5074 32.4343C58.8651 31.5705 58.26 30.5228 57.6824 29.5226C57.5675 29.3235 57.4536 29.1263 57.3408 28.9329C56.636 27.7248 55.9604 26.6408 55.2217 25.8575C54.491 25.0825 53.8094 24.7186 53.0941 24.7186H51.5613L52.1757 23.3144C52.8373 21.8021 53.0492 20.7253 53.0758 19.8694C53.1016 19.0405 52.9586 18.3682 52.7891 17.5714C52.7812 17.534 52.7731 17.4963 52.7651 17.4583C52.5867 16.6171 52.3962 15.6587 52.4893 14.448C52.5377 13.8198 52.6605 13.1407 52.8851 12.3828C51.5318 13.4607 50.685 15.3247 50.2157 17.5568C49.6035 20.4685 49.7361 23.6011 50.007 25.203Z" fill="#1F0850"/>
<path d="M19.1879 51.1838C16.0161 50.0464 18.0867 45.9709 19.188 44.0753L21.4476 43.3645C22.0159 44.0753 23.4168 45.9235 24.4741 47.6296C25.5313 49.3356 22.8969 50.7099 21.4476 51.1838C21.1513 51.4324 19.9832 51.469 19.1879 51.1838Z" fill="#FF4242"/>
<path fill-rule="evenodd" clip-rule="evenodd" d="M21.6601 42.667L21.9173 42.9888C22.4939 43.7099 23.9108 45.5787 24.9853 47.3126C25.3389 47.8831 25.4007 48.4714 25.2236 49.022C25.056 49.5433 24.6925 49.9768 24.2957 50.3223C23.5323 50.9869 22.4783 51.4695 21.7191 51.7272C21.5492 51.8321 21.3559 51.886 21.2035 51.9176C20.9928 51.9613 20.7539 51.9827 20.5112 51.9853C20.0311 51.9904 19.466 51.9224 18.9848 51.7499C18.0499 51.4146 17.4449 50.8345 17.1385 50.0882C16.8428 49.368 16.8536 48.5627 16.9941 47.8043C17.2735 46.295 18.1155 44.7237 18.6678 43.7731L18.785 43.5714L21.6601 42.667ZM21.5321 50.5171C22.1784 50.277 22.9618 49.8887 23.5058 49.415C23.8167 49.1444 24.0041 48.8848 24.0784 48.6538C24.1433 48.4521 24.1379 48.2288 23.9628 47.9463C23.0563 46.4836 21.8878 44.9073 21.2318 44.0628L19.5923 44.5785C19.0592 45.516 18.3988 46.825 18.1769 48.0233C18.0585 48.6629 18.0776 49.2082 18.2513 49.6313C18.4143 50.0282 18.7399 50.3841 19.3908 50.6175C19.5679 50.681 19.7775 50.7266 19.9941 50.7535C19.4758 50.1734 19.1851 49.5355 19.0744 48.8775C18.9044 47.8666 19.1733 46.8911 19.5326 46.1182C19.6726 45.817 20.0303 45.6863 20.3316 45.8263C20.6328 45.9664 20.7635 46.3241 20.6235 46.6253C20.3219 47.2741 20.1457 47.9938 20.2607 48.678C20.3622 49.2813 20.7013 49.9269 21.5321 50.5171Z" fill="#1F0850"/>
<path d="M18.1475 33.7839C18.1475 37.3272 15.2751 40.1997 11.7317 40.1997C8.18841 40.1997 5.31598 37.3272 5.31598 33.7839C5.31598 30.2406 8.18841 27.3682 11.7317 27.3682C15.2751 27.3682 18.1475 30.2406 18.1475 33.7839Z" fill="white"/>
<path fill-rule="evenodd" clip-rule="evenodd" d="M11.7317 38.9967C14.6107 38.9967 16.9445 36.6629 16.9445 33.7839C16.9445 30.905 14.6107 28.5711 11.7317 28.5711C8.85279 28.5711 6.51893 30.905 6.51893 33.7839C6.51893 36.6629 8.85279 38.9967 11.7317 38.9967ZM11.7317 40.1997C15.2751 40.1997 18.1475 37.3272 18.1475 33.7839C18.1475 30.2406 15.2751 27.3682 11.7317 27.3682C8.18841 27.3682 5.31598 30.2406 5.31598 33.7839C5.31598 37.3272 8.18841 40.1997 11.7317 40.1997Z" fill="#1F0850"/>
<path d="M10.5864 31.0869C10.5864 31.6323 10.1443 32.0744 9.59886 32.0744C9.05346 32.0744 8.61133 31.6323 8.61133 31.0869C8.61133 30.5415 9.05346 30.0994 9.59886 30.0994C10.1443 30.0994 10.5864 30.5415 10.5864 31.0869Z" fill="#1F0850"/>
<path d="M23.9983 14.9214C10.1666 18.2134 12.7192 33.8285 15.1891 42.6074C37.4188 46.7195 45.4839 33.149 48.7771 24.9188C45.4839 20.8037 35.2259 13.3187 23.9983 14.9214Z" fill="#00C2FF"/>
<path fill-rule="evenodd" clip-rule="evenodd" d="M24.1856 15.9074C20.9447 16.6874 18.7258 18.1663 17.2191 20.0316C15.6957 21.9176 14.846 24.267 14.4727 26.8503C13.756 31.8103 14.822 37.4389 15.9871 41.7317C26.5222 43.5447 33.6217 41.2377 38.4825 37.5898C43.2504 34.0117 45.9757 29.0605 47.6208 25.0999C45.9578 23.2003 42.8649 20.6437 38.9155 18.673C34.6696 16.5544 29.5236 15.1576 24.1856 15.9074ZM39.8106 16.879C44.3023 19.1203 47.8107 22.1069 49.5598 24.2925L49.9249 24.7488L49.7078 25.2913C48.0328 29.4775 45.1065 35.1255 39.686 39.1934C34.2276 43.2897 26.3613 45.6937 15.0068 43.5933L14.3931 43.4797L14.2241 42.879C12.9806 38.4594 11.6751 32.1925 12.4884 26.5636C12.8972 23.7342 13.8484 21.0139 15.6594 18.7718C17.4801 16.5177 20.1155 14.8151 23.7662 13.9463L23.811 13.9356L23.8566 13.9291C29.7299 13.0907 35.3094 14.6331 39.8106 16.879Z" fill="#1F0850"/>
<path d="M21.5923 19.7344C19.5874 19.7344 16.3796 19.7344 14.3745 21.7393C9.88159 28.957 12.4305 40.2868 16.3796 42.5905C21.1912 45.3974 30.2803 43.1252 33.6219 41.3876C36.8298 40.1846 38.071 36.0699 35.2258 28.957C32.0179 20.9373 28.0081 19.7344 21.5923 19.7344Z" fill="#FFE58A"/>
<path fill-rule="evenodd" clip-rule="evenodd" d="M15.1631 22.3704C13.1305 25.7071 12.6618 30.0371 13.2038 33.8672C13.4762 35.7923 13.9987 37.5477 14.671 38.9396C15.3542 40.3537 16.1425 41.2917 16.8846 41.7246C18.9936 42.9549 22.1877 43.1261 25.4208 42.6994C28.6215 42.277 31.6123 41.3027 33.1594 40.4982L33.2131 40.4702L33.2699 40.4489C34.5043 39.986 35.4037 38.9753 35.7057 37.2186C36.0174 35.4061 35.6828 32.7989 34.295 29.3294C32.7348 25.4288 31.0435 23.3486 29.102 22.2014C27.1402 21.0421 24.7649 20.7369 21.5923 20.7369C20.5806 20.7369 19.3689 20.7394 18.1727 20.9694C17.0193 21.1913 15.9637 21.6103 15.1631 22.3704ZM21.5649 18.7319L21.5923 18.7319C24.8354 18.7319 27.6729 19.0281 30.122 20.4753C32.5913 21.9344 34.5089 24.4656 36.1565 28.5847C37.6139 32.2281 38.0813 35.2347 37.6817 37.5584C37.2765 39.9148 35.9731 41.5539 34.0316 42.3042C32.2272 43.2301 29.0325 44.2451 25.6831 44.6871C22.3333 45.1292 18.5771 45.0331 15.8744 43.4564C14.642 42.7375 13.6308 41.3954 12.8657 39.8117C12.0899 38.2057 11.5155 36.2457 11.2187 34.1481C10.6277 29.9719 11.1159 25.0772 13.5235 21.2096L13.5843 21.1118L13.6657 21.0304C14.8612 19.835 16.3799 19.2725 17.7941 19.0006C19.1914 18.7319 20.5735 18.7319 21.5649 18.7319Z" fill="#1F0850"/>
<path d="M36.6561 53.1513C35.5184 48.7465 36.182 39.9981 36.6561 36.1746L38.4338 38.9815L39.0264 44.8923C39.1844 46.1159 39.4056 48.6548 39.0264 49.0218C38.6471 49.3889 37.9202 47.9512 37.6042 47.1865C37.7622 51.0101 37.7938 57.5561 36.6561 53.1513Z" fill="#1F0850"/>
<path d="M19.7039 40.726L13.8367 39.3826L13.2841 45.7701L22.0908 43.9681L19.7039 40.726Z" fill="#FF912C"/>
<path fill-rule="evenodd" clip-rule="evenodd" d="M13.2971 38.6418L20.0559 40.1894L23.1327 44.3688L12.6155 46.5208L13.2971 38.6418ZM14.3764 40.1231L13.9528 45.0193L21.0489 43.5673L19.352 41.2623L14.3764 40.1231Z" fill="#1F0850"/>
<path d="M19.7039 41.1833L13.2841 45.7689L22.0908 43.9669L19.7039 41.1833Z" fill="#C95807"/>
<path fill-rule="evenodd" clip-rule="evenodd" d="M19.8022 40.374L23.2127 44.3514L13.4047 46.3582L12.9345 45.2795L19.8022 40.374ZM15.939 44.6118L20.9688 43.5826L19.6056 41.9928L15.939 44.6118Z" fill="#1F0850"/>
<path d="M4.93157 18.5205C9.22891 10.1575 20.5066 13.0129 24.1787 14.9133C22.912 14.9265 18.6599 14.9133 17.6295 18.205C15.5508 24.8457 12.9511 25.4328 10.9462 26.1389C7.28667 27.4278 3.05625 22.1673 4.93157 18.5205Z" fill="#FF4242"/>
<path fill-rule="evenodd" clip-rule="evenodd" d="M14.7719 12.1465C18.7235 12.0491 22.5803 13.2732 24.5105 14.2722L24.1863 15.6349C24.1692 15.6351 24.1517 15.6353 24.1337 15.6355C23.4758 15.6421 22.2302 15.6546 21.0252 16.0203C19.7967 16.3932 18.7344 17.0916 18.3184 18.4205C17.2573 21.8105 16.0353 23.7477 14.7483 24.9291C13.5866 25.9955 12.4131 26.3979 11.4834 26.7167C11.3813 26.7518 11.282 26.7858 11.1861 26.8196C8.94764 27.608 6.67855 26.3646 5.29856 24.6298C3.91145 22.8861 3.17771 20.3531 4.28973 18.1904C4.28976 18.1904 4.28976 18.1904 4.28979 18.1903M14.7719 12.1465C10.7977 12.2443 6.60076 13.6932 4.28979 18.1903L14.7719 12.1465ZM14.8075 13.5896C11.1505 13.6796 7.56004 14.9846 5.57364 18.8503L5.57355 18.8505C4.81033 20.3347 5.25415 22.2552 6.42827 23.7312C7.60954 25.2162 9.28541 25.9586 10.7065 25.4581C10.8078 25.4224 10.9088 25.3875 11.0095 25.3527C11.9381 25.0319 12.8418 24.7196 13.7722 23.8656C14.8059 22.9167 15.9232 21.24 16.9408 17.9893C17.5552 16.0265 19.1342 15.0857 20.606 14.639C20.7835 14.5851 20.9613 14.5378 21.1378 14.4962C19.3379 13.9539 17.0845 13.5335 14.8075 13.5896Z" fill="#1F0850"/>
<path d="M8.13867 9.70094C6.13229 12.4976 7.19552 14.2269 8.5402 14.5113C12.3875 11.0871 21.0107 13.6448 23.7776 14.5111C23.5448 13.6189 23.6413 11.2994 23.7964 8.97204C23.9902 6.06289 21.1176 5.79638 20.1126 6.80139C19.3239 7.59011 19.1076 8.81141 19.6101 10.3189C17.0192 8.44797 15.4765 8.20721 14.9554 8.09698C13.6107 7.81257 9.86912 7.2889 8.13867 9.70094Z" fill="#FF4242"/>
<path fill-rule="evenodd" clip-rule="evenodd" d="M8.3903 13.6987C10.5671 12.0224 13.784 11.8781 16.641 12.1843C19.0581 12.4434 21.3796 13.0443 22.9329 13.4997C22.9157 13.1197 22.9135 12.7014 22.9199 12.2689C22.9346 11.2675 22.9985 10.0909 23.0762 8.92381C23.1166 8.31698 22.9943 7.91033 22.8294 7.64258C22.6647 7.37537 22.4279 7.19753 22.1526 7.09519C21.5505 6.87139 20.8926 7.04187 20.623 7.31151C20.0883 7.84623 19.8478 8.74938 20.2948 10.0904L21.003 12.2148L19.1876 10.9038C16.8478 9.21419 15.4365 8.93008 14.8948 8.82101C14.862 8.81442 14.8325 8.80846 14.806 8.80288C14.1673 8.66777 12.9788 8.48139 11.7652 8.60556C10.5467 8.73023 9.41986 9.1531 8.72517 10.1214C7.78857 11.4269 7.66576 12.3483 7.78714 12.8902C7.87504 13.2826 8.1053 13.5517 8.3903 13.6987ZM6.3785 13.2057C6.13369 12.1127 6.48246 10.7711 7.55224 9.27995C8.58799 7.83624 10.1972 7.31491 11.6183 7.16951C13.0442 7.02361 14.3989 7.24127 15.1048 7.39058C15.132 7.39633 15.1615 7.4024 15.1934 7.40896C15.7129 7.51582 16.8574 7.7512 18.6191 8.80027C18.6177 7.82419 18.9367 6.9563 19.6022 6.29077C20.3376 5.55539 21.6185 5.35662 22.6555 5.74211C23.1998 5.94442 23.7075 6.31586 24.0584 6.88541C24.4089 7.45442 24.573 8.17201 24.5166 9.01976C24.4393 10.1799 24.3774 11.3268 24.3633 12.2901C24.3487 13.2845 24.388 13.9915 24.476 14.3286L24.8048 15.5887L23.562 15.1996C22.1855 14.7687 19.3949 13.9313 16.4871 13.6197C13.5271 13.3024 10.6952 13.5593 9.0201 15.0502L8.74768 15.2926L8.39089 15.2172C7.46159 15.0206 6.62756 14.3177 6.3785 13.2057Z" fill="#1F0850"/>
<path d="M32.82 32.9668C32.82 36.5101 29.7681 39.3825 26.0033 39.3825C22.2385 39.3825 19.1865 36.5101 19.1865 32.9668C19.1865 29.4235 22.2385 26.551 26.0033 26.551C29.7681 26.551 32.82 29.4235 32.82 32.9668Z" fill="white"/>
<path fill-rule="evenodd" clip-rule="evenodd" d="M26.0033 38.1796C29.1734 38.1796 31.6171 35.7781 31.6171 32.9668C31.6171 30.1555 29.1734 27.754 26.0033 27.754C22.8331 27.754 20.3895 30.1555 20.3895 32.9668C20.3895 35.7781 22.8331 38.1796 26.0033 38.1796ZM26.0033 39.3825C29.7681 39.3825 32.82 36.5101 32.82 32.9668C32.82 29.4235 29.7681 26.551 26.0033 26.551C22.2385 26.551 19.1865 29.4235 19.1865 32.9668C19.1865 36.5101 22.2385 39.3825 26.0033 39.3825Z" fill="#1F0850"/>
<path d="M29.7838 35.4318C29.7838 36.2389 29.1294 36.8933 28.3223 36.8933C27.5151 36.8933 26.8607 36.2389 26.8607 35.4318C26.8607 34.6246 27.5151 33.9702 28.3223 33.9702C29.1294 33.9702 29.7838 34.6246 29.7838 35.4318Z" fill="#1F0850"/>
<path fill-rule="evenodd" clip-rule="evenodd" d="M35.8878 21.3408C35.1087 20.4937 34.1583 20.1515 33.4481 19.9643L33.7955 18.646C34.6071 18.8598 35.8538 19.2898 36.8913 20.4179C37.8902 21.504 38.6257 23.1596 38.6927 25.6824C40.6104 26.938 41.4335 28.4528 41.7446 29.8865C41.9811 30.9766 41.9119 32.0668 41.8661 32.7896C41.852 33.0114 41.8402 33.1985 41.84 33.3405L40.4766 33.3388C40.477 33.0796 40.4939 32.811 40.5115 32.5306C40.5555 31.832 40.604 31.0598 40.4122 30.1756C40.1624 29.0242 39.4882 27.7429 37.6648 26.6466L37.3343 26.4479L37.3344 26.0624C37.3344 23.5875 36.6563 22.1763 35.8878 21.3408Z" fill="#1F0850"/>
<path fill-rule="evenodd" clip-rule="evenodd" d="M40.5673 24.6772C40.94 23.3338 40.4115 22.4854 40.0306 22.1908L40.8646 21.1124C41.6249 21.7004 42.2621 22.9262 41.9957 24.5258C42.6821 24.995 43.1431 25.6141 43.4397 26.2044C43.793 26.9077 43.9349 27.6126 43.9362 28.0655L42.5728 28.0692C42.5722 27.8452 42.4882 27.3474 42.2215 26.8165C41.9603 26.2967 41.5455 25.7875 40.9153 25.4672L40.4182 25.2145L40.5673 24.6772Z" fill="#1F0850"/>
<path d="M29.5299 8.07739L23.5974 14.9223C31.2963 13.3184 41.4258 17.8347 44.3663 20.5079L42.3614 15.2951L39.1535 14.4932L36.7476 11.2853L32.3368 11.6863L29.5299 8.07739Z" fill="#00C2FF"/>
<path fill-rule="evenodd" clip-rule="evenodd" d="M29.5717 6.49854L32.7916 10.6384L37.2139 10.2364L39.7419 13.607L43.1099 14.4491L45.3019 20.1482L43.6919 21.2498C42.3677 20.046 39.2484 18.3044 35.4546 17.0641C31.6719 15.8274 27.4081 15.1525 23.8017 15.9038L20.8953 16.5093L29.5717 6.49854ZM26.0629 13.6081C29.4282 13.4431 32.9727 14.1433 36.0777 15.1585C38.4138 15.9222 40.5679 16.8866 42.2706 17.8519L41.6127 16.1414L38.565 15.3795L36.2812 12.3344L31.8818 12.7343L29.4879 9.65644L26.0629 13.6081Z" fill="#1F0850"/>
</svg>
