<svg width="80" height="68" viewBox="0 0 80 68" fill="none" xmlns="http://www.w3.org/2000/svg">
<path d="M33.501 65.9034C32.1316 60.6018 32.9304 50.0725 33.501 45.4705L36.3538 52.6496V55.963C36.544 57.4357 36.8102 60.4914 36.3538 60.9332C35.8973 61.375 35.0225 59.6446 34.6421 58.7242C34.8323 63.3262 34.8703 71.2049 33.501 65.9034Z" fill="#1F0850"/>
<path d="M65.8336 12.6185C58.1118 14.0664 58.2727 27.0971 59.0771 30.958C62.9379 34.3363 68.2467 43.0235 75.486 40.6104C71.1424 39.6451 69.2119 28.5449 63.9031 28.5449C67.2815 20.823 61.9727 20.823 65.8336 12.6185Z" fill="#00C2FF"/>
<path fill-rule="evenodd" clip-rule="evenodd" d="M67.9297 10.9979L66.9253 13.1323C66.0057 15.0865 65.6654 16.4811 65.5812 17.5749C65.4973 18.6665 65.6602 19.534 65.8677 20.5123C65.8805 20.5727 65.8935 20.6336 65.9067 20.6951C66.1051 21.6241 66.3333 22.6923 66.293 23.99C66.2601 25.0507 66.0517 26.2275 65.5631 27.6249C66.5991 27.9928 67.4765 28.6786 68.2197 29.4667C69.3215 30.6353 70.2577 32.1661 71.0987 33.6077C71.2479 33.8636 71.3941 34.1164 71.538 34.3653C72.2338 35.569 72.8768 36.6813 73.5585 37.598C74.3971 38.7258 75.1081 39.2904 75.7477 39.4326L80 40.3775L75.8675 41.755C71.6437 43.1629 68.0624 41.2644 65.2362 38.8778C63.8155 37.6781 62.5189 36.3009 61.3645 35.0485C61.2271 34.8994 61.0921 34.7526 60.9595 34.6083C59.9526 33.513 59.0804 32.5641 58.2825 31.866L57.9783 31.5998L57.8959 31.2041C57.4615 29.1189 57.2169 24.7275 58.0773 20.6351C58.9226 16.6148 60.9797 12.3011 65.6113 11.4326L67.9297 10.9979ZM60.1875 30.3344C61.0007 31.0859 61.8614 32.0229 62.7355 32.9744C62.8697 33.1205 63.0042 33.2669 63.1389 33.4131C64.2921 34.6642 65.499 35.9414 66.793 37.0341C68.5351 38.5052 70.3172 39.5464 72.2093 39.7732C72.0026 39.5342 71.8072 39.2869 71.622 39.0379C70.849 37.9983 70.1207 36.7372 69.4255 35.5334C69.2872 35.2938 69.1501 35.0565 69.0143 34.8236C68.1661 33.3696 67.3529 32.065 66.4639 31.1221C65.5844 30.1893 64.764 29.7515 63.9031 29.7515H62.0583L62.7977 28.0613C63.5941 26.2412 63.8491 24.9451 63.8811 23.915C63.9121 22.9174 63.74 22.1081 63.536 21.1492C63.5265 21.1041 63.5168 21.0588 63.5071 21.0131C63.2924 20.0006 63.0632 18.8471 63.1752 17.3899C63.2334 16.6338 63.3812 15.8165 63.6516 14.9043C62.0227 16.2016 61.0036 18.4451 60.4387 21.1316C59.7019 24.6361 59.8615 28.4063 60.1875 30.3344Z" fill="#1F0850"/>
<path d="M23.0942 61.6044C19.2767 60.2355 21.7688 55.3303 23.0943 53.0488L25.8139 52.1932C26.4979 53.0488 28.1841 55.2733 29.4566 57.3266C30.7291 59.3799 27.5583 61.034 25.8139 61.6044C25.4573 61.9036 24.0514 61.9477 23.0942 61.6044Z" fill="#FF4242"/>
<path fill-rule="evenodd" clip-rule="evenodd" d="M26.0697 51.3539L26.3793 51.7412C27.0733 52.6092 28.7786 54.8584 30.0719 56.9453C30.4974 57.6319 30.5718 58.34 30.3587 59.0027C30.157 59.63 29.7195 60.1519 29.2419 60.5676C28.3231 61.3676 27.0545 61.9484 26.1407 62.2586C25.9362 62.3848 25.7036 62.4497 25.5201 62.4877C25.2665 62.5403 24.9791 62.5661 24.687 62.5692C24.1091 62.5754 23.4289 62.4935 22.8498 62.2859C21.7246 61.8824 20.9964 61.1842 20.6276 60.2859C20.2717 59.4191 20.2848 58.4498 20.4537 57.537C20.7901 55.7204 21.8035 53.8293 22.4683 52.6851L22.6093 52.4425L26.0697 51.3539ZM25.9156 60.8021C26.6935 60.5131 27.6364 60.0457 28.2912 59.4756C28.6653 59.1499 28.8909 58.8376 28.9804 58.5595C29.0584 58.3167 29.0519 58.048 28.8412 57.708C27.7502 55.9475 26.3437 54.0503 25.5542 53.0339L23.581 53.6546C22.9393 54.7829 22.1444 56.3584 21.8774 57.8006C21.7349 58.5705 21.7579 59.2268 21.9669 59.736C22.1631 60.2137 22.555 60.642 23.3385 60.923C23.5516 60.9994 23.8038 61.0542 24.0646 61.0867C23.4408 60.3884 23.0908 59.6207 22.9576 58.8287C22.753 57.612 23.0767 56.438 23.5091 55.5077C23.6776 55.1452 24.1082 54.9879 24.4707 55.1564C24.8333 55.325 24.9906 55.7555 24.822 56.118C24.4591 56.8989 24.247 57.7651 24.3854 58.5886C24.5076 59.3147 24.9157 60.0917 25.9156 60.8021Z" fill="#1F0850"/>
<path d="M21.842 40.6624C21.842 44.9271 18.3848 48.3843 14.1201 48.3843C9.85546 48.3843 6.39825 44.9271 6.39825 40.6624C6.39825 36.3978 9.85546 32.9406 14.1201 32.9406C18.3848 32.9406 21.842 36.3978 21.842 40.6624Z" fill="white"/>
<path fill-rule="evenodd" clip-rule="evenodd" d="M14.1201 46.9365C17.5852 46.9365 20.3942 44.1275 20.3942 40.6624C20.3942 37.1974 17.5852 34.3884 14.1201 34.3884C10.6551 34.3884 7.84611 37.1974 7.84611 40.6624C7.84611 44.1275 10.6551 46.9365 14.1201 46.9365ZM14.1201 48.3843C18.3848 48.3843 21.842 44.9271 21.842 40.6624C21.842 36.3978 18.3848 32.9406 14.1201 32.9406C9.85546 32.9406 6.39825 36.3978 6.39825 40.6624C6.39825 44.9271 9.85546 48.3843 14.1201 48.3843Z" fill="#1F0850"/>
<path d="M12.7415 37.4162C12.7415 38.0727 12.2094 38.6048 11.5529 38.6048C10.8965 38.6048 10.3644 38.0727 10.3644 37.4162C10.3644 36.7598 10.8965 36.2277 11.5529 36.2277C12.2094 36.2277 12.7415 36.7598 12.7415 37.4162Z" fill="#1F0850"/>
<path d="M28.8839 17.96C12.2363 21.9223 15.3086 40.7163 18.2814 51.2824C45.0366 56.2317 54.7436 39.8984 58.7073 29.9927C54.7436 25.0398 42.3972 16.031 28.8839 17.96Z" fill="#00C2FF"/>
<path fill-rule="evenodd" clip-rule="evenodd" d="M29.1095 19.1466C25.2088 20.0854 22.5381 21.8653 20.7246 24.1105C18.8911 26.3804 17.8684 29.2081 17.4192 32.3173C16.5566 38.287 17.8396 45.0615 19.2418 50.2283C31.9217 52.4103 40.4666 49.6337 46.317 45.2431C52.0555 40.9366 55.3356 34.9774 57.3156 30.2105C55.314 27.9242 51.5915 24.8471 46.838 22.4753C41.7277 19.9254 35.5341 18.2441 29.1095 19.1466ZM47.9154 20.316C53.3216 23.0136 57.5441 26.6083 59.6493 29.2388L60.0888 29.7879L59.8275 30.4409C57.8114 35.4793 54.2895 42.2771 47.7654 47.1732C41.1958 52.1034 31.7281 54.9968 18.0619 52.4688L17.3234 52.3322L17.1199 51.6091C15.6233 46.2897 14.052 38.7471 15.0309 31.9722C15.5229 28.5668 16.6678 25.2927 18.8474 22.5942C21.0388 19.8811 24.2108 17.832 28.6046 16.7862L28.6585 16.7734L28.7135 16.7655C35.7825 15.7565 42.4979 17.6128 47.9154 20.316Z" fill="#1F0850"/>
<path d="M25.9881 23.7527C23.575 23.7527 19.7142 23.7527 17.3009 26.1658C11.8933 34.8529 14.9611 48.4892 19.7141 51.2619C25.5053 54.6402 36.4449 51.9054 40.4667 49.8141C44.3276 48.3662 45.8215 43.4138 42.3972 34.8529C38.5362 25.2005 33.71 23.7527 25.9881 23.7527Z" fill="#FFE58A"/>
<path fill-rule="evenodd" clip-rule="evenodd" d="M18.2501 26.9254C15.8038 30.9414 15.2396 36.1528 15.8919 40.7627C16.2198 43.0797 16.8486 45.1925 17.6579 46.8677C18.48 48.5697 19.4288 49.6986 20.3221 50.2197C22.8604 51.7005 26.7048 51.9065 30.5961 51.393C34.4483 50.8845 38.048 49.7119 39.9101 48.7436L39.9748 48.71L40.0431 48.6843C41.5289 48.1272 42.6113 46.9107 42.9748 44.7964C43.35 42.6148 42.9473 39.4768 41.2769 35.301C39.3991 30.6064 37.3635 28.1027 35.0267 26.7219C32.6655 25.3267 29.8066 24.9592 25.9881 24.9592C24.7705 24.9592 23.3122 24.9623 21.8725 25.2392C20.4842 25.5061 19.2137 26.0105 18.2501 26.9254ZM25.9551 22.5461L25.9881 22.5461C29.8915 22.5461 33.3067 22.9026 36.2543 24.6444C39.2263 26.4006 41.5343 29.4471 43.5174 34.4048C45.2715 38.7899 45.834 42.4086 45.353 45.2054C44.8653 48.0414 43.2966 50.0142 40.9599 50.9173C38.7881 52.0317 34.943 53.2533 30.9118 53.7853C26.8801 54.3174 22.3591 54.2017 19.1062 52.3041C17.6229 51.4388 16.4059 49.8235 15.485 47.9174C14.5513 45.9844 13.8599 43.6254 13.5026 41.1008C12.7914 36.0744 13.3789 30.1832 16.2766 25.5282L16.3499 25.4106L16.4478 25.3126C17.8867 23.8738 19.7147 23.1968 21.4167 22.8695C23.0985 22.5461 24.7619 22.5461 25.9551 22.5461Z" fill="#1F0850"/>
<path d="M44.1186 63.9728C42.7492 58.6713 43.548 48.1419 44.1186 43.5399L46.2582 46.9182L46.9714 54.0325C47.1616 55.5051 47.4279 58.5609 46.9714 59.0026C46.515 59.4444 45.6401 57.7141 45.2597 56.7937C45.4499 61.3957 45.4879 69.2743 44.1186 63.9728Z" fill="#1F0850"/>
<path d="M23.7152 49.0177L16.6536 47.4008L15.9885 55.0887L26.588 52.9199L23.7152 49.0177Z" fill="#FF912C"/>
<path fill-rule="evenodd" clip-rule="evenodd" d="M16.0041 46.5094L24.1389 48.372L27.8421 53.4022L15.1837 55.9923L16.0041 46.5094ZM17.3031 48.2922L16.7933 54.1851L25.334 52.4376L23.2917 49.6634L17.3031 48.2922Z" fill="#1F0850"/>
<path d="M23.7152 49.5682L15.9885 55.0874L26.588 52.9185L23.7152 49.5682Z" fill="#C95807"/>
<path fill-rule="evenodd" clip-rule="evenodd" d="M23.8337 48.594L27.9384 53.3811L16.1337 55.7965L15.5678 54.4982L23.8337 48.594ZM19.1839 53.6945L25.2378 52.4558L23.597 50.5423L19.1839 53.6945Z" fill="#1F0850"/>
<path d="M5.93546 22.2909C11.1077 12.2253 24.6813 15.662 29.1009 17.9493C27.5764 17.9653 22.4586 17.9493 21.2185 21.9112C18.7165 29.9038 15.5876 30.6104 13.1745 31.4603C8.77002 33.0116 3.67837 26.6802 5.93546 22.2909Z" fill="#FF4242"/>
<path fill-rule="evenodd" clip-rule="evenodd" d="M17.7791 14.6193C22.5351 14.5021 27.1771 15.9754 29.5003 17.1778L29.11 18.8179C29.0895 18.8182 29.0683 18.8184 29.0467 18.8186C28.255 18.8265 26.7557 18.8416 25.3054 19.2817C23.8268 19.7306 22.5482 20.5712 22.0476 22.1706C20.7704 26.2507 19.2997 28.5823 17.7507 30.0042C16.3524 31.2877 14.9401 31.7721 13.8211 32.1558C13.6981 32.198 13.5787 32.239 13.4632 32.2796C10.7691 33.2285 8.03802 31.732 6.3771 29.6441C4.7076 27.5453 3.82449 24.4966 5.16289 21.8937C5.16293 21.8936 5.16292 21.8936 5.16296 21.8936M17.7791 14.6193C12.9958 14.7371 7.94441 16.4809 5.16296 21.8936L17.7791 14.6193ZM17.8218 16.3562C13.4204 16.4646 9.09898 18.0352 6.70819 22.6879L6.70807 22.6881C5.78948 24.4744 6.32364 26.786 7.73679 28.5624C9.15856 30.3497 11.1756 31.2433 12.886 30.6409C13.008 30.5979 13.1295 30.5559 13.2507 30.5141C14.3684 30.1279 15.456 29.7521 16.5758 28.7242C17.82 27.5821 19.1647 25.5641 20.3895 21.6516C21.129 19.2892 23.0294 18.1569 24.8008 17.6192C25.0145 17.5544 25.2285 17.4974 25.4409 17.4474C23.2746 16.7947 20.5624 16.2887 17.8218 16.3562Z" fill="#1F0850"/>
<path d="M9.79559 11.6759C7.38074 15.0419 8.66043 17.1232 10.2789 17.4655C14.9094 13.3442 25.2881 16.4227 28.6183 17.4653C28.3381 16.3915 28.4543 13.5997 28.6409 10.7986C28.8741 7.29722 25.4168 6.97646 24.2072 8.18607C23.2579 9.13536 22.9976 10.6053 23.6024 12.4197C20.4841 10.1679 18.6273 9.87808 18.0001 9.74542C16.3816 9.4031 11.8783 8.77282 9.79559 11.6759Z" fill="#FF4242"/>
<path fill-rule="evenodd" clip-rule="evenodd" d="M10.0984 16.4879C12.7183 14.4703 16.5902 14.2966 20.0288 14.6652C22.938 14.9771 25.7321 15.7003 27.6017 16.2484C27.5809 15.7911 27.5783 15.2876 27.5859 14.767C27.6036 13.5618 27.6805 12.1457 27.7741 10.7409C27.8228 10.0105 27.6755 9.52111 27.477 9.19885C27.2789 8.87724 26.9937 8.66319 26.6624 8.54003C25.9378 8.27067 25.146 8.47585 24.8214 8.80038C24.1779 9.44396 23.8885 10.531 24.4265 12.145L25.2788 14.7019L23.0938 13.124C20.2777 11.0904 18.5791 10.7485 17.9271 10.6172C17.8877 10.6093 17.8521 10.6021 17.8203 10.5954C17.0515 10.4328 15.621 10.2084 14.1604 10.3579C12.6938 10.5079 11.3376 11.0169 10.5014 12.1823C9.37417 13.7536 9.22636 14.8626 9.37245 15.5148C9.47825 15.9871 9.75538 16.311 10.0984 16.4879ZM7.67704 15.8945C7.38238 14.579 7.80216 12.9643 9.08973 11.1696C10.3363 9.43194 12.2731 8.80448 13.9835 8.62948C15.6998 8.45388 17.3302 8.71584 18.1798 8.89555C18.2125 8.90247 18.2481 8.90978 18.2865 8.91768C18.9118 9.04628 20.2892 9.32959 22.4096 10.5922C22.4079 9.41744 22.7919 8.37286 23.5929 7.57184C24.478 6.68675 26.0196 6.44751 27.2678 6.91148C27.9228 7.15498 28.5339 7.60204 28.9562 8.28753C29.3782 8.97239 29.5756 9.83607 29.5077 10.8564C29.4147 12.2528 29.3402 13.6331 29.3232 14.7925C29.3056 15.9894 29.353 16.8403 29.4589 17.246L29.8546 18.7626L28.3587 18.2944C26.702 17.7757 23.3433 16.7679 19.8436 16.3928C16.281 16.0109 12.8725 16.3201 10.8564 18.1145L10.5285 18.4063L10.0991 18.3155C8.98063 18.0789 7.9768 17.2329 7.67704 15.8945Z" fill="#1F0850"/>
<path d="M39.5015 39.679C39.5015 43.9437 35.8283 47.4009 31.297 47.4009C26.7658 47.4009 23.0925 43.9437 23.0925 39.679C23.0925 35.4144 26.7658 31.9572 31.297 31.9572C35.8283 31.9572 39.5015 35.4144 39.5015 39.679Z" fill="white"/>
<path fill-rule="evenodd" clip-rule="evenodd" d="M31.297 45.9531C35.1126 45.9531 38.0537 43.0627 38.0537 39.679C38.0537 36.2954 35.1126 33.405 31.297 33.405C27.4815 33.405 24.5404 36.2954 24.5404 39.679C24.5404 43.0627 27.4815 45.9531 31.297 45.9531ZM31.297 47.4009C35.8283 47.4009 39.5015 43.9437 39.5015 39.679C39.5015 35.4144 35.8283 31.9572 31.297 31.9572C26.7658 31.9572 23.0925 35.4144 23.0925 39.679C23.0925 43.9437 26.7658 47.4009 31.297 47.4009Z" fill="#1F0850"/>
<path d="M35.8473 42.6459C35.8473 43.6174 35.0597 44.405 34.0882 44.405C33.1167 44.405 32.3291 43.6174 32.3291 42.6459C32.3291 41.6744 33.1167 40.8868 34.0882 40.8868C35.0597 40.8868 35.8473 41.6744 35.8473 42.6459Z" fill="#1F0850"/>
<path fill-rule="evenodd" clip-rule="evenodd" d="M43.194 25.6861C42.2563 24.6665 41.1124 24.2546 40.2576 24.0294L40.6757 22.4426C41.6525 22.7 43.153 23.2175 44.4018 24.5753C45.604 25.8824 46.4893 27.8751 46.5699 30.9115C48.8779 32.4227 49.8687 34.2459 50.243 35.9715C50.5277 37.2836 50.4445 38.5957 50.3893 39.4656C50.3724 39.7325 50.3581 39.9578 50.3579 40.1286L48.717 40.1267C48.7174 39.8147 48.7377 39.4914 48.759 39.154C48.8119 38.3131 48.8704 37.3837 48.6394 36.3194C48.3388 34.9337 47.5274 33.3916 45.3327 32.072L44.935 31.8329L44.935 31.3689C44.935 28.3902 44.1189 26.6916 43.194 25.6861Z" fill="#1F0850"/>
<path fill-rule="evenodd" clip-rule="evenodd" d="M48.8259 29.7017C49.2746 28.0848 48.6384 27.0637 48.18 26.7091L49.1839 25.4112C50.0989 26.1189 50.8659 27.5942 50.5452 29.5195C51.3713 30.0842 51.9262 30.8293 52.2832 31.5398C52.7084 32.3863 52.8792 33.2347 52.8807 33.7798L51.2398 33.7843C51.2391 33.5147 51.138 32.9155 50.8169 32.2765C50.5026 31.6508 50.0034 31.0381 49.2448 30.6525L48.6465 30.3484L48.8259 29.7017Z" fill="#1F0850"/>
<path d="M35.5416 9.72278L28.4013 17.9612C37.6676 16.0307 49.8593 21.4665 53.3985 24.6839L50.9854 18.4099L47.1244 17.4447L44.2287 13.5837L38.9199 14.0663L35.5416 9.72278Z" fill="#00C2FF"/>
<path fill-rule="evenodd" clip-rule="evenodd" d="M35.592 7.82239L39.4674 12.8051L44.79 12.3212L47.8327 16.3781L51.8864 17.3915L54.5246 24.2508L52.5869 25.5767C50.9931 24.1278 47.2387 22.0318 42.6726 20.5389C38.1198 19.0505 32.988 18.2381 28.6474 19.1424L25.1493 19.8712L35.592 7.82239ZM31.369 16.3794C35.4193 16.1807 39.6854 17.0235 43.4225 18.2453C46.2342 19.1646 48.8269 20.3253 50.8762 21.4871L50.0844 19.4283L46.4162 18.5113L43.6675 14.8463L38.3724 15.3276L35.4912 11.6232L31.369 16.3794Z" fill="#1F0850"/>
</svg>
