<svg width="64" height="64" viewBox="0 0 64 64" fill="none" xmlns="http://www.w3.org/2000/svg">
<path d="M63.2999 32C63.2999 49.2999 49.2999 63.2999 32 63.2999C14.7 63.2999 0.699951 49.2999 0.699951 32C0.699951 14.7 14.7 0.699951 32 0.699951C49.2999 0.699951 63.2999 14.7 63.2999 32ZM32 2.59995C15.7 2.59995 2.59995 15.7 2.59995 32C2.59995 48.2999 15.7999 61.4 32 61.4C48.2999 61.4 61.4 48.2 61.4 32C61.4 15.7 48.2999 2.59995 32 2.59995Z" fill="url(#paint0_linear)"/>
<path d="M32 2.6001C15.7 2.6001 2.59998 15.7001 2.59998 32.0001C2.59998 48.3001 15.8 61.4001 32 61.4001C48.3 61.4001 61.4 48.2001 61.4 32.0001C61.4 15.7001 48.3 2.6001 32 2.6001ZM32 59.5001C16.8 59.5001 4.49998 47.2001 4.49998 32.0001C4.49998 16.8001 16.8 4.5001 32 4.5001C47.2 4.5001 59.5 16.8001 59.5 32.0001C59.5 47.2001 47.2 59.5001 32 59.5001Z" fill="url(#paint1_linear)"/>
<path opacity="0.4" d="M32 63.3C49.3 63.3 63.3 49.3 63.3 32C63.3 14.7 49.3 0.7 32 0.7C14.7 0.7 0.7 14.7 0.7 32C0.7 49.3 14.7 63.3 32 63.3ZM32 0C49.6 0 64 14.4 64 32C64 49.6 49.6 64 32 64C14.4 64 0 49.6 0 32C0 14.4 14.4 0 32 0Z" fill="url(#paint2_linear)"/>
<path d="M2.19995 32.0999C2.19995 15.6999 15.5 2.19995 32 2.19995C48.5 2.19995 61.7999 15.5999 61.7999 32.0999C61.7999 48.4999 48.5 61.7999 32 61.7999C15.5 61.7999 2.19995 48.4999 2.19995 32.0999ZM11.5 11.5C6.19995 16.8 2.89995 24.0999 2.89995 32.0999C2.89995 40.0999 6.19995 47.3999 11.4 52.5999C16.7 57.7999 24 61.0999 32 61.0999C40 61.0999 47.2999 57.8999 52.5 52.5999C57.7999 47.3999 61 40.0999 61 32.0999C61 24.0999 57.7 16.8 52.5 11.5C47.2999 6.19995 40 2.89995 32 2.89995C24 2.89995 16.7 6.19995 11.5 11.5Z" fill="white"/>
<path opacity="0.4" d="M32 59.5999C24.6 59.5999 17.7 56.6999 12.5 51.4999C7.30002 46.2999 4.40002 39.3999 4.40002 31.9999C4.40002 24.5999 7.30002 17.6999 12.5 12.4999C17.7 7.2999 24.6 4.3999 32 4.3999C39.4 4.3999 46.3 7.2999 51.5 12.4999C56.7 17.6999 59.6 24.5999 59.6 31.9999C59.6 39.3999 56.7 46.2999 51.5 51.4999C46.3 56.6999 39.4 59.5999 32 59.5999ZM32 58.7999C39.1 58.7999 45.9 55.9999 50.9 50.9999C56 45.8999 58.7 39.1999 58.7 32.0999C58.7 24.9999 55.9 18.1999 50.9 13.1999C45.8 8.0999 39.1 5.3999 32 5.3999C24.9 5.3999 18.1 8.1999 13.1 13.1999C8.00003 18.0999 5.20002 24.8999 5.20002 31.9999C5.20002 39.0999 8.00002 45.8999 13 50.8999C18.1 55.9999 24.9 58.7999 32 58.7999Z" fill="url(#paint3_linear)"/>
<path d="M56.3 45.0001C55.8 44.6001 36.5 29.3001 36.5 29.3001L32 3.6001C31.7001 3.7001 31.3 4.0001 31.1 4.4001L27.9 29.4001L8.00005 44.7001C8.00005 44.7001 7.60005 45.2001 7.40005 45.5001C7.30005 45.7001 7.30005 46.0001 7.30005 46.3001L31.9 36.2001L56.5 46.3001C56.7001 45.8001 56.5 45.3001 56.3 45.0001Z" fill="white"/>
<path d="M32.2 32.8001L32 37.4001L54.6 46.5001C55.4 46.9001 56 46.7001 56.6 46.3001L32.5 32.7001C32.4 32.6001 32.2 32.7001 32.2 32.8001Z" fill="#565F64"/>
<path d="M32.2 32.8001C32.2 32.8001 33.5 35.1001 35 36.7001C37.1 39.0001 39.9 40.6001 39.9 40.6001L54.5999 46.5001C55.3999 46.9001 55.9999 46.7001 56.5999 46.3001L32.5 32.7001C32.4 32.6001 32.2 32.7001 32.2 32.8001Z" fill="url(#paint4_linear)"/>
<path d="M56.5 45.3999C56.5 45.2999 56.4 45.1999 56.3 44.9999L35.7 29.8999L32.9 31.6999C32.9 31.6999 33.1 31.7999 33.2 31.6999C33.5 31.5999 34.1 31.4999 34.7 31.6999C35.2 31.8999 56.5 45.4999 56.5 45.4999C56.5 45.4999 56.5 45.4999 56.5 45.3999Z" fill="#A4AAAE" fill-opacity="0.6"/>
<path d="M55.7999 44.5L36.5999 29.3L35.7 29.9L56.2999 45.1C56.1999 44.9 56 44.7 55.7999 44.5Z" fill="#333E46"/>
<path d="M32.5 31.2999C32.4 31.4 32.4 31.4 32.4 31.4C32.4 31.4 32.4 31.6 32.6 31.5C32.7 31.4 35.6 29.9 36.6 29.2999L33.1 5.29995C33 4.39995 32.6 3.99995 31.9 3.69995L32.3 31.5L32.5 31.2999Z" fill="#565F64"/>
<path d="M30.8 5.29995V6.59995L28.6 28.7C28.6 29 28.7 29.2999 29 29.5L30.3 30.5L31.2 6.09995L31.3 4.19995C31 4.39995 30.9 4.79995 30.8 5.29995Z" fill="#A4AAAE" fill-opacity="0.6"/>
<path d="M29.6 30.8999L28.4 29.8999L8.10002 44.5999C8.10002 44.5999 7.50002 44.9999 7.40002 45.3999L8.10002 44.9999L29.4 31.5999C29.8 31.3999 29.9 31.1999 29.6 30.8999Z" fill="#A4AAAE" fill-opacity="0.6"/>
<path d="M31.7001 32.8001C31.7001 32.7001 31.6 32.6001 31.5 32.7001L7.30005 46.4001C7.90005 46.8001 8.50005 46.9001 9.30005 46.6001L31.9 37.5001L31.7001 32.8001Z" fill="#565F64"/>
<path d="M32.4 31.3999L32.5 31.2999C32.4 31.3999 32.4 31.3999 32.4 31.3999C32.4 31.3999 32.4 31.4999 32.5 31.4999H32.6C32.7 31.3999 35.6 29.8999 36.6 29.2999L36.2 26.3999L33.1 5.2999C33.1 4.8999 33 4.5999 32.8 4.3999C32.8 4.3999 34.3 24.5999 34.3 26.7999C34.3 29.6999 32.4 31.3999 32.4 31.3999Z" fill="url(#paint5_linear)"/>
<path d="M31.7001 32.8001C31.7001 32.7001 31.6 32.6001 31.5 32.7001L7.30005 46.4001C7.90005 46.8001 8.50005 46.9001 9.30005 46.6001L31.9 37.5001L31.7001 32.8001Z" fill="url(#paint6_linear)" fill-opacity="0.8"/>
<path opacity="0.8" d="M9.29995 46.5L31.9 37.4L31.7 33C31.3 34.2 30.6 35.5 28.7 36.5C27.3 37.3 13.9 43.9 9.09995 46.2C8.79995 46.4 8.39995 46.5 8.19995 46.6C8.59995 46.8 8.89995 46.7 9.29995 46.5Z" fill="url(#paint7_linear)"/>
<path d="M32.5 31.2999C32.4 31.4 32.4 31.4 32.4 31.4C32.4 31.4 32.4 31.6 32.6 31.5C32.7 31.4 35.6 29.9 36.6 29.2999L33.1 5.29995C33 4.39995 32.6 3.99995 31.9 3.69995L32.3 31.5L32.5 31.2999Z" fill="url(#paint8_linear)"/>
<path d="M32.5 31.2999C32.4 31.4 32.4 31.4 32.4 31.4C32.4 31.4 32.4 31.6 32.6 31.5C32.7 31.4 35.6 29.9 36.6 29.2999L33.1 5.29995C33 4.39995 32.6 3.99995 31.9 3.69995L32.3 31.5L32.5 31.2999Z" fill="url(#paint9_linear)"/>
<path d="M5.09995 44.4C4.39995 42.8 0.399951 35 4.79995 20H3.09995C2.19995 23 1.49995 24.8 1.09995 27.5C1.09995 27.5 0.899951 28.5 0.799951 29.6C0.699951 30.7 0.699951 31.3 0.699951 32C0.699951 38 2.19995 41.5 2.19995 41.5C3.79995 46.5 6.59995 51 10.4 54.4C13.7 57.3 18.7999 59.5 23 60.3C22.2999 60.2 10.3 55.1 5.09995 44.4Z" fill="url(#paint10_linear)"/>
<path d="M32.4 32.6H31.5C31.6 32.6 31.7 32.6 31.7 32.7L31.9 37.3H32L32.2 32.7C32.2 32.6 32.3 32.5 32.4 32.6Z" fill="url(#paint11_linear)"/>
<path d="M42 2.30005C52.5 6.30005 62.4 17.3001 62.4 31.2001C62.4 48 49 61.7001 32 61.7001V63.3C49 63.3 63.3 49.3 63.3 32C63.3 18.2 54.5 6.60005 42 2.30005Z" fill="url(#paint12_linear)"/>
<path d="M58.8 20.2001C51.8 4.1001 36 3.2001 35.1 3.1001C35.1 3.1001 35.1 3.1001 35 3.1001C47.1 5.3001 54.8 13.2001 57.5 21.5001V21.6001C58.7 24.8001 59.3 28.2001 59.4 31.9001C59.5 35.4001 58.7 39.3001 57.2 42.9001C57.1 43.4001 57 44.0001 56.9 44.0001H58.5C63.3 35.0001 61.2 25.9001 58.8 20.2001Z" fill="url(#paint13_linear)"/>
<path d="M2.19995 32.0999C2.19995 15.6999 15.5 2.19995 32 2.19995C48.5 2.19995 61.7999 15.5999 61.7999 32.0999C61.7999 48.4999 48.5 61.7999 32 61.7999C15.5 61.7999 2.19995 48.4999 2.19995 32.0999ZM11.5 11.5C6.19995 16.8 2.89995 24.0999 2.89995 32.0999C2.89995 40.0999 6.19995 47.3999 11.4 52.5999C16.7 57.7999 24 61.0999 32 61.0999C40 61.0999 47.2999 57.8999 52.5 52.5999C57.7999 47.3999 61 40.0999 61 32.0999C61 24.0999 57.7 16.8 52.5 11.5C47.2999 6.19995 40 2.89995 32 2.89995C24 2.89995 16.7 6.19995 11.5 11.5Z" fill="#FBFBFB"/>
<path d="M7.90002 44.7999L28.3 30.0999C29.4 30.6999 31.2 31.4999 31.4 31.4999C31.6 31.5999 31.6 31.3999 31.6 31.3999L29.1 29.2999C28.8 29.0999 28.7 28.7999 28.7 28.4999L31.1 4.3999C31 4.4999 31 4.6999 30.9 4.7999C30.8 4.9999 30.8 5.0999 30.8 5.2999L27.3 29.3999L8.10002 44.4999C8.00002 44.5999 7.90002 44.6999 7.90002 44.7999Z" fill="#333F47"/>
<defs>
<linearGradient id="paint0_linear" x1="7.99995" y1="11.9" x2="56" y2="52.1" gradientUnits="userSpaceOnUse">
<stop stop-color="white"/>
<stop offset="0.1" stop-color="#CDD0D0"/>
<stop offset="0.2" stop-color="#A5ACAF"/>
<stop offset="0.3" stop-color="#98A0A4"/>
<stop offset="0.4" stop-color="#828A8F"/>
<stop offset="0.5" stop-color="#667075"/>
<stop offset="0.6" stop-color="#535C63"/>
<stop offset="0.7" stop-color="#475158"/>
<stop offset="0.8" stop-color="#434D54"/>
<stop offset="1" stop-color="#475157"/>
</linearGradient>
<linearGradient id="paint1_linear" x1="9.49998" y1="13.1001" x2="54.5" y2="50.9001" gradientUnits="userSpaceOnUse">
<stop stop-color="#0B1F2A"/>
<stop offset="0.2" stop-color="#333F47"/>
<stop offset="0.5" stop-color="#81898D"/>
<stop offset="0.7" stop-color="#B3B8B8"/>
<stop offset="0.8" stop-color="#DEE0DD"/>
<stop offset="1" stop-color="#FBFBFB"/>
</linearGradient>
<linearGradient id="paint2_linear" x1="42.9726" y1="62.1071" x2="21.0726" y2="1.9071" gradientUnits="userSpaceOnUse">
<stop stop-color="#E1E3E1"/>
<stop offset="0.1" stop-color="#C1C5C4"/>
<stop offset="0.3" stop-color="#9BA1A2"/>
<stop offset="0.5" stop-color="#7D8487"/>
<stop offset="0.7" stop-color="#687074" stop-opacity="0"/>
<stop offset="0.8" stop-color="#5B6469" stop-opacity="0"/>
<stop offset="1" stop-color="#576065" stop-opacity="0"/>
</linearGradient>
<linearGradient id="paint3_linear" x1="18.2" y1="8.0999" x2="45.8" y2="55.8999" gradientUnits="userSpaceOnUse">
<stop stop-color="#E1E3E1"/>
<stop offset="0.1" stop-color="#C1C5C4"/>
<stop offset="0.3" stop-color="#9BA1A2"/>
<stop offset="0.5" stop-color="#7D8487"/>
<stop offset="0.7" stop-color="#687074" stop-opacity="0"/>
<stop offset="0.8" stop-color="#5B6469" stop-opacity="0"/>
<stop offset="1" stop-color="#576065" stop-opacity="0"/>
</linearGradient>
<linearGradient id="paint4_linear" x1="44.5" y1="39.4001" x2="42.8" y2="42.2001" gradientUnits="userSpaceOnUse">
<stop stop-color="#27343C"/>
<stop offset="1" stop-color="#00111E" stop-opacity="0"/>
</linearGradient>
<linearGradient id="paint5_linear" x1="39.6" y1="29.0999" x2="36.8" y2="24.5999" gradientUnits="userSpaceOnUse">
<stop offset="0.1" stop-color="#02131F"/>
<stop offset="0.9" stop-color="#02131F" stop-opacity="0"/>
</linearGradient>
<linearGradient id="paint6_linear" x1="32" y1="36.4001" x2="27.8" y2="37.6001" gradientUnits="userSpaceOnUse">
<stop offset="0.2" stop-color="#02131F"/>
<stop offset="0.9" stop-color="#02131F" stop-opacity="0"/>
</linearGradient>
<linearGradient id="paint7_linear" x1="20.8" y1="41.9" x2="20.2" y2="40.4" gradientUnits="userSpaceOnUse">
<stop stop-color="#02131F"/>
<stop offset="0.1" stop-color="#02131F"/>
<stop offset="1" stop-color="#02131F" stop-opacity="0"/>
</linearGradient>
<linearGradient id="paint8_linear" x1="35.6" y1="17.2" x2="32.2" y2="17.6" gradientUnits="userSpaceOnUse">
<stop offset="0.3" stop-color="#02131F"/>
<stop offset="0.8" stop-color="#02131F" stop-opacity="0"/>
</linearGradient>
<linearGradient id="paint9_linear" x1="35.7" y1="17.1" x2="33.4" y2="17.4" gradientUnits="userSpaceOnUse">
<stop offset="0.4" stop-color="#27343C"/>
<stop offset="1" stop-color="#3B474E" stop-opacity="0"/>
</linearGradient>
<linearGradient id="paint10_linear" x1="-0.400049" y1="32.9" x2="27.4999" y2="49" gradientUnits="userSpaceOnUse">
<stop stop-color="#25323B" stop-opacity="0"/>
<stop offset="0.1" stop-color="#27343C"/>
</linearGradient>
<linearGradient id="paint11_linear" x1="32" y1="37.4" x2="32" y2="32.6" gradientUnits="userSpaceOnUse">
<stop offset="0.3" stop-color="#A5ABAF"/>
<stop offset="1" stop-color="#A5ABAF" stop-opacity="0"/>
</linearGradient>
<linearGradient id="paint12_linear" x1="47.7" y1="2.30005" x2="47.7" y2="63.3" gradientUnits="userSpaceOnUse">
<stop stop-color="#6B7378"/>
<stop offset="0.2" stop-color="#333F47"/>
<stop offset="0.5" stop-color="#27343C"/>
<stop offset="0.8" stop-color="#333F47"/>
<stop offset="1" stop-color="#434D54"/>
</linearGradient>
<linearGradient id="paint13_linear" x1="57.3" y1="8.1001" x2="43.8" y2="27.9001" gradientUnits="userSpaceOnUse">
<stop offset="0.7" stop-color="#49545B"/>
<stop offset="0.8" stop-color="white" stop-opacity="0"/>
</linearGradient>
</defs>
</svg>
