<svg width="64" height="64" viewBox="0 0 64 64" fill="none" xmlns="http://www.w3.org/2000/svg">
<path d="M32.0001 61.056C16.064 61.056 3.00801 47.936 3.00801 32C3.00801 28.416 3.64801 25.024 4.86401 21.824L21.824 55.936C22.016 56.384 22.336 56.768 22.848 56.768C23.36 56.768 23.68 56.384 23.872 55.936L31.6801 38.464C31.7441 38.272 31.8721 38.08 32.0641 38.08C32.2561 38.08 32.3201 38.272 32.4481 38.464L40.2561 55.936C40.4481 56.384 40.7681 56.768 41.2801 56.768C41.7921 56.768 42.1121 56.384 42.3041 55.936L59.2641 21.824C60.4801 25.024 61.1201 28.416 61.1201 32C60.9921 47.936 47.9361 61.056 32.0001 61.056ZM32.0001 25.408C31.8081 25.408 31.7441 25.216 31.6161 25.024L22.528 4.544C25.472 3.456 28.6721 2.88 32.0001 2.88C35.3281 2.88 38.5281 3.456 41.4721 4.544L32.3841 25.024C32.2561 25.28 32.1921 25.408 32.0001 25.408ZM22.72 46.464C22.528 46.464 22.464 46.272 22.336 46.08L7.61602 16.384C10.24 12.352 13.76 8.96 18.048 6.592L28.6721 30.208C28.8001 30.592 29.1201 30.72 29.4401 30.72H34.5601C34.9441 30.72 35.2001 30.656 35.3921 30.208L46.0161 6.592C50.2401 8.96 53.8241 12.352 56.4481 16.384L41.6001 46.08C41.5361 46.272 41.4081 46.464 41.2161 46.464C41.0241 46.464 40.9601 46.272 40.8321 46.08L35.2641 33.408C35.0721 32.96 34.8161 32.896 34.4321 32.896H29.3121C28.9281 32.896 28.6721 32.96 28.4801 33.408L23.104 46.08C23.04 46.272 22.912 46.464 22.72 46.464ZM32.0001 64C49.7281 64 64.0001 49.728 64.0001 32C64.0001 14.272 49.7281 0 32.0001 0C14.272 0 0 14.272 0 32C0 49.728 14.272 64 32.0001 64Z" fill="#001E50"/>
</svg>
