<svg width="20" height="24" viewBox="0 0 20 24" fill="none" xmlns="http://www.w3.org/2000/svg"><path fill="#8B2AFF" d="M4 16.234H16V17.646H4z"/><path fill="#8B2AFF" d="M4 6.354H16V7.766H4z"/><path fill="#8B2AFF" d="M4 11.295H16V12.707H4z"/><path fill="#8B2AFF" d="M2.069 0H17.931V1.412H2.069z"/><path fill="#8B2AFF" d="M2.069 22.588H17.931V24H2.069z"/><path transform="rotate(90 1.38 2.117)" fill="#8B2AFF" d="M1.379 2.117H21.144000000000002V3.496H1.379z"/><path transform="rotate(90 20 2.117)" fill="#8B2AFF" d="M20 2.117H39.765V3.496H20z"/><path fill="#8B2AFF" d="M1.104 1.129H2.207V2.258H1.104z"/><path fill="#8B2AFF" d="M1.104 21.742H2.207V22.871000000000002H1.104z"/><path fill="#8B2AFF" d="M17.793 1.129H18.896V2.258H17.793z"/><path fill="#8B2AFF" d="M17.793 21.742H18.896V22.871000000000002H17.793z"/></svg>