<svg width="32" height="32" viewBox="0 0 32 32" fill="none" xmlns="http://www.w3.org/2000/svg"><path d="M19.8621 27.8197H19.1381V28.8189H19.8621V27.8197Z" fill="#030405"/><path d="M19.1378 27.8197H18.4138V28.8189H19.1378V27.8197Z" fill="#030405"/><path d="M18.4141 27.8197H17.6901V28.8189H18.4141V27.8197Z" fill="#030405"/><path d="M17.69 27.8197H16.9659V28.8189H17.69V27.8197Z" fill="#030405"/><path d="M17.0084 27.8197H16.2844V28.8189H17.0084V27.8197Z" fill="#030405"/><path d="M16.2846 27.8216H15.5605V28.8208H16.2846V27.8216Z" fill="#030405"/><path d="M15.5604 27.8197H14.8364V28.8189H15.5604V27.8197Z" fill="#030405"/><path d="M14.8364 27.8197H14.1124V28.8189H14.8364V27.8197Z" fill="#030405"/><path d="M14.1549 27.8216H13.4309V28.8208H14.1549V27.8216Z" fill="#030405"/><path d="M13.4309 27.8197H12.7069V28.8189H13.4309V27.8197Z" fill="#030405"/><path d="M12.707 27.8216H11.983V28.8208H12.707V27.8216Z" fill="#030405"/><path d="M21.2676 26.8341H20.5436V27.8332H21.2676V26.8341Z" fill="#030405"/><path d="M20.5436 26.8341H19.8196V27.8332H20.5436V26.8341Z" fill="#030405"/><path d="M19.8621 26.8341H19.1381V27.8332H19.8621V26.8341Z" fill="#FF2E00"/><path d="M19.1378 26.8341H18.4138V27.8332H19.1378V26.8341Z" fill="#FF2E00"/><path d="M18.4141 26.8341H17.6901V27.8332H18.4141V26.8341Z" fill="#FECB36"/><path d="M17.69 26.8341H16.9659V27.8332H17.69V26.8341Z" fill="#F2E73E"/><path d="M17.0084 26.8341H16.2844V27.8332H17.0084V26.8341Z" fill="#F2E73E"/><path d="M16.2846 26.8341H15.5605V27.8332H16.2846V26.8341Z" fill="#F2E73E"/><path d="M15.5604 26.8341H14.8364V27.8332H15.5604V26.8341Z" fill="#F2E73E"/><path d="M14.8364 26.8341H14.1124V27.8332H14.8364V26.8341Z" fill="#EA572A"/><path d="M14.1549 26.8341H13.4309V27.8332H14.1549V26.8341Z" fill="#FF2E00"/><path d="M13.4309 26.8341H12.7069V27.8332H13.4309V26.8341Z" fill="#FF2E00"/><path d="M12.707 26.8341H11.983V27.8332H12.707V26.8341Z" fill="#FF2E00"/><path d="M11.983 26.8341H11.259V27.8332H11.983V26.8341Z" fill="#030405"/><path d="M11.3015 26.8341H10.5775V27.8332H11.3015V26.8341Z" fill="#030405"/><path d="M22.7156 25.8371H21.9916V26.8363H22.7156V25.8371Z" fill="#030405"/><path d="M21.9916 25.8371H21.2676V26.8363H21.9916V25.8371Z" fill="#030405"/><path d="M21.2676 25.8371H20.5436V26.8363H21.2676V25.8371Z" fill="#FF2E00"/><path d="M20.5436 25.8371H19.8196V26.8363H20.5436V25.8371Z" fill="#FF2E00"/><path d="M19.8621 25.8371H19.1381V26.8363H19.8621V25.8371Z" fill="#F2E73E"/><path d="M19.1378 25.8371H18.4138V26.8363H19.1378V25.8371Z" fill="#F2E73E"/><path d="M18.4141 25.8371H17.6901V26.8363H18.4141V25.8371Z" fill="#F2E73E"/><path d="M17.69 25.8371H16.9659V26.8363H17.69V25.8371Z" fill="#F2E73E"/><path d="M17.0084 25.8371H16.2844V26.8363H17.0084V25.8371Z" fill="#F2E73E"/><path d="M16.2846 25.8371H15.5605V26.8363H16.2846V25.8371Z" fill="#F2E73E"/><path d="M15.5604 25.8371H14.8364V26.8363H15.5604V25.8371Z" fill="#F2E73E"/><path d="M14.8364 25.8371H14.1124V26.8363H14.8364V25.8371Z" fill="#F2E73E"/><path d="M14.1549 25.8371H13.4309V26.8363H14.1549V25.8371Z" fill="#F2E73E"/><path d="M13.4309 25.8371H12.7069V26.8363H13.4309V25.8371Z" fill="#EB5E28"/><path d="M12.707 25.8371H11.983V26.8363H12.707V25.8371Z" fill="#FF2E00"/><path d="M11.983 25.8371H11.259V26.8363H11.983V25.8371Z" fill="#FF2E00"/><path d="M11.3015 25.8371H10.5775V26.8363H11.3015V25.8371Z" fill="#FF2E00"/><path d="M10.5776 25.8371H9.85364V26.8363H10.5776V25.8371Z" fill="#030405"/><path d="M9.85352 25.8371H9.12952V26.8363H9.85352V25.8371Z" fill="#030405"/><path d="M23.3972 24.8515H22.6732V25.8506H23.3972V24.8515Z" fill="#030405"/><path d="M22.7156 24.8515H21.9916V25.8506H22.7156V24.8515Z" fill="#FF2E00"/><path d="M21.9916 24.8515H21.2676V25.8506H21.9916V24.8515Z" fill="#FF2E00"/><path d="M21.2675 24.8515H20.5435V25.8506H21.2675V24.8515Z" fill="#F39330"/><path d="M20.5436 24.8515H19.8196V25.8506H20.5436V24.8515Z" fill="#F2E73E"/><path d="M19.8621 24.8515H19.1381V25.8506H19.8621V24.8515Z" fill="#F2E73E"/><path d="M19.1378 24.8515H18.4138V25.8506H19.1378V24.8515Z" fill="#F2E73E"/><path d="M18.4141 24.8515H17.6901V25.8506H18.4141V24.8515Z" fill="#F2E73E"/><path d="M17.69 24.8515H16.9659V25.8506H17.69V24.8515Z" fill="#F2E73E"/><path d="M17.0084 24.8515H16.2844V25.8506H17.0084V24.8515Z" fill="#F2E73E"/><path d="M16.2846 24.8515H15.5605V25.8506H16.2846V24.8515Z" fill="#F2E73E"/><path d="M15.5604 24.8515H14.8364V25.8506H15.5604V24.8515Z" fill="#F2E73E"/><path d="M14.8364 24.8515H14.1124V25.8506H14.8364V24.8515Z" fill="#F2E73E"/><path d="M14.1549 24.8515H13.4309V25.8506H14.1549V24.8515Z" fill="#F2E73E"/><path d="M13.4309 24.8515H12.7069V25.8506H13.4309V24.8515Z" fill="#F2E73E"/><path d="M12.707 24.8515H11.983V25.8506H12.707V24.8515Z" fill="#F2E73E"/><path d="M11.983 24.8515H11.259V25.8506H11.983V24.8515Z" fill="#F2E73E"/><path d="M11.3015 24.8515H10.5775V25.8506H11.3015V24.8515Z" fill="#F2E73E"/><path d="M10.5776 24.8515H9.85364V25.8506H10.5776V24.8515Z" fill="#FF2E00"/><path d="M9.85352 24.8515H9.12952V25.8506H9.85352V24.8515Z" fill="#FF2E00"/><path d="M9.1294 24.8515H8.4054V25.8506H9.1294V24.8515Z" fill="#030405"/><path d="M24.1211 23.8546H23.3971V24.8537H24.1211V23.8546Z" fill="#030405"/><path d="M23.3972 23.8546H22.6732V24.8537H23.3972V23.8546Z" fill="#FF2E00"/><path d="M22.7156 23.8546H21.9916V24.8537H22.7156V23.8546Z" fill="#FF2E00"/><path d="M21.9916 23.8546H21.2676V24.8537H21.9916V23.8546Z" fill="#FF2E00"/><path d="M21.2675 23.8546H20.5435V24.8537H21.2675V23.8546Z" fill="#F2E73E"/><path d="M20.5435 23.8546H19.8195V24.8537H20.5435V23.8546Z" fill="#F2E73E"/><path d="M19.8621 23.8546H19.1381V24.8537H19.8621V23.8546Z" fill="#F2E73E"/><path d="M19.1378 23.8546H18.4138V24.8537H19.1378V23.8546Z" fill="#F2E73E"/><path d="M18.4141 23.8546H17.6901V24.8537H18.4141V23.8546Z" fill="#F2E73E"/><path d="M17.69 23.8546H16.9659V24.8537H17.69V23.8546Z" fill="#F2E73E"/><path d="M17.0084 23.8546H16.2844V24.8537H17.0084V23.8546Z" fill="#F2E73E"/><path d="M16.2846 23.8546H15.5605V24.8537H16.2846V23.8546Z" fill="#F2E73E"/><path d="M15.5604 23.8546H14.8364V24.8537H15.5604V23.8546Z" fill="#F2E73E"/><path d="M14.8364 23.8546H14.1124V24.8537H14.8364V23.8546Z" fill="#F2E73E"/><path d="M14.1549 23.8546H13.4309V24.8537H14.1549V23.8546Z" fill="#F2E73E"/><path d="M13.4309 23.8546H12.7069V24.8537H13.4309V23.8546Z" fill="#F2E73E"/><path d="M12.707 23.8546H11.983V24.8537H12.707V23.8546Z" fill="#F2E73E"/><path d="M11.983 23.8546H11.259V24.8537H11.983V23.8546Z" fill="#F2E73E"/><path d="M11.3015 23.8546H10.5775V24.8537H11.3015V23.8546Z" fill="#F2E73E"/><path d="M10.5776 23.8546H9.85364V24.8537H10.5776V23.8546Z" fill="#F2E73E"/><path d="M9.85352 23.8546H9.12952V24.8537H9.85352V23.8546Z" fill="#EB6328"/><path d="M9.1294 23.8546H8.4054V24.8537H9.1294V23.8546Z" fill="#FF2E00"/><path d="M8.44801 23.8546H7.724V24.8537H8.44801V23.8546Z" fill="#030405"/><path d="M24.845 22.8689H24.121V23.868H24.845V22.8689Z" fill="#030405"/><path d="M24.1211 22.8689H23.3971V23.868H24.1211V22.8689Z" fill="#FF2E00"/><path d="M23.3972 22.8689H22.6732V23.868H23.3972V22.8689Z" fill="#FF2E00"/><path d="M22.7156 22.8689H21.9916V23.868H22.7156V22.8689Z" fill="#FF2E00"/><path d="M21.9916 22.8689H21.2676V23.868H21.9916V22.8689Z" fill="#F2E73E"/><path d="M21.2675 22.8689H20.5435V23.868H21.2675V22.8689Z" fill="#F2E73E"/><path d="M20.5436 22.8689H19.8196V23.868H20.5436V22.8689Z" fill="#F2E73E"/><path d="M19.8621 22.8689H19.1381V23.868H19.8621V22.8689Z" fill="#F2E73E"/><path d="M19.1378 22.8689H18.4138V23.868H19.1378V22.8689Z" fill="#F2E73E"/><path d="M18.4141 22.8689H17.6901V23.868H18.4141V22.8689Z" fill="#F2E73E"/><path d="M17.69 22.8689H16.9659V23.868H17.69V22.8689Z" fill="#F2E73E"/><path d="M17.0084 22.8689H16.2844V23.868H17.0084V22.8689Z" fill="#F2E73E"/><path d="M16.2846 22.8689H15.5605V23.868H16.2846V22.8689Z" fill="#F2E73E"/><path d="M15.5604 22.8689H14.8364V23.868H15.5604V22.8689Z" fill="#F2E73E"/><path d="M14.8364 22.8689H14.1124V23.868H14.8364V22.8689Z" fill="#F2E73E"/><path d="M14.1549 22.8689H13.4309V23.868H14.1549V22.8689Z" fill="#F2E73E"/><path d="M13.4309 22.8689H12.7069V23.868H13.4309V22.8689Z" fill="#F2E73E"/><path d="M12.707 22.8689H11.983V23.868H12.707V22.8689Z" fill="#F2E73E"/><path d="M11.983 22.8689H11.259V23.868H11.983V22.8689Z" fill="#F2E73E"/><path d="M11.3015 22.8689H10.5775V23.868H11.3015V22.8689Z" fill="#F2E73E"/><path d="M10.5776 22.8689H9.85364V23.868H10.5776V22.8689Z" fill="#F2E73E"/><path d="M9.85352 22.8689H9.12952V23.868H9.85352V22.8689Z" fill="#F2E73E"/><path d="M9.1294 22.8689H8.4054V23.868H9.1294V22.8689Z" fill="#FF2E00"/><path d="M8.44801 22.8689H7.724V23.868H8.44801V22.8689Z" fill="#030405"/><path d="M24.845 21.8701H24.121V22.8692H24.845V21.8701Z" fill="#030405"/><path d="M24.1211 21.8701H23.3971V22.8692H24.1211V21.8701Z" fill="#FF2E00"/><path d="M23.3972 21.8701H22.6732V22.8692H23.3972V21.8701Z" fill="#FF2E00"/><path d="M22.7156 21.8701H21.9916V22.8692H22.7156V21.8701Z" fill="#FF2E00"/><path d="M21.9916 21.8701H21.2676V22.8692H21.9916V21.8701Z" fill="#F2E73E"/><path d="M21.2675 21.8701H20.5435V22.8692H21.2675V21.8701Z" fill="#F2E73E"/><path d="M20.5436 21.8701H19.8196V22.8692H20.5436V21.8701Z" fill="#F2E73E"/><path d="M19.8621 21.8701H19.1381V22.8692H19.8621V21.8701Z" fill="#F2E73E"/><path d="M19.1378 21.8701H18.4138V22.8692H19.1378V21.8701Z" fill="#F2E73E"/><path d="M18.4141 21.8701H17.6901V22.8692H18.4141V21.8701Z" fill="#F2E73E"/><path d="M17.69 21.8701H16.9659V22.8692H17.69V21.8701Z" fill="#F2E73E"/><path d="M17.0084 21.8701H16.2844V22.8692H17.0084V21.8701Z" fill="#F2E73E"/><path d="M16.2846 21.8701H15.5605V22.8692H16.2846V21.8701Z" fill="#F2E73E"/><path d="M15.5604 21.8701H14.8364V22.8692H15.5604V21.8701Z" fill="#F2E73E"/><path d="M14.8364 21.8701H14.1124V22.8692H14.8364V21.8701Z" fill="#F2E73E"/><path d="M14.1549 21.8701H13.4309V22.8692H14.1549V21.8701Z" fill="#F2E73E"/><path d="M13.4309 21.8701H12.7069V22.8692H13.4309V21.8701Z" fill="#F2E73E"/><path d="M12.707 21.8701H11.983V22.8692H12.707V21.8701Z" fill="#F2E73E"/><path d="M11.983 21.8701H11.259V22.8692H11.983V21.8701Z" fill="#F2E73E"/><path d="M11.3015 21.8701H10.5775V22.8692H11.3015V21.8701Z" fill="#F2E73E"/><path d="M10.5776 21.8701H9.85364V22.8692H10.5776V21.8701Z" fill="#F2E73E"/><path d="M9.85352 21.8701H9.12952V22.8692H9.85352V21.8701Z" fill="#F2E73E"/><path d="M9.1294 21.8701H8.4054V22.8692H9.1294V21.8701Z" fill="#FF2E00"/><path d="M8.44801 21.8701H7.724V22.8692H8.44801V21.8701Z" fill="#FF2E00"/><path d="M7.72401 21.8701H7V22.8692H7.72401V21.8701Z" fill="#030405"/><path d="M24.845 20.8863H24.121V21.8854H24.845V20.8863Z" fill="#030405"/><path d="M24.1211 20.8863H23.3971V21.8854H24.1211V20.8863Z" fill="#FF2E00"/><path d="M23.3972 20.8863H22.6732V21.8854H23.3972V20.8863Z" fill="#FF2E00"/><path d="M22.7156 20.8863H21.9916V21.8854H22.7156V20.8863Z" fill="#F9B133"/><path d="M21.9916 20.8863H21.2676V21.8854H21.9916V20.8863Z" fill="#F2E73E"/><path d="M21.2675 20.8863H20.5435V21.8854H21.2675V20.8863Z" fill="#F2E73E"/><path d="M20.5435 20.8863H19.8195V21.8854H20.5435V20.8863Z" fill="#F2E73E"/><path d="M19.8621 20.8863H19.1381V21.8854H19.8621V20.8863Z" fill="#F2E73E"/><path d="M19.1378 20.8863H18.4138V21.8854H19.1378V20.8863Z" fill="#F2E73E"/><path d="M18.4141 20.8863H17.6901V21.8854H18.4141V20.8863Z" fill="#F2E73E"/><path d="M17.69 20.8863H16.9659V21.8854H17.69V20.8863Z" fill="#F2E73E"/><path d="M17.0084 20.8863H16.2844V21.8854H17.0084V20.8863Z" fill="#F2E73E"/><path d="M16.2846 20.8863H15.5605V21.8854H16.2846V20.8863Z" fill="#F2E73E"/><path d="M15.5604 20.8863H14.8364V21.8854H15.5604V20.8863Z" fill="#F2E73E"/><path d="M14.8364 20.8863H14.1124V21.8854H14.8364V20.8863Z" fill="#F2E73E"/><path d="M14.1552 20.8863H13.4312V21.8854H14.1552V20.8863Z" fill="#F2E73E"/><path d="M13.4309 20.8863H12.7069V21.8854H13.4309V20.8863Z" fill="#F2E73E"/><path d="M12.707 20.8863H11.983V21.8854H12.707V20.8863Z" fill="#F2E73E"/><path d="M11.983 20.8863H11.259V21.8854H11.983V20.8863Z" fill="#F2E73E"/><path d="M11.3015 20.8863H10.5775V21.8854H11.3015V20.8863Z" fill="#F2E73E"/><path d="M10.5776 20.8863H9.85364V21.8854H10.5776V20.8863Z" fill="#F2E73E"/><path d="M9.85352 20.8863H9.12952V21.8854H9.85352V20.8863Z" fill="#F2E73E"/><path d="M9.1294 20.8863H8.4054V21.8854H9.1294V20.8863Z" fill="#FF2E00"/><path d="M8.44801 20.8863H7.724V21.8854H8.44801V20.8863Z" fill="#FF2E00"/><path d="M7.72401 20.8863H7V21.8854H7.72401V20.8863Z" fill="#030405"/><path d="M24.845 19.8837H24.121V20.8828H24.845V19.8837Z" fill="#030405"/><path d="M24.1211 19.8837H23.3971V20.8828H24.1211V19.8837Z" fill="#FF2E00"/><path d="M23.3972 19.8837H22.6732V20.8828H23.3972V19.8837Z" fill="#FF2E00"/><path d="M22.7156 19.8837H21.9916V20.8828H22.7156V19.8837Z" fill="#F2E73E"/><path d="M21.9916 19.8837H21.2676V20.8828H21.9916V19.8837Z" fill="#F2E73E"/><path d="M21.2675 19.8837H20.5435V20.8828H21.2675V19.8837Z" fill="#F2E73E"/><path d="M20.5436 19.8837H19.8196V20.8828H20.5436V19.8837Z" fill="#F2E73E"/><path d="M19.8621 19.8837H19.1381V20.8828H19.8621V19.8837Z" fill="#F2E73E"/><path d="M19.1378 19.8837H18.4138V20.8828H19.1378V19.8837Z" fill="#F2E73E"/><path d="M18.4141 19.8837H17.6901V20.8828H18.4141V19.8837Z" fill="#F2E73E"/><path d="M17.69 19.8837H16.9659V20.8828H17.69V19.8837Z" fill="#F2E73E"/><path d="M17.0084 19.8837H16.2844V20.8828H17.0084V19.8837Z" fill="#F2E73E"/><path d="M16.2846 19.8837H15.5605V20.8828H16.2846V19.8837Z" fill="#F2E73E"/><path d="M15.5604 19.8837H14.8364V20.8828H15.5604V19.8837Z" fill="#EF782D"/><path d="M14.8364 19.8837H14.1124V20.8828H14.8364V19.8837Z" fill="#FF2E00"/><path d="M14.1552 19.8837H13.4312V20.8828H14.1552V19.8837Z" fill="#FDC434"/><path d="M13.4309 19.8837H12.7069V20.8828H13.4309V19.8837Z" fill="#F2E73E"/><path d="M12.707 19.8837H11.983V20.8828H12.707V19.8837Z" fill="#F2E73E"/><path d="M11.983 19.8837H11.259V20.8828H11.983V19.8837Z" fill="#F2E73E"/><path d="M11.3015 19.8837H10.5775V20.8828H11.3015V19.8837Z" fill="#F2E73E"/><path d="M10.5776 19.8837H9.85364V20.8828H10.5776V19.8837Z" fill="#F2E73E"/><path d="M9.85352 19.8837H9.12952V20.8828H9.85352V19.8837Z" fill="#EF7D2D"/><path d="M9.1294 19.8837H8.4054V20.8828H9.1294V19.8837Z" fill="#FF2E00"/><path d="M8.44801 19.8837H7.724V20.8828H8.44801V19.8837Z" fill="#FF2E00"/><path d="M7.72401 19.8837H7V20.8828H7.72401V19.8837Z" fill="#030405"/><path d="M24.845 18.8868H24.121V19.8859H24.845V18.8868Z" fill="#030405"/><path d="M24.1211 18.8868H23.3971V19.8859H24.1211V18.8868Z" fill="#FF2E00"/><path d="M23.3972 18.8868H22.6732V19.8859H23.3972V18.8868Z" fill="#FF2E00"/><path d="M22.7156 18.8868H21.9916V19.8859H22.7156V18.8868Z" fill="#FDC435"/><path d="M21.9916 18.8868H21.2676V19.8859H21.9916V18.8868Z" fill="#F2E73E"/><path d="M21.2675 18.8868H20.5435V19.8859H21.2675V18.8868Z" fill="#F2E73E"/><path d="M20.5436 18.8868H19.8196V19.8859H20.5436V18.8868Z" fill="#F2E73E"/><path d="M19.8621 18.8868H19.1381V19.8859H19.8621V18.8868Z" fill="#F2E73E"/><path d="M19.1378 18.8868H18.4138V19.8859H19.1378V18.8868Z" fill="#F2E73E"/><path d="M18.4141 18.8868H17.6901V19.8859H18.4141V18.8868Z" fill="#F2E73E"/><path d="M17.69 18.8868H16.9659V19.8859H17.69V18.8868Z" fill="#F2E73E"/><path d="M17.0084 18.8868H16.2844V19.8859H17.0084V18.8868Z" fill="#F2E73E"/><path d="M16.2846 18.8868H15.5605V19.8859H16.2846V18.8868Z" fill="#F2E73E"/><path d="M15.5604 18.8868H14.8364V19.8859H15.5604V18.8868Z" fill="#FF2E00"/><path d="M14.8364 18.8868H14.1124V19.8859H14.8364V18.8868Z" fill="#FF2E00"/><path d="M14.1549 18.8868H13.4309V19.8859H14.1549V18.8868Z" fill="#FF2E00"/><path d="M13.4309 18.8868H12.7069V19.8859H13.4309V18.8868Z" fill="#ED6F2D"/><path d="M12.707 18.8868H11.983V19.8859H12.707V18.8868Z" fill="#F2E73E"/><path d="M11.983 18.8868H11.259V19.8859H11.983V18.8868Z" fill="#F2E73E"/><path d="M11.3015 18.8868H10.5775V19.8859H11.3015V18.8868Z" fill="#F2E73E"/><path d="M10.5776 18.8868H9.85364V19.8859H10.5776V18.8868Z" fill="#F2E73E"/><path d="M9.85352 18.8868H9.12952V19.8859H9.85352V18.8868Z" fill="#FF2E00"/><path d="M9.1294 18.8868H8.4054V19.8859H9.1294V18.8868Z" fill="#FF2E00"/><path d="M8.44801 18.8868H7.724V19.8859H8.44801V18.8868Z" fill="#FF2E00"/><path d="M7.72401 18.8868H7V19.8859H7.72401V18.8868Z" fill="#030405"/><path d="M24.845 17.9011H24.121V18.9002H24.845V17.9011Z" fill="#030405"/><path d="M24.1211 17.9011H23.3971V18.9002H24.1211V17.9011Z" fill="#FF2E00"/><path d="M23.3972 17.9011H22.6732V18.9002H23.3972V17.9011Z" fill="#FF2E00"/><path d="M22.7156 17.9011H21.9916V18.9002H22.7156V17.9011Z" fill="#EB5A2A"/><path d="M21.9916 17.9011H21.2676V18.9002H21.9916V17.9011Z" fill="#F2E73E"/><path d="M21.2675 17.9011H20.5435V18.9002H21.2675V17.9011Z" fill="#F2E73E"/><path d="M20.5435 17.9011H19.8195V18.9002H20.5435V17.9011Z" fill="#F2E73E"/><path d="M19.8621 17.9011H19.1381V18.9002H19.8621V17.9011Z" fill="#F2E73E"/><path d="M19.1378 17.9011H18.4138V18.9002H19.1378V17.9011Z" fill="#EB5A2A"/><path d="M18.4141 17.9011H17.6901V18.9002H18.4141V17.9011Z" fill="#F2E73E"/><path d="M17.69 17.9011H16.9659V18.9002H17.69V17.9011Z" fill="#F2E73E"/><path d="M17.0084 17.9011H16.2844V18.9002H17.0084V17.9011Z" fill="#F2E73E"/><path d="M16.2846 17.9011H15.5605V18.9002H16.2846V17.9011Z" fill="#FDC535"/><path d="M15.5604 17.9011H14.8364V18.9002H15.5604V17.9011Z" fill="#FF2E00"/><path d="M14.8364 17.9011H14.1124V18.9002H14.8364V17.9011Z" fill="#FF2E00"/><path d="M14.1549 17.9011H13.4309V18.9002H14.1549V17.9011Z" fill="#FF2E00"/><path d="M13.4309 17.9011H12.7069V18.9002H13.4309V17.9011Z" fill="#FF2E00"/><path d="M12.707 17.9011H11.983V18.9002H12.707V17.9011Z" fill="#EA562A"/><path d="M11.983 17.9011H11.259V18.9002H11.983V17.9011Z" fill="#F2E73E"/><path d="M11.3015 17.9011H10.5775V18.9002H11.3015V17.9011Z" fill="#F2E73E"/><path d="M10.5776 17.9011H9.85364V18.9002H10.5776V17.9011Z" fill="#F2E73E"/><path d="M9.85352 17.9011H9.12952V18.9002H9.85352V17.9011Z" fill="#FF2E00"/><path d="M9.1294 17.9011H8.4054V18.9002H9.1294V17.9011Z" fill="#FF2E00"/><path d="M8.44801 17.9011H7.724V18.9002H8.44801V17.9011Z" fill="#FF2E00"/><path d="M7.72401 17.9011H7V18.9002H7.72401V17.9011Z" fill="#030405"/><path d="M24.845 16.9023H24.121V17.9014H24.845V16.9023Z" fill="#030405"/><path d="M24.1211 16.9023H23.3971V17.9014H24.1211V16.9023Z" fill="#D75229"/><path d="M23.3972 16.9023H22.6732V17.9014H23.3972V16.9023Z" fill="#FF2E00"/><path d="M22.7156 16.9023H21.9916V17.9014H22.7156V16.9023Z" fill="#FF2E00"/><path d="M21.9916 16.9023H21.2676V17.9014H21.9916V16.9023Z" fill="#F2E73E"/><path d="M21.2675 16.9023H20.5435V17.9014H21.2675V16.9023Z" fill="#F2E73E"/><path d="M20.5435 16.9023H19.8195V17.9014H20.5435V16.9023Z" fill="#F2E73E"/><path d="M19.8621 16.9023H19.1381V17.9014H19.8621V16.9023Z" fill="#F2E73E"/><path d="M19.1378 16.9023H18.4138V17.9014H19.1378V16.9023Z" fill="#FF2E00"/><path d="M18.4141 16.9023H17.6901V17.9014H18.4141V16.9023Z" fill="#F2E73E"/><path d="M17.69 16.9023H16.9659V17.9014H17.69V16.9023Z" fill="#F2E73E"/><path d="M17.0084 16.9023H16.2844V17.9014H17.0084V16.9023Z" fill="#F2E73E"/><path d="M16.2846 16.9023H15.5605V17.9014H16.2846V16.9023Z" fill="#FF2E00"/><path d="M15.5604 16.9023H14.8364V17.9014H15.5604V16.9023Z" fill="#FF2E00"/><path d="M14.8364 16.9023H14.1124V17.9014H14.8364V16.9023Z" fill="#FF2E00"/><path d="M14.1549 16.9023H13.4309V17.9014H14.1549V16.9023Z" fill="#030405"/><path d="M13.4309 16.9023H12.7069V17.9014H13.4309V16.9023Z" fill="#FF2E00"/><path d="M12.707 16.9023H11.983V17.9014H12.707V16.9023Z" fill="#FF2E00"/><path d="M11.983 16.9023H11.259V17.9014H11.983V16.9023Z" fill="#FF2E00"/><path d="M11.3015 16.9023H10.5775V17.9014H11.3015V16.9023Z" fill="#F2E73E"/><path d="M10.5776 16.9023H9.85364V17.9014H10.5776V16.9023Z" fill="#F2E73E"/><path d="M9.85352 16.9023H9.12952V17.9014H9.85352V16.9023Z" fill="#FF2E00"/><path d="M9.1294 16.9023H8.4054V17.9014H9.1294V16.9023Z" fill="#FF2E00"/><path d="M8.44801 16.9023H7.724V17.9014H8.44801V16.9023Z" fill="#030405"/><path d="M24.1211 15.9185H23.3971V16.9176H24.1211V15.9185Z" fill="#030405"/><path d="M23.3972 15.9185H22.6732V16.9176H23.3972V15.9185Z" fill="#FF2E00"/><path d="M22.7156 15.9166H21.9916V16.9158H22.7156V15.9166Z" fill="#FF2E00"/><path d="M21.9916 15.9185H21.2676V16.9176H21.9916V15.9185Z" fill="#EB5A2A"/><path d="M21.2675 15.9185H20.5435V16.9176H21.2675V15.9185Z" fill="#F2E73E"/><path d="M20.5436 15.9166H19.8196V16.9158H20.5436V15.9166Z" fill="#F2E73E"/><path d="M19.8621 15.9166H19.1381V16.9158H19.8621V15.9166Z" fill="#FF2E00"/><path d="M19.1378 15.9185H18.4138V16.9176H19.1378V15.9185Z" fill="#FF2E00"/><path d="M18.4141 15.9185H17.6901V16.9176H18.4141V15.9185Z" fill="#FF2E00"/><path d="M17.69 15.9166H16.9659V16.9158H17.69V15.9166Z" fill="#F2E73E"/><path d="M17.0084 15.9166H16.2844V16.9158H17.0084V15.9166Z" fill="#F2E73E"/><path d="M16.2846 15.9185H15.5605V16.9176H16.2846V15.9185Z" fill="#FF2E00"/><path d="M15.5604 15.9166H14.8364V16.9158H15.5604V15.9166Z" fill="#FF2E00"/><path d="M14.8364 15.9185H14.1124V16.9176H14.8364V15.9185Z" fill="#0B0C0E"/><path d="M14.1549 15.9166H13.4309V16.9158H14.1549V15.9166Z" fill="#030405"/><path d="M13.4309 15.9185H12.7069V16.9176H13.4309V15.9185Z" fill="#EA552A"/><path d="M12.707 15.9185H11.983V16.9176H12.707V15.9185Z" fill="#FF2E00"/><path d="M11.983 15.9185H11.259V16.9176H11.983V15.9185Z" fill="#FF2E00"/><path d="M11.3015 15.9185H10.5775V16.9176H11.3015V15.9185Z" fill="#FF2E00"/><path d="M10.5776 15.9166H9.85364V16.9158H10.5776V15.9166Z" fill="#FF2E00"/><path d="M9.85352 15.9185H9.12952V16.9176H9.85352V15.9185Z" fill="#F8AF33"/><path d="M9.1294 15.9185H8.4054V16.9176H9.1294V15.9185Z" fill="#FF2E00"/><path d="M8.391 15.9166H7.66699V16.9158H8.391V15.9166Z" fill="#030405"/><path d="M24.1211 14.9178H23.3971V15.9169H24.1211V14.9178Z" fill="#030405"/><path d="M23.3972 14.9178H22.6732V15.9169H23.3972V14.9178Z" fill="#FF2E00"/><path d="M22.7156 14.9178H21.9916V15.9169H22.7156V14.9178Z" fill="#FF2E00"/><path d="M21.9916 14.9178H21.2676V15.9169H21.9916V14.9178Z" fill="#FF2E00"/><path d="M21.2675 14.9178H20.5435V15.9169H21.2675V14.9178Z" fill="#F2E73E"/><path d="M20.5436 14.9178H19.8196V15.9169H20.5436V14.9178Z" fill="#FF2E00"/><path d="M19.8621 14.9178H19.1381V15.9169H19.8621V14.9178Z" fill="#FF2E00"/><path d="M19.1378 14.9178H18.4138V15.9169H19.1378V14.9178Z" fill="#FF2E00"/><path d="M18.4141 14.9178H17.6901V15.9169H18.4141V14.9178Z" fill="#FF2E00"/><path d="M17.69 14.9178H16.9659V15.9169H17.69V14.9178Z" fill="#EA572A"/><path d="M17.0084 14.9178H16.2844V15.9169H17.0084V14.9178Z" fill="#F2E73E"/><path d="M16.2846 14.9178H15.5605V15.9169H16.2846V14.9178Z" fill="#FF2E00"/><path d="M15.5604 14.9178H14.8364V15.9169H15.5604V14.9178Z" fill="#030405"/><path d="M13.4309 14.9178H12.7069V15.9169H13.4309V14.9178Z" fill="#030405"/><path d="M12.707 14.9178H11.983V15.9169H12.707V14.9178Z" fill="#FF2E00"/><path d="M11.983 14.9178H11.259V15.9169H11.983V14.9178Z" fill="#FF2E00"/><path d="M11.3015 14.9178H10.5775V15.9169H11.3015V14.9178Z" fill="#FF2E00"/><path d="M10.5776 14.9178H9.85364V15.9169H10.5776V14.9178Z" fill="#FF2E00"/><path d="M9.85352 14.9178H9.12952V15.9169H9.85352V14.9178Z" fill="#FF2E00"/><path d="M9.1294 14.9178H8.4054V15.9169H9.1294V14.9178Z" fill="#D2502B"/><path d="M23.3972 13.934H22.6732V14.9332H23.3972V13.934Z" fill="#030405"/><path d="M22.7156 13.934H21.9916V14.9332H22.7156V13.934Z" fill="#FF2E00"/><path d="M21.9916 13.934H21.2676V14.9332H21.9916V13.934Z" fill="#FF2E00"/><path d="M21.2675 13.934H20.5435V14.9332H21.2675V13.934Z" fill="#FF2E00"/><path d="M20.5436 13.934H19.8196V14.9332H20.5436V13.934Z" fill="#FF2E00"/><path d="M19.8621 13.934H19.1381V14.9332H19.8621V13.934Z" fill="#FF2E00"/><path d="M19.1378 13.934H18.4138V14.9332H19.1378V13.934Z" fill="#FF2E00"/><path d="M18.4141 13.934H17.6901V14.9332H18.4141V13.934Z" fill="#FF2E00"/><path d="M17.69 13.934H16.9659V14.9332H17.69V13.934Z" fill="#FF2E00"/><path d="M17.0084 13.934H16.2844V14.9332H17.0084V13.934Z" fill="#F2E73E"/><path d="M16.2846 13.934H15.5605V14.9332H16.2846V13.934Z" fill="#FF2E00"/><path d="M15.5604 13.934H14.8364V14.9332H15.5604V13.934Z" fill="#030405"/><path d="M12.707 13.934H11.983V14.9332H12.707V13.934Z" fill="#121317"/><path d="M11.983 13.934H11.259V14.9332H11.983V13.934Z" fill="#060809"/><path d="M11.3015 13.934H10.5775V14.9332H11.3015V13.934Z" fill="#FF2E00"/><path d="M10.5776 13.934H9.85364V14.9332H10.5776V13.934Z" fill="#FF2E00"/><path d="M9.85352 13.934H9.12952V14.9332H9.85352V13.934Z" fill="#FF2E00"/><path d="M9.1294 13.934H8.4054V14.9332H9.1294V13.934Z" fill="#030405"/><path d="M8.391 14.9178H7.66699V15.9169H8.391V14.9178Z" fill="#030405"/><path d="M9.85352 11.9496H9.12952V12.9487H9.85352V11.9496Z" fill="#030405"/><path d="M9.1294 12.9352H8.4054V13.9343H9.1294V12.9352Z" fill="#030405"/><path d="M22.7156 12.9352H21.9916V13.9343H22.7156V12.9352Z" fill="#030405"/><path d="M21.9916 12.9352H21.2676V13.9343H21.9916V12.9352Z" fill="#FF2E00"/><path d="M21.2675 12.9352H20.5435V13.9343H21.2675V12.9352Z" fill="#FF2E00"/><path d="M20.5435 12.9352H19.8195V13.9343H20.5435V12.9352Z" fill="#FF2E00"/><path d="M19.8621 12.9352H19.1381V13.9343H19.8621V12.9352Z" fill="#030405"/><path d="M19.1378 12.9352H18.4138V13.9343H19.1378V12.9352Z" fill="#FF2E00"/><path d="M18.4141 12.9352H17.6901V13.9343H18.4141V12.9352Z" fill="#FF2E00"/><path d="M17.69 12.9352H16.9659V13.9343H17.69V12.9352Z" fill="#FF2E00"/><path d="M17.0084 12.9352H16.2844V13.9343H17.0084V12.9352Z" fill="#FF2E00"/><path d="M16.2846 12.9352H15.5605V13.9343H16.2846V12.9352Z" fill="#FF2E00"/><path d="M15.5604 12.9352H14.8364V13.9343H15.5604V12.9352Z" fill="#030405"/><path d="M11.3015 12.9352H10.5775V13.9343H11.3015V12.9352Z" fill="#030405"/><path d="M10.5776 12.9352H9.85364V13.9343H10.5776V12.9352Z" fill="#030405"/><path d="M9.85352 12.9352H9.12952V13.9343H9.85352V12.9352Z" fill="#D95328"/><path d="M22.7156 11.9496H21.9916V12.9487H22.7156V11.9496Z" fill="#030405"/><path d="M21.9916 11.9496H21.2676V12.9487H21.9916V11.9496Z" fill="#EA552A"/><path d="M21.2675 11.9496H20.5435V12.9487H21.2675V11.9496Z" fill="#FF2E00"/><path d="M20.5435 11.9496H19.8195V12.9487H20.5435V11.9496Z" fill="#030405"/><path d="M19.8621 11.9496H19.1381V12.9487H19.8621V11.9496Z" fill="#030405"/><path d="M19.1378 11.9496H18.4138V12.9487H19.1378V11.9496Z" fill="#030405"/><path d="M18.4141 11.9496H17.6901V12.9487H18.4141V11.9496Z" fill="#FF2E00"/><path d="M17.69 11.9496H16.9659V12.9487H17.69V11.9496Z" fill="#FF2E00"/><path d="M17.0084 11.9496H16.2844V12.9487H17.0084V11.9496Z" fill="#FF2E00"/><path d="M16.2846 11.9496H15.5605V12.9487H16.2846V11.9496Z" fill="#FF2E00"/><path d="M15.5604 11.9496H14.8364V12.9487H15.5604V11.9496Z" fill="#030405"/><path d="M14.8364 11.9496H14.1124V12.9487H14.8364V11.9496Z" fill="#030405"/><path d="M14.1552 11.9496H13.4312V12.9487H14.1552V11.9496Z" fill="#030405"/><path d="M13.4309 11.9496H12.7069V12.9487H13.4309V11.9496Z" fill="#030405"/><path d="M12.707 11.9496H11.983V12.9487H12.707V11.9496Z" fill="#030405"/><path d="M21.9916 10.9507H21.2676V11.9499H21.9916V10.9507Z" fill="#030405"/><path d="M21.2675 10.9507H20.5435V11.9499H21.2675V10.9507Z" fill="#FF2E00"/><path d="M20.5435 10.9507H19.8195V11.9499H20.5435V10.9507Z" fill="#030405"/><path d="M18.4141 10.9507H17.6901V11.9499H18.4141V10.9507Z" fill="#030405"/><path d="M17.69 10.9507H16.9659V11.9499H17.69V10.9507Z" fill="#FF2E00"/><path d="M17.0084 10.9507H16.2844V11.9499H17.0084V10.9507Z" fill="#FF2E00"/><path d="M16.2846 10.9507H15.5605V11.9499H16.2846V10.9507Z" fill="#030405"/><path d="M14.8364 10.9507H14.1124V11.9499H14.8364V10.9507Z" fill="#030405"/><path d="M14.0981 10.9507H13.3741V11.9499H14.0981V10.9507Z" fill="#FF2E00"/><path d="M13.374 10.9507H12.65V11.9499H13.374V10.9507Z" fill="#FF2E00"/><path d="M12.65 10.9507H11.926V11.9499H12.65V10.9507Z" fill="#FF2E00"/><path d="M11.9261 10.9507H11.2021V11.9499H11.9261V10.9507Z" fill="#030405"/><path d="M21.2675 9.95192H20.5435V10.9511H21.2675V9.95192Z" fill="#030405"/><path d="M17.69 9.95192H16.9659V10.9511H17.69V9.95192Z" fill="#030405"/><path d="M17.0084 9.95192H16.2844V10.9511H17.0084V9.95192Z" fill="#030405"/><path d="M14.0981 9.95192H13.3741V10.9511H14.0981V9.95192Z" fill="#0A0B0C"/><path d="M13.374 9.95192H12.65V10.9511H13.374V9.95192Z" fill="#FF2E00"/><path d="M12.65 9.95192H11.926V10.9511H12.65V9.95192Z" fill="#FF2E00"/><path d="M11.9261 9.95192H11.2021V10.9511H11.9261V9.95192Z" fill="#FF2E00"/><path d="M11.1874 9.95192H10.4634V10.9511H11.1874V9.95192Z" fill="#030405"/><path d="M9.01557 9.95192H8.29156V10.9511H9.01557V9.95192Z" fill="#F2E73E"/><path d="M18.4141 8.96814H17.6901V9.96727H18.4141V8.96814Z" fill="#030405"/><path d="M17.69 8.96814H16.9659V9.96727H17.69V8.96814Z" fill="#030405"/><path d="M13.374 8.96814H12.65V9.96727H13.374V8.96814Z" fill="#100D0E"/><path d="M12.65 8.96814H11.926V9.96727H12.65V8.96814Z" fill="#FF2E00"/><path d="M11.9261 8.96814H11.2021V9.96727H11.9261V8.96814Z" fill="#FF2E00"/><path d="M11.1874 8.96814H10.4634V9.96727H11.1874V8.96814Z" fill="#030405"/><path d="M11.1874 7.96745H10.4634V8.96658H11.1874V7.96745Z" fill="#030405"/><path d="M9.73945 8.96814H9.01544V9.96727H9.73945V8.96814Z" fill="#FFE6A2"/><path d="M9.01557 8.96814H8.29156V9.96727H9.01557V8.96814Z" fill="#F2E73E"/><path d="M8.33393 8.96814H7.60992V9.96727H8.33393V8.96814Z" fill="#FFEBBA"/><path d="M21.3815 7.96745H20.6575V8.96658H21.3815V7.96745Z" fill="#030405"/><path d="M20.6575 7.96745H19.9335V8.96658H20.6575V7.96745Z" fill="#030405"/><path d="M19.919 7.96745H19.1949V8.96658H19.919V7.96745Z" fill="#030405"/><path d="M18.4711 7.96745H17.7471V8.96658H18.4711V7.96745Z" fill="#030405"/><path d="M13.374 7.96745H12.65V8.96658H13.374V7.96745Z" fill="#030405"/><path d="M12.65 7.96745H11.926V8.96658H12.65V7.96745Z" fill="#FF2E00"/><path d="M11.9261 7.96745H11.2021V8.96658H11.9261V7.96745Z" fill="#FF2E00"/><path d="M9.01557 7.96745H8.29156V8.96658H9.01557V7.96745Z" fill="#F2E73E"/><path d="M22.1056 6.98366H21.3816V7.98279H22.1056V6.98366Z" fill="#030405"/><path d="M21.3815 6.98366H20.6575V7.98279H21.3815V6.98366Z" fill="#FF2E00"/><path d="M20.6575 6.98366H19.9335V7.98279H20.6575V6.98366Z" fill="#D35129"/><path d="M19.919 6.98366H19.1949V7.98279H19.919V6.98366Z" fill="#030405"/><path d="M15.5604 6.98366H14.8364V7.98279H15.5604V6.98366Z" fill="#F2E73E"/><path d="M12.65 6.98366H11.926V7.98279H12.65V6.98366Z" fill="#030405"/><path d="M11.9261 6.98366H11.2021V7.98279H11.9261V6.98366Z" fill="#030405"/><path d="M9.01557 6.98366H8.29156V7.98279H9.01557V6.98366Z" fill="#F2E73E"/><path d="M22.1056 5.98297H21.3816V6.9821H22.1056V5.98297Z" fill="#030405"/><path d="M21.3815 5.98297H20.6575V6.9821H21.3815V5.98297Z" fill="#FF2E00"/><path d="M20.6575 5.98297H19.9335V6.9821H20.6575V5.98297Z" fill="#030405"/><path d="M16.2846 5.98297H15.5605V6.9821H16.2846V5.98297Z" fill="#F2E73E"/><path d="M15.5604 5.98297H14.8364V6.9821H15.5604V5.98297Z" fill="#F2E73E"/><path d="M14.8364 5.98297H14.1124V6.9821H14.8364V5.98297Z" fill="#FFD86A"/><path d="M12.65 5.98297H11.926V6.9821H12.65V5.98297Z" fill="#030405"/><path d="M21.3815 4.99918H20.6575V5.99831H21.3815V4.99918Z" fill="#030405"/><path d="M20.6575 4.99918H19.9335V5.99831H20.6575V4.99918Z" fill="#030405"/><path d="M15.5604 4.99918H14.8364V5.99831H15.5604V4.99918Z" fill="#F2E73E"/><path d="M14.8364 4.99918H14.1124V5.99831H14.8364V4.99918Z" fill="#FFEEC5"/><path d="M12.65 4.99918H11.926V5.99831H12.65V4.99918Z" fill="#030405"/><path d="M20.6575 4.00037H19.9335V4.9995H20.6575V4.00037Z" fill="#2D2C32"/><path d="M15.5604 4.00037H14.8364V4.9995H15.5604V4.00037Z" fill="#FFDC7D"/></svg>