<svg width="173" height="47" viewBox="0 0 173 47" fill="none" xmlns="http://www.w3.org/2000/svg"><path fill="#8B2AFF" d="M4 0H169V2H4z"/><path fill="#8B2AFF" d="M4 45H169V47H4z"/><path transform="rotate(90 2 4)" fill="#8B2AFF" d="M2 4H41V6H2z"/><path transform="matrix(0 1 1 0 171 4)" fill="#8B2AFF" d="M0 0H39V2H0z"/><path fill="#8B2AFF" d="M2 2H4V4H2z"/><path transform="matrix(-1 0 0 1 171 2)" fill="#8B2AFF" d="M0 0H2V2H0z"/><path fill="#8B2AFF" d="M2 43H4V45H2z"/><path transform="matrix(-1 0 0 1 171 43)" fill="#8B2AFF" d="M0 0H2V2H0z"/><path d="M38 16H39.3333V17.5238H38V16Z" fill="#8B2AFF"/><path d="M39.3332 16.7619H40.6665V30.4762H39.3332V16.7619Z" fill="#8B2AFF"/><path d="M40.6668 17.5238H42.0001V19.0476H40.6668V17.5238Z" fill="#8B2AFF"/><path d="M42 18.2857H43.3333V28.9524H42V18.2857Z" fill="#8B2AFF"/><path d="M43.3331 19.0476H44.6665V20.5714H43.3331V19.0476Z" fill="#8B2AFF"/><path d="M44.6667 19.8095H46V27.4286H44.6667V19.8095Z" fill="#8B2AFF"/><path d="M45.9999 20.5714H47.3332V22.0952H45.9999V20.5714Z" fill="#8B2AFF"/><path d="M38 32H39.3333L39.3332 16.7619L38 16.7619V32Z" fill="#8B2AFF"/><path d="M39.3332 31.2381H40.6665V29.7143H39.3332V31.2381Z" fill="#8B2AFF"/><path d="M40.6665 30.4762H42.0001L42 18.2857L40.6668 18.2857L40.6665 30.4762Z" fill="#8B2AFF"/><path d="M42 29.7143H43.3333V28.1905H42V29.7143Z" fill="#8B2AFF"/><path d="M43.3333 28.9524H44.6665L44.6667 19.8095L43.3331 19.8095L43.3333 28.9524Z" fill="#8B2AFF"/><path d="M44.6667 28.1905H46V26.6667H44.6667V28.1905Z" fill="#8B2AFF"/><path d="M46 27.4286H47.3332V21.3333H45.9999L46 27.4286Z" fill="#8B2AFF"/><path d="M47.3332 21.3333H48.6664V25.9048H47.3331L47.3332 21.3333Z" fill="#8B2AFF"/><path d="M48.6667 22.0952H50V23.619H48.6667V22.0952Z" fill="#8B2AFF"/><path d="M48.6667 23.619H50V25.9048H48.6664L48.6667 23.619Z" fill="#8B2AFF"/><path d="M47.3331 25.1429H48.6664V26.6667H47.3331V25.1429Z" fill="#8B2AFF"/><path d="M63.5029 29.1709C62.0628 29.1709 60.8939 28.6992 59.9961 27.7559C59.1029 26.8125 58.6562 25.557 58.6562 23.9893C58.6562 22.417 59.0983 21.1615 59.9824 20.2227C60.8665 19.2793 62.0264 18.8076 63.4619 18.8076C64.6696 18.8076 65.6722 19.0993 66.4697 19.6826C67.2718 20.2614 67.7207 21.0384 67.8164 22.0137H66.4424C66.3877 21.3665 66.096 20.8607 65.5674 20.4961C65.0387 20.127 64.3415 19.9424 63.4756 19.9424C62.4411 19.9424 61.6071 20.2956 60.9736 21.002C60.3447 21.7083 60.0303 22.7041 60.0303 23.9893C60.0303 25.2699 60.3493 26.2656 60.9873 26.9766C61.6253 27.6829 62.4593 28.0361 63.4893 28.0361C64.9339 28.0361 66.0072 27.5599 66.709 26.6074V25.083H64.0635V23.8867H67.9941V29H67.0576L66.709 27.9473C66.0299 28.763 64.9613 29.1709 63.5029 29.1709ZM72.7861 21.583C73.8206 21.583 74.6455 21.9134 75.2607 22.5742C75.8805 23.235 76.1904 24.1693 76.1904 25.377C76.1904 26.5801 75.8805 27.5143 75.2607 28.1797C74.6455 28.8405 73.8206 29.1709 72.7861 29.1709C71.7562 29.1709 70.9313 28.8405 70.3115 28.1797C69.6963 27.5143 69.3887 26.5801 69.3887 25.377C69.3887 24.1693 69.6963 23.235 70.3115 22.5742C70.9313 21.9134 71.7562 21.583 72.7861 21.583ZM72.7861 28.1592C73.4014 28.1592 73.9004 27.9268 74.2832 27.4619C74.666 26.9925 74.8574 26.2975 74.8574 25.377C74.8574 24.4518 74.666 23.7568 74.2832 23.292C73.9004 22.8226 73.4014 22.5879 72.7861 22.5879C72.1709 22.5879 71.6719 22.8226 71.2891 23.292C70.9062 23.7568 70.7148 24.4518 70.7148 25.377C70.7148 26.2975 70.9062 26.9925 71.2891 27.4619C71.6719 27.9268 72.1709 28.1592 72.7861 28.1592ZM80.5791 21.583C81.6136 21.583 82.4385 21.9134 83.0537 22.5742C83.6735 23.235 83.9834 24.1693 83.9834 25.377C83.9834 26.5801 83.6735 27.5143 83.0537 28.1797C82.4385 28.8405 81.6136 29.1709 80.5791 29.1709C79.5492 29.1709 78.7243 28.8405 78.1045 28.1797C77.4893 27.5143 77.1816 26.5801 77.1816 25.377C77.1816 24.1693 77.4893 23.235 78.1045 22.5742C78.7243 21.9134 79.5492 21.583 80.5791 21.583ZM80.5791 28.1592C81.1943 28.1592 81.6934 27.9268 82.0762 27.4619C82.459 26.9925 82.6504 26.2975 82.6504 25.377C82.6504 24.4518 82.459 23.7568 82.0762 23.292C81.6934 22.8226 81.1943 22.5879 80.5791 22.5879C79.9639 22.5879 79.4648 22.8226 79.082 23.292C78.6992 23.7568 78.5078 24.4518 78.5078 25.377C78.5078 26.2975 78.6992 26.9925 79.082 27.4619C79.4648 27.9268 79.9639 28.1592 80.5791 28.1592ZM91.3115 28.4395C91.3115 30.7728 90.2588 31.9395 88.1533 31.9395C87.2419 31.9395 86.5218 31.7412 85.9932 31.3447C85.4691 30.9482 85.207 30.415 85.207 29.7451H86.54C86.54 30.5381 87.0732 30.9346 88.1396 30.9346C88.7412 30.9346 89.2061 30.7682 89.5342 30.4355C89.8623 30.1074 90.0264 29.4603 90.0264 28.4941V28.1318C89.4521 28.8245 88.7617 29.1709 87.9551 29.1709C87.0072 29.1709 86.2734 28.8337 85.7539 28.1592C85.2344 27.4847 84.9746 26.5755 84.9746 25.4316C84.9746 24.2467 85.264 23.3102 85.8428 22.6221C86.4261 21.9294 87.1576 21.583 88.0371 21.583C88.821 21.583 89.484 21.8245 90.0264 22.3076V21.7471H91.3115V28.4395ZM90.0264 26.915V23.4697C89.4704 22.8818 88.8346 22.5879 88.1191 22.5879C87.5677 22.5879 87.1257 22.8271 86.793 23.3057C86.4648 23.7796 86.3008 24.4883 86.3008 25.4316C86.3008 26.3249 86.4557 27.0039 86.7656 27.4688C87.0801 27.929 87.513 28.1592 88.0645 28.1592C88.7845 28.1592 89.4385 27.7445 90.0264 26.915ZM94.5176 29H93.2256V18.9785H94.5176V29ZM99.5078 29.1709C98.4414 29.1709 97.5846 28.8382 96.9375 28.1729C96.2904 27.5029 95.9668 26.571 95.9668 25.377C95.9668 24.1921 96.279 23.2646 96.9033 22.5947C97.5322 21.9202 98.3525 21.583 99.3643 21.583C100.399 21.583 101.224 21.9134 101.839 22.5742C102.459 23.235 102.769 24.1693 102.769 25.377V25.6846H97.3066C97.3613 26.5231 97.5915 27.1452 97.9971 27.5508C98.4072 27.9564 98.9108 28.1592 99.5078 28.1592C99.959 28.1592 100.365 28.0452 100.725 27.8174C101.089 27.585 101.281 27.2568 101.299 26.833H102.632C102.532 27.5804 102.192 28.1569 101.613 28.5625C101.039 28.9681 100.337 29.1709 99.5078 29.1709ZM101.408 24.6729C101.303 23.9756 101.069 23.4538 100.704 23.1074C100.34 22.7611 99.8929 22.5879 99.3643 22.5879C98.8493 22.5879 98.4072 22.7611 98.0381 23.1074C97.6689 23.4492 97.4342 23.971 97.334 24.6729H101.408ZM108.107 18.9785H111.847C112.667 18.9785 113.353 19.056 113.904 19.2109C114.46 19.3613 114.9 19.6917 115.224 20.2021C115.547 20.708 115.709 21.2754 115.709 21.9043C115.709 22.916 115.388 23.6839 114.745 24.208C114.103 24.7321 113.173 24.9941 111.956 24.9941H109.434V29H108.107V18.9785ZM109.434 23.8047H111.97C112.822 23.8047 113.428 23.6452 113.788 23.3262C114.153 23.0072 114.335 22.5469 114.335 21.9453C114.335 21.5443 114.235 21.1888 114.034 20.8789C113.834 20.569 113.578 20.373 113.269 20.291C112.963 20.209 112.521 20.168 111.942 20.168H109.434V23.8047ZM118.566 29H117.274V18.9785H118.566V29ZM125.067 27.0928V25.4863H124.186C122.317 25.4863 121.383 25.9945 121.383 27.0107C121.383 27.3799 121.52 27.6647 121.793 27.8652C122.066 28.0612 122.436 28.1592 122.9 28.1592C123.324 28.1592 123.734 28.0635 124.131 27.8721C124.527 27.6807 124.84 27.4209 125.067 27.0928ZM125.067 28.2549C124.411 28.8656 123.566 29.1709 122.531 29.1709C121.811 29.1709 121.219 28.9772 120.754 28.5898C120.289 28.1979 120.057 27.6943 120.057 27.0791C120.057 25.3838 121.517 24.5361 124.438 24.5361H125.067C125.067 24.0166 125.04 23.6406 124.985 23.4082C124.931 23.1712 124.778 22.9753 124.527 22.8203C124.277 22.6654 123.878 22.5879 123.331 22.5879C122.183 22.5879 121.59 22.998 121.554 23.8184H120.269C120.364 22.3281 121.408 21.583 123.399 21.583C124.329 21.583 125.054 21.7676 125.573 22.1367C126.093 22.5059 126.353 23.2305 126.353 24.3105V29H125.067V28.2549ZM128.677 30.75C129.315 30.75 129.837 30.1667 130.242 29L127.501 21.7471H128.896L130.816 27.4209L132.737 21.7471H134.132L131.391 29C131.126 29.6927 130.901 30.2259 130.714 30.5996C130.532 30.9779 130.29 31.2946 129.989 31.5498C129.693 31.8096 129.328 31.9395 128.896 31.9395C128.572 31.9395 128.294 31.9076 128.062 31.8438V30.6543C128.262 30.7181 128.467 30.75 128.677 30.75Z" fill="#8B2AFF"/></svg>