<svg width="40" height="41" viewBox="0 0 40 41" fill="none" xmlns="http://www.w3.org/2000/svg"><path fill="currentColor" d="M3.2 0.001H36.800000000000004V1.601H3.2z"/><path fill="currentColor" d="M3.2 38.401H36.800000000000004V40.001000000000005H3.2z"/><path transform="rotate(90 1.6 3.2)" fill="currentColor" d="M1.6 3.201H35.2V4.801H1.6z"/><path transform="rotate(90 40 3.2)" fill="currentColor" d="M39.999 3.201H73.599V4.801H39.999z"/><path fill="currentColor" d="M1.6 1.6H3.2V3.2H1.6z"/><path fill="currentColor" d="M1.6 36.801H3.2V38.401H1.6z"/><path fill="currentColor" d="M36.799 1.6H38.399V3.2H36.799z"/><path fill="currentColor" d="M36.799 36.801H38.399V38.401H36.799z"/><path d="M22.0346 12.8031C23.0202 12.8002 24.0055 12.799 24.9907 12.8019C25.0062 12.9836 25.0166 13.1653 25.0241 13.3478C25.4125 13.3975 25.8043 13.3578 26.1944 13.3845C26.1998 13.5704 26.1956 13.7562 26.1944 13.9425C26.3489 14.1016 26.5866 14.0423 26.7841 14.0532C27.0188 14.0398 27.2895 14.1058 27.4933 13.9563C27.6403 13.8431 27.505 13.6192 27.6136 13.4939C27.9084 13.2885 28.2513 13.5612 28.5679 13.4543C28.5696 13.5737 28.5708 13.6936 28.5721 13.813C28.3883 13.8481 28.1741 13.8318 28.0195 13.9471C27.9101 14.1509 27.9686 14.3936 27.9794 14.6137C28.3654 14.7402 28.7659 14.6128 29.1585 14.6717C29.1614 14.8054 29.1647 14.939 29.1677 15.0731C28.9906 15.081 28.8135 15.1015 28.6423 15.1491C28.6251 15.3458 28.6109 15.5421 28.6009 15.7393C28.4247 15.7443 28.2484 15.7526 28.0726 15.7647C28.05 15.7664 28.0045 15.7697 27.9815 15.7714C27.9644 15.9184 27.9636 16.0717 27.9064 16.2104C27.7656 16.2764 27.6098 16.3022 27.4691 16.3699C27.363 16.6552 27.4119 16.9638 27.4073 17.2608C27.4027 17.7544 27.421 18.2485 27.3918 18.7413C27.2523 18.761 27.1128 18.7831 26.9737 18.8044C26.9537 18.8069 26.9144 18.8119 26.8948 18.8144C26.8743 18.8178 26.8338 18.8236 26.8138 18.8265C26.7114 19.2726 26.7486 19.732 26.7449 20.1852C26.7399 20.4679 26.8138 20.7532 26.757 21.0334C26.5924 21.1328 26.3886 21.1245 26.2178 21.2088C26.1242 21.2811 26.1388 21.4181 26.1263 21.5237C26.1272 21.7856 26.0578 22.0512 26.1297 22.3098C25.9171 22.2956 25.5946 22.2379 25.5061 22.4969C25.4677 22.7968 25.5429 23.1041 25.4635 23.4019C25.3215 23.4366 25.154 23.4362 25.0425 23.5423C24.9356 23.7085 24.9652 23.9219 24.8955 24.1032C24.7502 24.1416 24.5952 24.1203 24.4507 24.1621C24.3091 24.3195 24.3271 24.5542 24.2916 24.751C24.1784 24.7255 24.0535 24.667 23.9412 24.7267C23.8447 24.7756 23.7428 24.847 23.7173 24.9589C23.6872 25.0788 23.6843 25.2033 23.6743 25.3256C23.3418 25.3837 23.0039 25.3507 22.6694 25.3307C22.6443 25.3674 22.6201 25.4046 22.5963 25.4422C22.5905 25.4568 22.5792 25.4852 22.5733 25.4998C22.517 25.6368 22.5028 25.7855 22.4906 25.9321C22.3374 25.9517 22.1791 25.9542 22.0329 26.0081C21.9744 26.0252 21.9431 26.0816 21.9327 26.138C21.903 26.2762 21.9043 26.4186 21.8984 26.5598C21.3183 26.6438 20.7319 26.5861 20.1497 26.6283C20.1255 26.8066 20.1042 26.985 20.0871 27.1642C19.8014 27.2063 19.5119 27.2022 19.2242 27.1967C17.8321 27.1988 16.4397 27.1955 15.0476 27.1984C14.6525 27.2084 14.2583 27.1738 13.8636 27.185C13.788 27.1788 13.6765 27.1959 13.6489 27.1023C13.5813 26.9202 13.5604 26.7248 13.5111 26.5377C13.2292 26.5915 12.9402 26.6367 12.6532 26.6007C12.5994 26.5895 12.5296 26.5865 12.5021 26.5297C12.4139 26.3556 12.3968 26.1564 12.3538 25.9684C11.9687 25.9864 11.5811 25.9985 11.1998 25.9329C11.1994 25.8306 11.1998 25.7283 11.2006 25.6259C11.4512 25.5896 11.7043 25.5704 11.9574 25.5754C12.667 25.585 13.377 25.5725 14.087 25.5812C14.3013 25.5812 14.5335 25.613 14.7273 25.4981L14.7302 25.461C14.7465 25.2776 14.7624 25.0943 14.7737 24.9109C15.0322 24.9038 15.2911 24.9051 15.5501 24.9055C15.6846 24.9009 15.8266 24.9051 15.9523 24.8487C16.0287 24.6641 16.0287 24.4394 15.946 24.2573C15.8612 24.1867 15.7384 24.2017 15.6349 24.1946C15.3488 24.2013 15.0623 24.2122 14.7766 24.1825C14.7628 23.9979 14.7478 23.8133 14.7332 23.6287C14.5515 23.6174 14.3698 23.6062 14.1877 23.597C14.1806 23.4078 14.2057 23.2069 14.1267 23.0298C13.9455 22.9726 13.7521 22.9759 13.5641 22.9626C13.5554 22.7796 13.5466 22.5967 13.537 22.4142C13.3478 22.4067 13.1594 22.3962 12.9707 22.3841C12.9648 22.2212 12.9611 22.0579 12.9594 21.895C13.5525 21.8654 14.1468 21.9076 14.7398 21.8779C14.7762 21.6486 14.7753 21.4143 14.7231 21.1871C14.3351 21.16 13.9455 21.1967 13.5587 21.1495C13.5508 20.9649 13.5583 20.7761 13.5086 20.5966C13.344 20.5548 13.1728 20.5594 13.0045 20.5506C12.9836 20.3656 12.9631 20.1806 12.9427 19.9956C12.746 19.9847 12.5492 19.9726 12.3525 19.9588C12.363 19.7721 12.4156 19.5558 12.2953 19.3929C12.1374 19.3315 11.9641 19.3403 11.7983 19.3281C11.754 18.9489 11.7887 18.5676 11.7649 18.1875C11.7545 18.0017 11.762 17.8158 11.7799 17.6308C11.9462 17.6325 12.1128 17.6371 12.279 17.6437C12.287 17.8334 12.2953 18.0226 12.3032 18.2122C12.7117 18.2677 13.1244 18.2548 13.5349 18.246C13.555 18.0313 13.5667 17.8133 13.5282 17.5999C13.5211 17.5623 13.514 17.5251 13.5065 17.488C13.3616 17.5051 13.2158 17.5151 13.0701 17.5168C13.045 17.3305 13.0504 17.1171 12.9214 16.9663C12.7798 16.8686 12.5944 16.8832 12.4311 16.8577C12.3876 16.5031 12.4711 16.136 12.3822 15.7885C12.2339 15.6691 12.0159 15.7042 11.8359 15.6745C11.8221 15.3345 11.8338 14.9933 11.8029 14.6542C11.7933 14.4784 11.767 14.2946 11.8288 14.1254C11.9883 14.044 12.1742 14.0594 12.3475 14.0519C12.3793 13.8707 12.3885 13.6794 12.4707 13.5119C12.5363 13.3929 12.7167 13.3887 12.8053 13.4839C12.8086 13.5921 12.7773 13.6973 12.7535 13.8018C12.8266 13.8865 12.8901 13.9901 12.9961 14.0369C13.1415 14.0799 13.2956 14.0628 13.4451 14.0657C13.4184 14.2641 13.3587 14.5235 13.555 14.6588C13.6911 14.7139 13.8444 14.6696 13.9868 14.6634C14.0069 14.8501 13.9843 15.0551 14.0783 15.2247C14.2236 15.3487 14.4354 15.3245 14.6137 15.3546C14.63 15.4874 14.6229 15.6298 14.6826 15.753C14.7616 15.8675 14.8827 15.9422 14.9908 16.0266C15.0581 15.9794 15.1253 15.9314 15.198 15.8921C15.2686 16.0984 15.2302 16.3678 15.4018 16.5244C15.7426 16.5307 16.098 16.4405 16.4292 16.5629C16.4965 16.7216 16.4514 16.8991 16.4393 17.0645C16.6832 17.2065 16.9584 17.0853 17.2186 17.0891C17.5532 17.087 17.8877 17.0987 18.2218 17.0924C18.6161 17.0845 19.0133 17.1175 19.405 17.0578C19.4702 17.0482 19.5358 17.034 19.5951 17.0043C19.6414 16.8728 19.6339 16.7303 19.6347 16.5929C19.6276 16.2722 19.626 15.9514 19.6318 15.6302C19.6377 15.5075 19.6397 15.3801 19.6869 15.2648C19.8553 15.2138 20.0332 15.2151 20.2073 15.2001C20.2291 14.8501 20.237 14.4988 20.1998 14.1497C20.2094 14.1037 20.2207 14.0578 20.2332 14.0127C20.4128 14.0085 20.5924 14.0001 20.772 13.993C20.8054 13.7909 20.8321 13.5875 20.8539 13.3833C21.2465 13.3545 21.6424 13.41 22.0333 13.3474C22.0333 13.1661 22.0342 12.9844 22.0346 12.8031Z" fill="currentColor"/></svg>