<svg width="20" height="20" viewBox="0 0 20 20" fill="none" xmlns="http://www.w3.org/2000/svg"><path fill-rule="evenodd" clip-rule="evenodd" d="M6.93331 0H13.0667C18.6665 0 20 1.33336 20 6.93339V13.0668C20 18.6667 18.6665 20 13.0667 20H6.93331C1.33334 20 0 18.6667 0 13.0668V6.93339C-8.33333e-08 1.33336 1.33334 0 6.93331 0Z" fill="#2787F5"/><path fill-rule="evenodd" clip-rule="evenodd" d="M16.38 6.89034C16.4727 6.58145 16.38 6.35425 15.9391 6.35425H14.4807C14.1098 6.35425 13.939 6.5504 13.8463 6.76672C13.8463 6.76672 13.1046 8.57435 12.054 9.74854C11.7142 10.0885 11.5597 10.1967 11.3742 10.1967C11.2816 10.1967 11.1474 10.0885 11.1474 9.77959V6.89034C11.1474 6.51963 11.0397 6.35425 10.7307 6.35425H8.43905C8.20734 6.35425 8.06793 6.52642 8.06793 6.68953C8.06793 7.04105 8.59329 7.12217 8.64748 8.11094V10.2584C8.64748 10.7293 8.56239 10.8148 8.37697 10.8148C7.88266 10.8148 6.67996 8.99895 5.96679 6.92124C5.82695 6.51739 5.68684 6.35425 5.31415 6.35425H3.85579C3.4391 6.35425 3.35583 6.5504 3.35583 6.76672C3.35583 7.15294 3.85014 9.06881 5.65778 11.6026C6.86284 13.3329 8.56068 14.271 10.1057 14.271C11.0327 14.271 11.1474 14.0626 11.1474 13.7037V12.3961C11.1474 11.9792 11.2351 11.8963 11.5288 11.8963C11.745 11.8963 12.1158 12.0042 12.9811 12.8386C13.9699 13.8274 14.1329 14.271 14.6891 14.271H16.1475C16.564 14.271 16.7723 14.0626 16.6522 13.6515C16.5206 13.2418 16.0486 12.6473 15.4222 11.9426C15.0822 11.5408 14.5723 11.1083 14.4179 10.8918C14.2016 10.6138 14.2634 10.4902 14.4179 10.243C14.4179 10.243 16.1948 7.7401 16.38 6.89034Z" fill="#fff"/></svg>