<svg width="64" height="23" viewBox="0 0 64 23" fill="none" xmlns="http://www.w3.org/2000/svg"><path fill-rule="evenodd" clip-rule="evenodd" d="M52.812 1.60252e-05C50.2935 -0.00404992 47.848 0.84562 45.8745 2.41036C43.9011 0.845518 41.4555 -0.00416501 38.937 1.60252e-05C36.4186 -0.00388126 33.9732 0.845774 31.9998 2.41036C30.0266 0.845442 27.5811 -0.00425529 25.0627 1.60252e-05C22.5443 -0.00388126 20.0989 0.845774 18.1255 2.41036C16.1521 0.845723 13.7067 -0.00393878 11.1883 1.60252e-05C5.00823 1.60252e-05 0 5.00789 0 11.1883C0 17.3681 5.00787 22.3767 11.1883 22.3767C13.7067 22.3805 16.1521 21.5309 18.1255 19.9663C20.0989 21.531 22.5443 22.3806 25.0627 22.3767C27.5811 22.3809 30.0266 21.5312 31.9998 19.9663C33.9732 21.5309 36.4186 22.3806 38.937 22.3767C41.4555 22.3808 43.9011 21.5311 45.8745 19.9663C47.8479 21.5311 50.2935 22.3808 52.812 22.3767C58.9921 22.3767 64 17.3684 64 11.1883C64 5.00825 58.9921 1.60252e-05 52.812 1.60252e-05ZM16.2949 18.1386C14.8692 19.1786 13.0881 19.8134 11.1883 19.8134C6.42079 19.8134 2.56293 15.9559 2.56293 11.1883C2.56293 6.42081 6.42079 2.56294 11.1883 2.56294C13.0881 2.56294 14.8681 3.19803 16.2949 4.23842C14.7229 6.21333 13.8694 8.66419 13.8747 11.1883C13.8759 13.7115 14.7286 16.1604 16.2949 18.1386ZM18.1259 16.3131C17.0263 14.831 16.4344 13.0337 16.438 11.1883C16.4334 9.34278 17.0254 7.54517 18.1259 6.06357C19.2261 7.54528 19.8181 9.34282 19.8137 11.1883C19.8172 13.0337 19.2252 14.831 18.1259 16.3131ZM30.1696 18.1386C28.6884 19.2291 26.8962 19.8153 25.0568 19.8108C23.2213 19.8146 21.4332 19.2283 19.9561 18.1386C21.5225 16.1606 22.3753 13.7118 22.3763 11.1887C22.3815 8.66456 21.5281 6.21369 19.9561 4.23879C21.433 3.14876 23.2212 2.56239 25.0568 2.56622C26.9705 2.56622 28.7384 3.18529 30.1696 4.23879C28.5976 6.21369 27.7441 8.66456 27.7494 11.1887C27.7505 13.7118 28.6032 16.1606 30.1696 18.1386ZM31.9998 16.3131C30.9003 14.831 30.3084 13.0337 30.312 11.1883C30.3075 9.34281 30.8995 7.54525 31.9998 6.06357C33.1003 7.54516 33.6925 9.34275 33.688 11.1883C33.6916 13.0338 33.0995 14.8311 31.9998 16.3131ZM44.0439 18.1386C42.6128 19.1925 40.8448 19.8108 38.9315 19.8108C37.0182 19.8108 35.2616 19.1914 33.8304 18.1386C35.397 16.1607 36.2498 13.7118 36.2506 11.1887C36.2559 8.66456 35.4024 6.21369 33.8304 4.23879C35.2616 3.18565 37.0182 2.56622 38.9315 2.56622C40.8448 2.56622 42.6128 3.18529 44.0439 4.23879C42.4721 6.21379 41.6187 8.66459 41.6237 11.1887C41.625 13.7117 42.4777 16.1605 44.0439 18.1386ZM45.8749 16.3131C44.7754 14.831 44.1834 13.0337 44.187 11.1883C44.1822 9.34276 44.7743 7.54509 45.8749 6.06357C46.9751 7.54528 47.5671 9.34282 47.5627 11.1883C47.566 13.0337 46.9741 14.8309 45.8749 16.3131ZM52.812 19.8134C50.9115 19.8134 49.1308 19.1786 47.7055 18.1386C49.2717 16.1606 50.1245 13.7118 50.1257 11.1887C50.1307 8.66459 49.2773 6.21379 47.7055 4.23879C49.1323 3.19876 50.9119 2.56331 52.812 2.56331C57.5788 2.56331 61.4374 6.42118 61.4374 11.1887C61.4374 15.9555 57.5788 19.8134 52.812 19.8134Z" fill="#000"/></svg>