<svg width="173" height="47" viewBox="0 0 173 47" fill="none" xmlns="http://www.w3.org/2000/svg"><path fill="#8B2AFF" d="M4 0H169V2H4z"/><path fill="#8B2AFF" d="M4 45H169V47H4z"/><path transform="rotate(90 2 4)" fill="#8B2AFF" d="M2 4H41V6H2z"/><path transform="matrix(0 1 1 0 171 4)" fill="#8B2AFF" d="M0 0H39V2H0z"/><path fill="#8B2AFF" d="M2 2H4V4H2z"/><path transform="matrix(-1 0 0 1 171 2)" fill="#8B2AFF" d="M0 0H2V2H0z"/><path fill="#8B2AFF" d="M2 43H4V45H2z"/><path transform="matrix(-1 0 0 1 171 43)" fill="#8B2AFF" d="M0 0H2V2H0z"/></svg>