<svg width="24" height="18" viewBox="0 0 24 18" fill="none" xmlns="http://www.w3.org/2000/svg"><path d="M0.327777 0C8.16928 0.00920905 16.0117 0.00920905 23.8532 0C23.925 1.28006 23.8495 2.56196 23.8827 3.84294C23.8661 7.74113 23.8891 11.6393 23.8808 15.5384C23.8532 16.3589 23.9177 17.1804 23.8532 18C16.0117 17.9908 8.16928 17.9908 0.327777 18C0.257788 14.8174 0.329621 11.631 0.29831 8.44746C0.306598 6.23729 0.298308 4.02712 0.307517 1.81695C0.313043 1.21099 0.275286 0.605034 0.327777 0ZM1.80859 1.61987C1.81044 1.92193 1.81135 2.22491 1.80399 2.52788C2.15209 2.58866 2.50664 2.58038 2.85842 2.57669C2.87592 3.10805 2.87224 3.63942 2.85935 4.17078C2.50848 4.16802 2.15762 4.16433 1.80767 4.1892C1.81136 8.25315 1.80951 12.3162 1.80859 16.3801C4.00679 16.4262 6.20775 16.3866 8.40687 16.3995C11.5076 16.3995 14.6082 16.3995 17.708 16.3995C19.2625 16.3875 20.8188 16.4253 22.3724 16.3801C22.3715 12.3162 22.3696 8.25315 22.3733 4.1892C22.0234 4.16341 21.6716 4.16802 21.3216 4.17078C21.3087 3.63942 21.3051 3.10805 21.3216 2.57669C21.6734 2.58038 22.028 2.58866 22.377 2.52788C22.3687 2.22491 22.3696 1.92193 22.3724 1.61895C20.5729 1.57567 18.7717 1.6125 16.9713 1.60053C13.8706 1.60053 10.7708 1.60053 7.67015 1.60053C5.71599 1.6125 3.76091 1.57475 1.80859 1.61987Z" fill="#8B2AFF"/><path d="M2.85938 4.17027C3.54361 4.17119 4.22784 4.16567 4.91115 4.17395C4.91575 4.67216 4.91299 5.17129 4.91852 5.67042C4.23797 5.67227 3.5565 5.67503 2.87687 5.66859C2.86306 5.16946 2.87687 4.6694 2.85938 4.17027Z" fill="#8B2AFF"/><path d="M19.2697 4.17419C19.953 4.16682 20.6373 4.17143 21.3215 4.17051C21.3031 4.66964 21.3178 5.16969 21.3049 5.66975C20.6244 5.67435 19.9429 5.6725 19.2624 5.67066C19.2679 5.17153 19.2642 4.6724 19.2697 4.17419Z" fill="#8B2AFF"/><path d="M4.91837 5.67126C5.59523 5.67495 6.27302 5.66851 6.9508 5.67587C6.95541 6.17961 6.94896 6.68334 6.95817 7.18708C6.27762 7.18063 5.59799 7.18708 4.91745 7.18155C4.91192 6.67782 4.91192 6.17408 4.91837 5.67126Z" fill="#8B2AFF"/><path d="M17.2304 5.67587C17.9072 5.66851 18.585 5.67495 19.2628 5.67126C19.2692 6.17408 19.2683 6.67782 19.2637 7.18155C18.5832 7.18708 17.9026 7.18063 17.223 7.18708C17.2313 6.68334 17.2248 6.17961 17.2304 5.67587Z" fill="#8B2AFF"/><path d="M6.95838 7.18667C7.63248 7.18114 8.30658 7.18298 8.9816 7.18482C8.99541 7.71527 8.98804 8.24663 8.99173 8.77799C8.31763 8.77615 7.64353 8.77891 6.96943 8.77523C6.94364 8.24571 6.95285 7.71619 6.95838 7.18667Z" fill="#8B2AFF"/><path d="M15.1996 7.18437C15.8737 7.18345 16.5478 7.18068 17.2228 7.18713C17.2274 7.71665 17.2375 8.24617 17.2118 8.77569C16.5367 8.77937 15.8626 8.77661 15.1895 8.77845C15.1931 8.24709 15.1858 7.71573 15.1996 7.18437Z" fill="#8B2AFF"/><path d="M8.99158 8.77824C9.66845 8.77732 10.3453 8.77456 11.0231 8.78008C11.0277 9.27737 11.0259 9.77374 11.0259 10.271C10.3462 10.2904 9.66569 10.2913 8.98698 10.2664C8.99251 9.77006 8.98698 9.27461 8.99158 8.77824Z" fill="#8B2AFF"/><path d="M13.1577 8.78088C13.8345 8.77443 14.5114 8.7772 15.1892 8.77812C15.1929 9.27448 15.1873 9.77085 15.1938 10.2672C14.5141 10.2912 13.8345 10.2893 13.1558 10.2709C13.154 9.77361 13.1521 9.27724 13.1577 8.78088Z" fill="#8B2AFF"/><path d="M11.0258 10.2715C11.7349 10.2881 12.4459 10.2881 13.1559 10.2715C13.1549 10.7605 13.1513 11.2504 13.1586 11.7394C12.4523 11.826 11.7285 11.826 11.0221 11.7394C11.0295 11.2504 11.0258 10.7605 11.0258 10.2715Z" fill="#8B2AFF"/></svg>