<svg width="1279" height="700" viewBox="0 0 1279 700" fill="none" xmlns="http://www.w3.org/2000/svg"><g opacity=".1" stroke="#fff"><path d="M20 -2V700"/><path d="M60 -2V700"/><path d="M100 -2V700"/><path d="M140 -2V700"/><path d="M180 -2V700"/><path d="M220 -2V700"/><path d="M260 -2V700"/><path d="M300 -2V700"/><path d="M340 -2V700"/><path d="M380 -2V700"/><path d="M420 -2V700"/><path d="M460 -2V700"/><path d="M500 -2V700"/><path d="M540 -2V700"/><path d="M580 -2V700"/><path d="M620 -2V700"/><path d="M660 -2V700"/><path d="M700 -2V700"/><path d="M740 -2V700"/><path d="M780 -2V700"/><path d="M820 -2V700"/><path d="M860 -2V700"/><path d="M900 -2V700"/><path d="M940 -2V700"/><path d="M980 -2V700"/><path d="M1020 -2V700"/><path d="M1060 -2V700"/><path d="M1100 -2V700"/><path d="M1140 -2V700"/><path d="M1180 -2V700"/><path d="M1220 -2V700"/><path d="M1260 -2V700"/><path d="M1285 38.1194L-67.9981 38.1193"/><path d="M1285 78.1194L-67.9981 78.1193"/><path d="M1285 118.12L-67.9982 118.119"/><path d="M1285 158.12L-67.9982 158.119"/><path d="M1285 198.12L-67.9982 198.119"/><path d="M1285 238.12L-67.9982 238.12"/><path d="M1285 278.12L-67.9982 278.12"/><path d="M1285 318.12L-67.9982 318.12"/><path d="M1285 358.12L-67.9982 358.12"/><path d="M1285 398.12L-67.9982 398.12"/><path d="M1285 438.12L-67.9983 438.12"/><path d="M1285 478.12L-67.9983 478.12"/><path d="M1285 518.12L-67.9983 518.12"/><path d="M1285 558.12L-67.9983 558.12"/><path d="M1285 598.12L-67.9983 598.12"/><path d="M1285 638.12L-67.9983 638.12"/><path d="M1285 678.12L-67.9983 678.12"/></g></svg>