<svg width="1279" height="873" viewBox="0 0 1279 873" fill="none" xmlns="http://www.w3.org/2000/svg"><g opacity=".1"><path d="M20 872V-4.73261e-05" stroke="url(#paint0_linear)"/><path d="M60 872V-4.73261e-05" stroke="url(#paint1_linear)"/><path d="M100 872V-4.73261e-05" stroke="url(#paint2_linear)"/><path d="M140 872V-4.73261e-05" stroke="url(#paint3_linear)"/><path d="M180 872V-4.73261e-05" stroke="url(#paint4_linear)"/><path d="M220 872V-4.73261e-05" stroke="url(#paint5_linear)"/><path d="M260 872V-4.73261e-05" stroke="url(#paint6_linear)"/><path d="M300 872V-4.73261e-05" stroke="url(#paint7_linear)"/><path d="M340 872V-4.73261e-05" stroke="url(#paint8_linear)"/><path d="M380 872V-4.73261e-05" stroke="url(#paint9_linear)"/><path d="M420 872V-4.73261e-05" stroke="url(#paint10_linear)"/><path d="M460 872V-4.73261e-05" stroke="url(#paint11_linear)"/><path d="M500 872V-4.73261e-05" stroke="url(#paint12_linear)"/><path d="M540 872V-4.73261e-05" stroke="url(#paint13_linear)"/><path d="M580 872V-4.73261e-05" stroke="url(#paint14_linear)"/><path d="M620 872V-4.73261e-05" stroke="url(#paint15_linear)"/><path d="M660 872V-4.73261e-05" stroke="url(#paint16_linear)"/><path d="M700 872V-4.73261e-05" stroke="url(#paint17_linear)"/><path d="M740 872V-4.73261e-05" stroke="url(#paint18_linear)"/><path d="M780 872V-4.73261e-05" stroke="url(#paint19_linear)"/><path d="M820 872V-4.73261e-05" stroke="url(#paint20_linear)"/><path d="M860 872V-4.73261e-05" stroke="url(#paint21_linear)"/><path d="M900 872V-4.73261e-05" stroke="url(#paint22_linear)"/><path d="M940 872V-4.73261e-05" stroke="url(#paint23_linear)"/><path d="M980 872V-4.73261e-05" stroke="url(#paint24_linear)"/><path d="M1020 872V-4.73261e-05" stroke="url(#paint25_linear)"/><path d="M1060 872V-4.73261e-05" stroke="url(#paint26_linear)"/><path d="M1100 872V-4.73261e-05" stroke="url(#paint27_linear)"/><path d="M1140 872V-4.73261e-05" stroke="url(#paint28_linear)"/><path d="M1180 872V-4.73261e-05" stroke="url(#paint29_linear)"/><path d="M1220 872V-4.73261e-05" stroke="url(#paint30_linear)"/><path d="M1260 872V-4.73261e-05" stroke="url(#paint31_linear)"/><path d="M1285 871.885L-67.9986 871.885" stroke="#8B2AFF"/><path d="M1285 831.885L-67.9986 831.885" stroke="#8B2AFF"/><path d="M1285 791.885L-67.9986 791.885" stroke="#8B2AFF"/><path d="M1285 751.885L-67.9986 751.885" stroke="#8B2AFF"/><path d="M1285 711.885L-67.9986 711.885" stroke="#8B2AFF"/><path d="M1285 671.885L-67.9986 671.885" stroke="#8B2AFF"/><path d="M1285 631.885L-67.9986 631.885" stroke="#8B2AFF"/><path d="M1285 591.885L-67.9987 591.885" stroke="#8B2AFF"/><path d="M1285 551.885L-67.9987 551.885" stroke="#8B2AFF"/><path d="M1285 511.885L-67.9987 511.885" stroke="#8B2AFF"/><path d="M1285 471.884L-67.9987 471.885" stroke="#8B2AFF"/><path d="M1285 431.884L-67.9988 431.884" stroke="#8B2AFF"/><path d="M1285 391.884L-67.9988 391.884" stroke="#8B2AFF"/><path d="M1285 351.884L-67.9988 351.884" stroke="#8B2AFF"/><path d="M1285 311.884L-67.9988 311.884" stroke="#8B2AFF"/><path d="M1285 271.884L-67.9988 271.884" stroke="#8B2AFF"/><path d="M1285 231.884L-67.9988 231.884" stroke="#8B2AFF"/><path d="M1285 191.884L-67.9988 191.884" stroke="#8B2AFF"/><path d="M1285 151.884L-67.9988 151.884" stroke="#8B2AFF"/><path d="M1285 111.884L-67.9989 111.884" stroke="#8B2AFF"/><path d="M1285 871.885L-67.9981 871.885" stroke="#8B2AFF"/><path d="M1285 831.885L-67.9981 831.885" stroke="#8B2AFF"/><path d="M1285 791.885L-67.9981 791.885" stroke="#8B2AFF"/><path d="M1285 751.885L-67.9982 751.885" stroke="#8B2AFF"/><path d="M1285 711.885L-67.9982 711.885" stroke="#8B2AFF"/><path d="M1285 671.885L-67.9982 671.885" stroke="#8B2AFF"/><path d="M1285 631.885L-67.9982 631.885" stroke="#8B2AFF"/><path d="M1285 591.885L-67.9982 591.885" stroke="#8B2AFF"/><path d="M1285 551.885L-67.9982 551.885" stroke="#8B2AFF"/><path d="M1285 511.885L-67.9982 511.885" stroke="#8B2AFF"/><path d="M1285 471.884L-67.9982 471.885" stroke="#8B2AFF"/><path d="M1285 431.884L-67.9983 431.884" stroke="#8B2AFF"/><path d="M1285 391.884L-67.9983 391.884" stroke="#8B2AFF"/><path d="M1285 351.884L-67.9983 351.884" stroke="#8B2AFF"/><path d="M1285 311.884L-67.9983 311.884" stroke="#8B2AFF"/><path d="M1285 271.884L-67.9983 271.884" stroke="#8B2AFF"/><path d="M1285 231.884L-67.9983 231.884" stroke="#8B2AFF"/><path d="M1285 191.884L-67.9983 191.884" stroke="#8B2AFF"/><path d="M1285 151.884L-67.9983 151.884" stroke="#8B2AFF"/><path d="M1285 111.884L-67.9984 111.884" stroke="#8B2AFF"/><path d="M1285 71.8839L-67.9984 71.8839" stroke="#8B2AFF"/></g><defs><linearGradient id="paint1_linear" x1="60.5" y1="872" x2="60" y2="0" gradientUnits="userSpaceOnUse"><stop offset=".734" stop-color="#8B2AFF"/><stop offset="1" stop-color="#8B2AFF" stop-opacity="0"/></linearGradient><linearGradient id="paint16_linear" x1="660.5" y1="872" x2="660" y2="0" gradientUnits="userSpaceOnUse"><stop offset=".734" stop-color="#8B2AFF"/><stop offset="1" stop-color="#8B2AFF" stop-opacity="0"/></linearGradient><linearGradient id="paint2_linear" x1="100.5" y1="872" x2="100" y2="0" gradientUnits="userSpaceOnUse"><stop offset=".734" stop-color="#8B2AFF"/><stop offset="1" stop-color="#8B2AFF" stop-opacity="0"/></linearGradient><linearGradient id="paint3_linear" x1="140.5" y1="872" x2="140" y2="0" gradientUnits="userSpaceOnUse"><stop offset=".734" stop-color="#8B2AFF"/><stop offset="1" stop-color="#8B2AFF" stop-opacity="0"/></linearGradient><linearGradient id="paint4_linear" x1="180.5" y1="872" x2="180" y2="0" gradientUnits="userSpaceOnUse"><stop offset=".734" stop-color="#8B2AFF"/><stop offset="1" stop-color="#8B2AFF" stop-opacity="0"/></linearGradient><linearGradient id="paint5_linear" x1="220.5" y1="872" x2="220" y2="0" gradientUnits="userSpaceOnUse"><stop offset=".734" stop-color="#8B2AFF"/><stop offset="1" stop-color="#8B2AFF" stop-opacity="0"/></linearGradient><linearGradient id="paint6_linear" x1="260.5" y1="872" x2="260" y2="0" gradientUnits="userSpaceOnUse"><stop offset=".734" stop-color="#8B2AFF"/><stop offset="1" stop-color="#8B2AFF" stop-opacity="0"/></linearGradient><linearGradient id="paint7_linear" x1="300.5" y1="872" x2="300" y2="0" gradientUnits="userSpaceOnUse"><stop offset=".734" stop-color="#8B2AFF"/><stop offset="1" stop-color="#8B2AFF" stop-opacity="0"/></linearGradient><linearGradient id="paint8_linear" x1="340.5" y1="872" x2="340" y2="0" gradientUnits="userSpaceOnUse"><stop offset=".734" stop-color="#8B2AFF"/><stop offset="1" stop-color="#8B2AFF" stop-opacity="0"/></linearGradient><linearGradient id="paint9_linear" x1="380.5" y1="872" x2="380" y2="0" gradientUnits="userSpaceOnUse"><stop offset=".734" stop-color="#8B2AFF"/><stop offset="1" stop-color="#8B2AFF" stop-opacity="0"/></linearGradient><linearGradient id="paint10_linear" x1="420.5" y1="872" x2="420" y2="0" gradientUnits="userSpaceOnUse"><stop offset=".734" stop-color="#8B2AFF"/><stop offset="1" stop-color="#8B2AFF" stop-opacity="0"/></linearGradient><linearGradient id="paint11_linear" x1="460.5" y1="872" x2="460" y2="0" gradientUnits="userSpaceOnUse"><stop offset=".734" stop-color="#8B2AFF"/><stop offset="1" stop-color="#8B2AFF" stop-opacity="0"/></linearGradient><linearGradient id="paint12_linear" x1="500.5" y1="872" x2="500" y2="0" gradientUnits="userSpaceOnUse"><stop offset=".734" stop-color="#8B2AFF"/><stop offset="1" stop-color="#8B2AFF" stop-opacity="0"/></linearGradient><linearGradient id="paint13_linear" x1="540.5" y1="872" x2="540" y2="0" gradientUnits="userSpaceOnUse"><stop offset=".734" stop-color="#8B2AFF"/><stop offset="1" stop-color="#8B2AFF" stop-opacity="0"/></linearGradient><linearGradient id="paint14_linear" x1="580.5" y1="872" x2="580" y2="0" gradientUnits="userSpaceOnUse"><stop offset=".734" stop-color="#8B2AFF"/><stop offset="1" stop-color="#8B2AFF" stop-opacity="0"/></linearGradient><linearGradient id="paint15_linear" x1="620.5" y1="872" x2="620" y2="0" gradientUnits="userSpaceOnUse"><stop offset=".734" stop-color="#8B2AFF"/><stop offset="1" stop-color="#8B2AFF" stop-opacity="0"/></linearGradient><linearGradient id="paint0_linear" x1="20.5" y1="872" x2="20" y2="0" gradientUnits="userSpaceOnUse"><stop offset=".734" stop-color="#8B2AFF"/><stop offset="1" stop-color="#8B2AFF" stop-opacity="0"/></linearGradient><linearGradient id="paint17_linear" x1="700.5" y1="872" x2="700" y2="0" gradientUnits="userSpaceOnUse"><stop offset=".734" stop-color="#8B2AFF"/><stop offset="1" stop-color="#8B2AFF" stop-opacity="0"/></linearGradient><linearGradient id="paint18_linear" x1="740.5" y1="872" x2="740" y2="0" gradientUnits="userSpaceOnUse"><stop offset=".734" stop-color="#8B2AFF"/><stop offset="1" stop-color="#8B2AFF" stop-opacity="0"/></linearGradient><linearGradient id="paint19_linear" x1="780.5" y1="872" x2="780" y2="0" gradientUnits="userSpaceOnUse"><stop offset=".734" stop-color="#8B2AFF"/><stop offset="1" stop-color="#8B2AFF" stop-opacity="0"/></linearGradient><linearGradient id="paint20_linear" x1="820.5" y1="872" x2="820" y2="0" gradientUnits="userSpaceOnUse"><stop offset=".734" stop-color="#8B2AFF"/><stop offset="1" stop-color="#8B2AFF" stop-opacity="0"/></linearGradient><linearGradient id="paint21_linear" x1="860.5" y1="872" x2="860" y2="0" gradientUnits="userSpaceOnUse"><stop offset=".734" stop-color="#8B2AFF"/><stop offset="1" stop-color="#8B2AFF" stop-opacity="0"/></linearGradient><linearGradient id="paint22_linear" x1="900.5" y1="872" x2="900" y2="0" gradientUnits="userSpaceOnUse"><stop offset=".734" stop-color="#8B2AFF"/><stop offset="1" stop-color="#8B2AFF" stop-opacity="0"/></linearGradient><linearGradient id="paint23_linear" x1="940.5" y1="872" x2="940" y2="0" gradientUnits="userSpaceOnUse"><stop offset=".734" stop-color="#8B2AFF"/><stop offset="1" stop-color="#8B2AFF" stop-opacity="0"/></linearGradient><linearGradient id="paint24_linear" x1="980.5" y1="872" x2="980" y2="0" gradientUnits="userSpaceOnUse"><stop offset=".734" stop-color="#8B2AFF"/><stop offset="1" stop-color="#8B2AFF" stop-opacity="0"/></linearGradient><linearGradient id="paint25_linear" x1="1020.5" y1="872" x2="1020" y2="0" gradientUnits="userSpaceOnUse"><stop offset=".734" stop-color="#8B2AFF"/><stop offset="1" stop-color="#8B2AFF" stop-opacity="0"/></linearGradient><linearGradient id="paint26_linear" x1="1060.5" y1="872" x2="1060" y2="0" gradientUnits="userSpaceOnUse"><stop offset=".734" stop-color="#8B2AFF"/><stop offset="1" stop-color="#8B2AFF" stop-opacity="0"/></linearGradient><linearGradient id="paint27_linear" x1="1100.5" y1="872" x2="1100" y2="0" gradientUnits="userSpaceOnUse"><stop offset=".734" stop-color="#8B2AFF"/><stop offset="1" stop-color="#8B2AFF" stop-opacity="0"/></linearGradient><linearGradient id="paint28_linear" x1="1140.5" y1="872" x2="1140" y2="0" gradientUnits="userSpaceOnUse"><stop offset=".734" stop-color="#8B2AFF"/><stop offset="1" stop-color="#8B2AFF" stop-opacity="0"/></linearGradient><linearGradient id="paint29_linear" x1="1180.5" y1="872" x2="1180" y2="0" gradientUnits="userSpaceOnUse"><stop offset=".734" stop-color="#8B2AFF"/><stop offset="1" stop-color="#8B2AFF" stop-opacity="0"/></linearGradient><linearGradient id="paint30_linear" x1="1220.5" y1="872" x2="1220" y2="0" gradientUnits="userSpaceOnUse"><stop offset=".734" stop-color="#8B2AFF"/><stop offset="1" stop-color="#8B2AFF" stop-opacity="0"/></linearGradient><linearGradient id="paint31_linear" x1="1260.5" y1="872" x2="1260" y2="0" gradientUnits="userSpaceOnUse"><stop offset=".734" stop-color="#8B2AFF"/><stop offset="1" stop-color="#8B2AFF" stop-opacity="0"/></linearGradient></defs></svg>