<svg width="335" height="47" viewBox="0 0 335 47" fill="none" xmlns="http://www.w3.org/2000/svg"><path fill="#fff" d="M4.963 0H330.03700000000003V2H4.963z"/><path fill="#fff" d="M4.963 45H330.03700000000003V47H4.963z"/><path transform="rotate(90 2.482 4)" fill="#fff" d="M2.482 4H41.482V6.481H2.482z"/><path transform="matrix(0 1 1 0 332.519 4)" fill="#fff" d="M0 0H39V2.481H0z"/><path fill="#fff" d="M2.482 2H4.963V4H2.482z"/><path transform="matrix(-1 0 0 1 332.519 2)" fill="#fff" d="M0 0H2.481V2H0z"/><path fill="#fff" d="M2.482 43H4.963V45H2.482z"/><path transform="matrix(-1 0 0 1 332.519 43)" fill="#fff" d="M0 0H2.481V2H0z"/></svg>