<svg width="173" height="47" viewBox="0 0 173 47" fill="none" xmlns="http://www.w3.org/2000/svg">
<rect x="4" width="165" height="2" fill="#8B2AFF"/>
<rect x="4" y="45" width="165" height="2" fill="#8B2AFF"/>
<rect x="2" y="4" width="39" height="2" transform="rotate(90 2 4)" fill="#8B2AFF"/>
<rect width="39" height="2" transform="matrix(4.37114e-08 1 1 -4.37114e-08 171 4)" fill="#8B2AFF"/>
<rect x="2" y="2" width="2" height="2" fill="#8B2AFF"/>
<rect width="2" height="2" transform="matrix(-1 0 0 1 171 2)" fill="#8B2AFF"/>
<rect x="2" y="43" width="2" height="2" fill="#8B2AFF"/>
<rect width="2" height="2" transform="matrix(-1 0 0 1 171 43)" fill="#8B2AFF"/>
<path d="M65.7158 27.9199C65.7021 27.9746 65.5996 28.1113 65.4082 28.3301C65.2715 28.4941 65.0892 28.64 64.8613 28.7676C64.6335 28.8906 64.3281 28.9863 63.9453 29.0547C63.5671 29.1276 63.068 29.1641 62.4482 29.1641C61.6234 29.1641 60.9193 29.1208 60.3359 29.0342C59.7526 28.9521 59.2764 28.8245 58.9072 28.6514C58.5381 28.4736 58.2669 28.248 58.0938 27.9746C57.9251 27.7012 57.8408 27.3753 57.8408 26.9971C57.8408 26.6006 57.8864 26.2656 57.9775 25.9922C58.0732 25.7142 58.21 25.4818 58.3877 25.2949C58.57 25.1081 58.7887 24.9622 59.0439 24.8574C59.2992 24.7526 59.5885 24.6729 59.9121 24.6182C60.2402 24.5635 60.598 24.5293 60.9854 24.5156C61.3727 24.502 61.7852 24.4951 62.2227 24.4951C62.847 24.4951 63.3688 24.5225 63.7881 24.5771C64.2074 24.6273 64.5492 24.6934 64.8135 24.7754C65.0824 24.8529 65.2852 24.9372 65.4219 25.0283C65.5586 25.1195 65.6566 25.2038 65.7158 25.2812C65.7158 24.7708 65.693 24.3356 65.6475 23.9756C65.6064 23.6156 65.5358 23.3148 65.4355 23.0732C65.3398 22.8317 65.2145 22.6403 65.0596 22.499C64.9046 22.3532 64.7132 22.2438 64.4854 22.1709C64.262 22.098 64 22.0524 63.6992 22.0342C63.3984 22.0114 63.0544 22 62.667 22C62.0654 22 61.5664 22.016 61.1699 22.0479C60.7734 22.0752 60.459 22.1322 60.2266 22.2188C59.9941 22.3053 59.8301 22.4261 59.7344 22.5811C59.6387 22.7314 59.5908 22.9297 59.5908 23.1758H58.2783C58.2783 22.7611 58.3512 22.4102 58.4971 22.123C58.6475 21.8359 58.8936 21.6035 59.2354 21.4258C59.5817 21.2435 60.0352 21.1113 60.5957 21.0293C61.1562 20.9473 61.8467 20.9062 62.667 20.9062C63.4691 20.9062 64.1481 20.9723 64.7041 21.1045C65.2601 21.2367 65.709 21.4691 66.0508 21.8018C66.3971 22.1344 66.6455 22.5833 66.7959 23.1484C66.9508 23.709 67.0283 24.4199 67.0283 25.2812V29H65.7158V27.9199ZM62.667 28.125C63.2458 28.125 63.7288 28.0977 64.1162 28.043C64.5081 27.9883 64.8226 27.9062 65.0596 27.7969C65.2965 27.6875 65.4652 27.5508 65.5654 27.3867C65.6657 27.2227 65.7158 27.0312 65.7158 26.8125C65.7158 26.5938 65.6566 26.4092 65.5381 26.2588C65.4242 26.1038 65.2305 25.9785 64.957 25.8828C64.6882 25.7871 64.3304 25.7188 63.8838 25.6777C63.4372 25.6322 62.8857 25.6094 62.2295 25.6094C61.5732 25.6094 61.0423 25.6208 60.6367 25.6436C60.2357 25.6663 59.9258 25.7188 59.707 25.8008C59.4883 25.8828 59.3402 26.0036 59.2627 26.1631C59.1898 26.3226 59.1533 26.5391 59.1533 26.8125C59.1533 27.0859 59.1921 27.3092 59.2695 27.4824C59.3516 27.651 59.5156 27.7832 59.7617 27.8789C60.0078 27.9746 60.361 28.0407 60.8213 28.0771C61.2861 28.109 61.9014 28.125 62.667 28.125ZM73.5977 20.9062C74.4727 20.9062 75.2155 20.9723 75.8262 21.1045C76.4368 21.2367 76.9336 21.4622 77.3164 21.7812C77.6992 22.1003 77.9772 22.5286 78.1504 23.0664C78.3236 23.5996 78.4102 24.2695 78.4102 25.0762C78.4102 25.8691 78.3236 26.5277 78.1504 27.0518C77.9772 27.5758 77.6992 27.9928 77.3164 28.3027C76.9336 28.6126 76.4368 28.8314 75.8262 28.959C75.2155 29.0866 74.4727 29.1504 73.5977 29.1504C72.9733 29.1504 72.4515 29.1162 72.0322 29.0479C71.613 28.9795 71.2689 28.8952 71 28.7949C70.7357 28.6901 70.5329 28.5785 70.3916 28.46C70.2549 28.3415 70.1569 28.2298 70.0977 28.125V31.625H68.7852V21.125H70.0977V21.8564C70.1569 21.7653 70.2549 21.665 70.3916 21.5557C70.5329 21.4417 70.7357 21.3369 71 21.2412C71.2689 21.1455 71.613 21.0658 72.0322 21.002C72.4515 20.9382 72.9733 20.9062 73.5977 20.9062ZM73.5977 22C73.1602 22 72.7705 22.0114 72.4287 22.0342C72.0869 22.057 71.7861 22.1048 71.5264 22.1777C71.2666 22.2461 71.0456 22.3486 70.8633 22.4854C70.6855 22.6175 70.5397 22.7975 70.4258 23.0254C70.3118 23.2487 70.2275 23.5267 70.1729 23.8594C70.1227 24.1921 70.0977 24.5908 70.0977 25.0557C70.0977 25.5251 70.1227 25.9284 70.1729 26.2656C70.2275 26.6029 70.3118 26.8854 70.4258 27.1133C70.5397 27.3366 70.6855 27.5166 70.8633 27.6533C71.0456 27.7855 71.2666 27.888 71.5264 27.9609C71.7861 28.0293 72.0869 28.0749 72.4287 28.0977C72.7705 28.1159 73.1602 28.125 73.5977 28.125C74.1081 28.125 74.5479 28.109 74.917 28.0771C75.2907 28.0452 75.6074 27.9883 75.8672 27.9062C76.127 27.8242 76.3366 27.7103 76.4961 27.5645C76.6602 27.4186 76.7855 27.234 76.8721 27.0107C76.9632 26.7829 77.0225 26.5117 77.0498 26.1973C77.0817 25.8783 77.0977 25.5046 77.0977 25.0762C77.0977 24.6478 77.0817 24.2741 77.0498 23.9551C77.0225 23.6361 76.9632 23.3626 76.8721 23.1348C76.7855 22.9069 76.6602 22.7201 76.4961 22.5742C76.3366 22.4284 76.127 22.3122 75.8672 22.2256C75.6074 22.139 75.2907 22.0798 74.917 22.0479C74.5479 22.016 74.1081 22 73.5977 22ZM84.7539 20.9062C85.6289 20.9062 86.3717 20.9723 86.9824 21.1045C87.5931 21.2367 88.0898 21.4622 88.4727 21.7812C88.8555 22.1003 89.1335 22.5286 89.3066 23.0664C89.4798 23.5996 89.5664 24.2695 89.5664 25.0762C89.5664 25.8691 89.4798 26.5277 89.3066 27.0518C89.1335 27.5758 88.8555 27.9928 88.4727 28.3027C88.0898 28.6126 87.5931 28.8314 86.9824 28.959C86.3717 29.0866 85.6289 29.1504 84.7539 29.1504C84.1296 29.1504 83.6077 29.1162 83.1885 29.0479C82.7692 28.9795 82.4251 28.8952 82.1562 28.7949C81.8919 28.6901 81.6891 28.5785 81.5479 28.46C81.4111 28.3415 81.3132 28.2298 81.2539 28.125V31.625H79.9414V21.125H81.2539V21.8564C81.3132 21.7653 81.4111 21.665 81.5479 21.5557C81.6891 21.4417 81.8919 21.3369 82.1562 21.2412C82.4251 21.1455 82.7692 21.0658 83.1885 21.002C83.6077 20.9382 84.1296 20.9062 84.7539 20.9062ZM84.7539 22C84.3164 22 83.9268 22.0114 83.585 22.0342C83.2432 22.057 82.9424 22.1048 82.6826 22.1777C82.4229 22.2461 82.2018 22.3486 82.0195 22.4854C81.8418 22.6175 81.696 22.7975 81.582 23.0254C81.4681 23.2487 81.3838 23.5267 81.3291 23.8594C81.279 24.1921 81.2539 24.5908 81.2539 25.0557C81.2539 25.5251 81.279 25.9284 81.3291 26.2656C81.3838 26.6029 81.4681 26.8854 81.582 27.1133C81.696 27.3366 81.8418 27.5166 82.0195 27.6533C82.2018 27.7855 82.4229 27.888 82.6826 27.9609C82.9424 28.0293 83.2432 28.0749 83.585 28.0977C83.9268 28.1159 84.3164 28.125 84.7539 28.125C85.2643 28.125 85.7041 28.109 86.0732 28.0771C86.4469 28.0452 86.7637 27.9883 87.0234 27.9062C87.2832 27.8242 87.4928 27.7103 87.6523 27.5645C87.8164 27.4186 87.9417 27.234 88.0283 27.0107C88.1195 26.7829 88.1787 26.5117 88.2061 26.1973C88.238 25.8783 88.2539 25.5046 88.2539 25.0762C88.2539 24.6478 88.238 24.2741 88.2061 23.9551C88.1787 23.6361 88.1195 23.3626 88.0283 23.1348C87.9417 22.9069 87.8164 22.7201 87.6523 22.5742C87.4928 22.4284 87.2832 22.3122 87.0234 22.2256C86.7637 22.139 86.4469 22.0798 86.0732 22.0479C85.7041 22.016 85.2643 22 84.7539 22ZM98.7539 25.4111C99.2643 25.4111 99.6995 25.4202 100.06 25.4385C100.42 25.4521 100.72 25.4795 100.962 25.5205C101.208 25.557 101.402 25.6048 101.543 25.6641C101.684 25.7233 101.791 25.8122 101.864 25.9307C101.937 26.0446 101.983 26.1608 102.001 26.2793C102.024 26.3932 102.035 26.5254 102.035 26.6758C102.035 26.8398 102.024 26.9902 102.001 27.127C101.983 27.2591 101.935 27.3799 101.857 27.4893C101.78 27.5986 101.666 27.6921 101.516 27.7695C101.365 27.847 101.16 27.9131 100.9 27.9678C100.641 28.0225 100.317 28.0635 99.9297 28.0908C99.5469 28.1136 99.082 28.125 98.5352 28.125C97.9336 28.125 97.4346 28.109 97.0381 28.0771C96.6462 28.0407 96.334 27.9746 96.1016 27.8789C95.8691 27.7832 95.7051 27.651 95.6094 27.4824C95.5182 27.3092 95.4727 27.0859 95.4727 26.8125H94.1602C94.1602 27.2272 94.2331 27.5781 94.3789 27.8652C94.5293 28.1523 94.7754 28.387 95.1172 28.5693C95.459 28.7471 95.9079 28.877 96.4639 28.959C97.0244 29.041 97.7148 29.082 98.5352 29.082C99.1914 29.082 99.7656 29.0615 100.258 29.0205C100.755 28.984 101.181 28.9271 101.536 28.8496C101.892 28.7676 102.186 28.6628 102.418 28.5352C102.655 28.403 102.842 28.248 102.979 28.0703C103.115 27.888 103.211 27.6807 103.266 27.4482C103.32 27.2113 103.348 26.9447 103.348 26.6484C103.348 26.3522 103.32 26.0924 103.266 25.8691C103.211 25.6413 103.115 25.4453 102.979 25.2812C102.846 25.1126 102.669 24.9577 102.445 24.8164C102.222 24.6751 101.939 24.5703 101.598 24.502C101.256 24.4336 100.85 24.3857 100.381 24.3584C99.916 24.3311 99.3737 24.3174 98.7539 24.3174C98.2435 24.3174 97.8083 24.3174 97.4482 24.3174C97.0882 24.3128 96.7852 24.2992 96.5391 24.2764C96.2975 24.249 96.1061 24.2103 95.9648 24.1602C95.8236 24.11 95.7165 24.0371 95.6436 23.9414C95.5706 23.8457 95.5228 23.7249 95.5 23.5791C95.4818 23.4287 95.4727 23.276 95.4727 23.1211C95.4727 22.8568 95.5319 22.6494 95.6504 22.499C95.7689 22.3486 95.9648 22.237 96.2383 22.1641C96.5117 22.0911 96.8717 22.0456 97.3184 22.0273C97.765 22.0091 98.3164 22 98.9727 22C99.5742 22 100.071 22.0182 100.463 22.0547C100.859 22.0866 101.174 22.1481 101.406 22.2393C101.639 22.3258 101.8 22.4466 101.892 22.6016C101.987 22.7565 102.035 22.957 102.035 23.2031H103.348C103.348 22.8066 103.282 22.4648 103.149 22.1777C103.017 21.8906 102.785 21.6536 102.452 21.4668C102.124 21.2754 101.677 21.1341 101.112 21.043C100.552 20.9518 99.8385 20.9062 98.9727 20.9062C98.0977 20.9062 97.3548 20.945 96.7441 21.0225C96.1335 21.0999 95.6367 21.2275 95.2539 21.4053C94.8711 21.5785 94.5931 21.8063 94.4199 22.0889C94.2467 22.3669 94.1602 22.7109 94.1602 23.1211C94.1602 23.4219 94.1875 23.7021 94.2422 23.9619C94.2969 24.2171 94.3903 24.4336 94.5225 24.6113C94.6546 24.7845 94.8324 24.9235 95.0557 25.0283C95.2835 25.1331 95.5661 25.2152 95.9033 25.2744C96.2451 25.3291 96.6507 25.3656 97.1201 25.3838C97.5895 25.402 98.1341 25.4111 98.7539 25.4111ZM112.754 25.5C112.754 26.1699 112.699 26.7305 112.59 27.1816C112.48 27.6283 112.296 27.986 112.036 28.2549C111.781 28.5238 111.444 28.7152 111.024 28.8291C110.605 28.943 110.088 29 109.473 29C108.876 29 108.374 28.9544 107.969 28.8633C107.563 28.7721 107.235 28.6172 106.984 28.3984C106.734 28.1797 106.554 27.888 106.444 27.5234C106.335 27.1589 106.28 26.7031 106.28 26.1562V22.2051H104.66V21.125H106.28V18.9717H107.593V21.125H112.535V22.2051H107.593V26.1562C107.593 26.5938 107.625 26.931 107.688 27.168C107.757 27.4049 107.864 27.5781 108.01 27.6875C108.156 27.7969 108.347 27.8607 108.584 27.8789C108.826 27.8971 109.119 27.9062 109.466 27.9062C109.739 27.9062 109.983 27.9017 110.197 27.8926C110.416 27.8835 110.605 27.8561 110.765 27.8105C110.929 27.7604 111.068 27.6875 111.182 27.5918C111.296 27.4915 111.387 27.3525 111.455 27.1748C111.528 26.9971 111.58 26.7738 111.612 26.5049C111.644 26.2314 111.66 25.8965 111.66 25.5H112.754ZM113.848 25.0078C113.848 24.2012 113.934 23.5335 114.107 23.0049C114.281 22.4762 114.559 22.057 114.941 21.7471C115.324 21.4372 115.821 21.2207 116.432 21.0977C117.042 20.9701 117.785 20.9062 118.66 20.9062C119.535 20.9062 120.278 20.9701 120.889 21.0977C121.499 21.2207 121.996 21.4372 122.379 21.7471C122.762 22.057 123.04 22.4762 123.213 23.0049C123.386 23.5335 123.473 24.2012 123.473 25.0078C123.473 25.8145 123.386 26.4844 123.213 27.0176C123.04 27.5508 122.762 27.9746 122.379 28.2891C121.996 28.6035 121.499 28.8268 120.889 28.959C120.278 29.0866 119.535 29.1504 118.66 29.1504C117.785 29.1504 117.042 29.0866 116.432 28.959C115.821 28.8268 115.324 28.6035 114.941 28.2891C114.559 27.9746 114.281 27.5508 114.107 27.0176C113.934 26.4844 113.848 25.8145 113.848 25.0078ZM115.16 25.0078C115.16 25.4453 115.176 25.8258 115.208 26.1494C115.24 26.473 115.299 26.751 115.386 26.9834C115.477 27.2158 115.602 27.4049 115.762 27.5508C115.921 27.6966 116.131 27.8128 116.391 27.8994C116.65 27.986 116.965 28.0452 117.334 28.0771C117.708 28.109 118.15 28.125 118.66 28.125C119.098 28.125 119.487 28.1159 119.829 28.0977C120.175 28.0749 120.476 28.027 120.731 27.9541C120.991 27.8812 121.212 27.7786 121.395 27.6465C121.577 27.5098 121.723 27.3252 121.832 27.0928C121.946 26.8604 122.028 26.5755 122.078 26.2383C122.133 25.8965 122.16 25.4863 122.16 25.0078C122.16 24.5384 122.133 24.1396 122.078 23.8115C122.028 23.4788 121.946 23.2008 121.832 22.9775C121.723 22.7542 121.577 22.5788 121.395 22.4512C121.212 22.319 120.991 22.221 120.731 22.1572C120.476 22.0889 120.175 22.0456 119.829 22.0273C119.487 22.0091 119.098 22 118.66 22C118.223 22 117.831 22.0091 117.484 22.0273C117.143 22.0456 116.842 22.0889 116.582 22.1572C116.327 22.221 116.108 22.319 115.926 22.4512C115.743 22.5788 115.595 22.7542 115.481 22.9775C115.372 23.2008 115.29 23.4788 115.235 23.8115C115.185 24.1396 115.16 24.5384 115.16 25.0078ZM131.785 23.6885C131.785 23.3604 131.76 23.0892 131.71 22.875C131.664 22.6562 131.553 22.4831 131.375 22.3555C131.197 22.2233 130.933 22.1322 130.582 22.082C130.236 22.0273 129.762 22 129.16 22C128.572 22 128.094 22.0524 127.725 22.1572C127.355 22.2575 127.066 22.401 126.856 22.5879C126.647 22.7747 126.503 22.998 126.426 23.2578C126.353 23.5176 126.316 23.807 126.316 24.126V29H125.004V21.125H126.316V22.376C126.362 22.2347 126.446 22.0798 126.569 21.9111C126.692 21.738 126.879 21.5785 127.13 21.4326C127.381 21.2822 127.704 21.1569 128.101 21.0566C128.502 20.9564 129.001 20.9062 129.598 20.9062C130.281 20.9062 130.837 20.9678 131.266 21.0908C131.694 21.2093 132.027 21.387 132.264 21.624C132.505 21.8564 132.667 22.1458 132.749 22.4922C132.836 22.8385 132.879 23.2373 132.879 23.6885H131.785ZM138.348 29.1504C137.473 29.1504 136.73 29.0911 136.119 28.9727C135.508 28.8496 135.012 28.64 134.629 28.3438C134.246 28.0475 133.968 27.651 133.795 27.1543C133.622 26.6576 133.535 26.0332 133.535 25.2812C133.535 24.4199 133.622 23.709 133.795 23.1484C133.968 22.5833 134.246 22.1344 134.629 21.8018C135.012 21.4691 135.508 21.2367 136.119 21.1045C136.73 20.9723 137.473 20.9062 138.348 20.9062C138.972 20.9062 139.512 20.9518 139.968 21.043C140.428 21.1341 140.82 21.2663 141.144 21.4395C141.472 21.6126 141.736 21.8223 141.937 22.0684C142.142 22.3145 142.301 22.5742 142.415 22.8477C142.534 23.1165 142.613 23.4333 142.654 23.7979C142.7 24.1624 142.723 24.5475 142.723 24.9531L142.613 25.3906H134.848C134.848 25.9922 134.907 26.4867 135.025 26.874C135.144 27.2568 135.34 27.5371 135.613 27.7148C135.887 27.8926 136.247 28.0065 136.693 28.0566C137.14 28.1022 137.691 28.125 138.348 28.125C138.949 28.125 139.446 28.109 139.838 28.0771C140.234 28.0407 140.549 27.9746 140.781 27.8789C141.014 27.7832 141.175 27.651 141.267 27.4824C141.362 27.3092 141.41 27.0859 141.41 26.8125H142.723C142.723 27.2363 142.647 27.5986 142.497 27.8994C142.351 28.1956 142.107 28.4372 141.766 28.624C141.424 28.8063 140.973 28.9385 140.412 29.0205C139.856 29.1071 139.168 29.1504 138.348 29.1504ZM138.348 22C137.91 22 137.518 22.0091 137.172 22.0273C136.83 22.0456 136.529 22.0866 136.27 22.1504C136.014 22.2096 135.796 22.2985 135.613 22.417C135.431 22.5309 135.283 22.6676 135.169 22.8271C135.06 22.9821 134.978 23.2031 134.923 23.4902C134.873 23.7728 134.848 24.1146 134.848 24.5156H141.41C141.41 23.9824 141.353 23.5654 141.239 23.2646C141.125 22.9593 140.945 22.7087 140.699 22.5127C140.453 22.3167 140.136 22.1823 139.749 22.1094C139.362 22.0365 138.895 22 138.348 22Z" fill="#8B2AFF"/>
<path d="M41.3663 13.0006C41.9974 13.0014 42.6277 12.9983 43.2588 13.0014C43.2563 13.5969 43.258 14.1932 43.258 14.7887C42.9482 14.7903 42.6384 14.7911 42.3286 14.7887C42.3089 15.3969 42.3253 16.0059 42.3179 16.6149C41.6909 16.6205 41.064 16.6173 40.437 16.6165C40.4279 16.9258 40.4312 17.2351 40.4296 17.5444C39.7993 17.5499 39.1682 17.5451 38.538 17.5467C38.5306 16.9385 38.5339 16.3295 38.5363 15.7205C38.8445 15.7197 39.1534 15.7197 39.4624 15.7189C39.4681 15.4279 39.4714 15.1369 39.4582 14.846C39.7705 14.7386 40.1083 14.8134 40.4321 14.7831C40.4304 14.4874 40.4304 14.1908 40.4304 13.8943C40.7427 13.8951 41.0541 13.8951 41.3663 13.8943C41.3655 13.5961 41.3655 13.2988 41.3663 13.0006Z" fill="#8B2AFF"/>
<path d="M33.789 17.55C35.0495 17.5421 36.3092 17.546 37.5698 17.5476C37.5689 17.8458 37.5698 18.1439 37.5673 18.4421C38.8336 18.4564 40.0999 18.4445 41.3662 18.4484C41.3662 18.1479 41.3662 17.8474 41.3662 17.5476C42.6275 17.5468 43.8889 17.546 45.1502 17.5484C45.1486 17.8474 45.1494 18.1463 45.1486 18.446C45.7772 18.4508 46.4058 18.4468 47.0344 18.4484C47.0336 19.055 47.0377 19.6617 47.0328 20.2675C46.7213 20.2683 46.4099 20.2683 46.0985 20.2667C46.0903 20.576 46.1059 20.886 46.0713 21.1937C45.764 21.1882 45.4559 21.1882 45.1486 21.1913C45.151 22.7043 45.1469 24.2173 45.1502 25.7295C45.4649 25.7311 45.7788 25.7303 46.0936 25.7319C46.0944 26.0332 46.0936 26.3345 46.096 26.6358C46.4075 26.6342 46.7197 26.635 47.0319 26.6358C47.0369 26.9403 47.0352 27.2456 47.0352 27.5509C47.3566 27.5517 47.6787 27.547 48 27.5605C47.9984 27.7402 47.9967 27.9206 47.9934 28.1003C47.9778 28.218 47.9662 28.3357 47.9572 28.4541C47.6507 28.4533 47.3442 28.4541 47.0385 28.4541C47.0311 29.0623 47.041 29.6713 47.0319 30.2795C46.7205 30.2811 46.4099 30.2819 46.0993 30.2788C46.0911 30.5896 46.1067 30.9029 46.0664 31.2129C45.7607 31.2082 45.4542 31.2106 45.1486 31.2121C45.1502 31.5095 45.1494 31.8068 45.1502 32.1042C44.8371 32.1058 44.5241 32.105 44.2118 32.1058C44.2118 32.4015 44.2118 32.6973 44.2118 32.9938C43.2635 33.0066 42.3144 32.9962 41.3662 32.9994C41.3662 32.7013 41.3662 32.4031 41.3662 32.1058C40.0999 32.1074 38.8344 32.101 37.5689 32.109C37.5698 32.4055 37.5689 32.7029 37.5689 33.0002C36.6264 32.997 35.6839 33.001 34.7406 32.9986C34.7439 32.7013 34.743 32.4047 34.7439 32.1082C34.425 32.105 34.1062 32.1066 33.7882 32.1026C33.789 31.7925 33.7956 31.4833 33.7758 31.174C33.4669 31.178 33.1587 31.1764 32.8506 31.174C32.8506 30.875 32.8514 30.5777 32.849 30.2795C32.5342 30.2811 32.2203 30.2811 31.9056 30.2795C31.9056 29.9798 31.9064 29.6801 31.9031 29.3811C31.5925 29.3835 31.2819 29.3827 30.9705 29.3835C30.9565 28.4676 30.9722 27.5517 30.9623 26.6366C30.6418 26.635 30.3205 26.6398 30 26.6263C30.0033 24.8176 30.0025 23.0088 30.0008 21.2001C30.3205 21.1834 30.6418 21.1898 30.9615 21.189C30.9697 20.5815 30.9606 19.9733 30.9672 19.3651C31.2778 19.3651 31.5893 19.3643 31.8999 19.3667C31.9081 19.0606 31.9056 18.7545 31.9048 18.4484C32.5334 18.4476 33.162 18.4484 33.7898 18.4484C33.789 18.1487 33.7898 17.8498 33.789 17.55Z" fill="#8B2AFF"/>
</svg>
