<svg width="40" height="41" viewBox="0 0 40 41" fill="none" xmlns="http://www.w3.org/2000/svg">
<rect x="3.19952" y="0.00109863" width="33.6" height="1.6" fill="currentColor"/>
<rect x="3.19952" y="38.4016" width="33.6" height="1.6" fill="currentColor"/>
<rect x="1.60004" y="3.20117" width="33.6" height="1.6" transform="rotate(90 1.60004 3.20117)" fill="currentColor"/>
<rect x="39.9995" y="3.20117" width="33.6" height="1.6" transform="rotate(90 39.9995 3.20117)" fill="currentColor"/>
<rect x="1.60004" y="1.60065" width="1.6" height="1.6" fill="currentColor"/>
<rect x="1.60004" y="36.8011" width="1.6" height="1.6" fill="currentColor"/>
<rect x="36.7994" y="1.60065" width="1.6" height="1.6" fill="currentColor"/>
<rect x="36.7994" y="36.8011" width="1.6" height="1.6" fill="currentColor"/>
<path d="M19.0607 12.024C20.0676 11.9798 21.0768 12.0201 22.0848 12.0027C22.7923 12.0111 23.4998 11.9915 24.2067 12.0111C24.198 13.161 24.2256 14.312 24.1923 15.4613C23.1308 15.454 22.0693 15.4607 21.0078 15.4574C20.9998 15.1344 20.9986 14.8115 21.0084 14.4886C21.7618 14.469 22.5193 14.525 23.2705 14.4572C23.2624 13.9481 23.2739 13.4391 23.263 12.93C21.863 12.9132 20.463 12.9267 19.063 12.9233C19.0635 12.6234 19.0676 12.3234 19.0607 12.024Z" fill="currentColor"/>
<path d="M18.1082 12.8871C18.4249 12.8902 18.7422 12.8859 19.0594 12.889C19.0606 13.237 19.0654 13.585 19.0529 13.933C18.7357 13.9324 18.419 13.9324 18.1023 13.9318C18.0964 13.5838 18.0893 13.2351 18.1082 12.8871Z" fill="currentColor"/>
<path d="M17.1451 13.9348C17.4621 13.9314 17.7792 13.9337 18.0962 13.9326C18.0829 15.1746 18.098 16.416 18.0887 17.658C17.4402 17.6687 16.7911 17.6457 16.1431 17.6715C16.1437 18.1829 16.1471 18.6943 16.1414 19.2051C16.7899 19.2522 17.4402 19.2028 18.0899 19.2286C18.0997 21.3134 18.0777 24.9982 18.1008 27.0825C18.7425 27.0808 19.3835 27.0853 20.0251 27.0802C20.0436 24.9965 20.0263 21.3123 20.0338 19.2286C20.6627 19.2045 21.2916 19.2348 21.9205 19.2185C21.9222 18.6993 21.9245 18.1801 21.9188 17.6608C21.2904 17.658 20.6627 17.6625 20.0344 17.658C20.032 16.9392 20.032 16.2198 20.0344 15.5004C20.3514 15.4964 20.669 15.4987 20.9861 15.4976C20.9757 15.9114 20.9774 16.3252 20.9872 16.739C21.6317 16.7424 22.2762 16.7351 22.9207 16.7435C22.9236 17.8739 22.9225 19.0049 22.9213 20.1353C22.2774 20.1443 21.6341 20.1376 20.9901 20.1398C20.967 22.2241 20.9878 25.9089 20.9797 27.9931C19.7011 28.0054 18.4225 28.0037 17.1445 27.9942C17.1376 25.9105 17.1543 22.2269 17.1358 20.1432C16.4913 20.1348 15.8462 20.1432 15.2017 20.1381C15.1994 19.0055 15.1983 17.8734 15.2023 16.7412C15.848 16.7356 16.4936 16.7457 17.1387 16.7351C17.1503 15.802 17.1387 14.8684 17.1451 13.9348Z" fill="currentColor"/>
<rect x="17.5994" y="13.6016" width="3.2" height="13.6" fill="currentColor"/>
<rect x="15.6823" y="17.3917" width="7.15978" height="2.17207" fill="currentColor"/>
<rect x="19.0607" y="12.4842" width="5.14861" height="3.05699" fill="currentColor"/>
</svg>
