<svg width="32" height="30" viewBox="0 0 32 30" fill="none" xmlns="http://www.w3.org/2000/svg">
<path d="M26.6733 12.7854H25.7878V13.6879H26.6733V12.7854Z" fill="black"/>
<path d="M25.7879 13.6747H24.9024V14.5772H25.7879V13.6747Z" fill="black"/>
<path d="M25.3831 12.7983L24.9024 13.2753V13.6751H25.7879V12.7854H25.2693L25.3831 12.7983Z" fill="#F2E73E"/>
<path d="M24.9024 12.7203L25.2693 12.7848H25.7879V11.8822H24.9024V12.7203Z" fill="black"/>
<path d="M24.9024 14.5779H24.0168V15.4805H24.9024V14.5779Z" fill="black"/>
<path d="M24.0168 14.1517V14.5772H24.9024V13.6747H24.4976L24.0168 14.1517Z" fill="#F9BF1C"/>
<path d="M24.9022 13.6748V13.2751L24.4974 13.6748H24.9022Z" fill="#F2E73E"/>
<path d="M24.0168 12.5914L24.9024 12.7203V11.8822H24.0168V12.5914Z" fill="#F2E73E"/>
<path d="M24.9024 10.9805H24.0168V11.8831H24.9024V10.9805Z" fill="black"/>
<path d="M24.0296 24.4791H23.144V25.3817H24.0296V24.4791Z" fill="black"/>
<path d="M24.0296 23.5775H23.144V24.4801H24.0296V23.5775Z" fill="black"/>
<path d="M24.0296 22.6743H23.144V23.5768H24.0296V22.6743Z" fill="black"/>
<path d="M24.0296 15.4795H23.144V16.3821H24.0296V15.4795Z" fill="black"/>
<path d="M23.144 15.0292V15.4805H24.0169V14.5779H23.5994L23.144 15.0292Z" fill="#F9BF1C"/>
<path d="M24.0168 14.5774V14.1519L23.5993 14.5774H24.0168Z" fill="#F9BF1C"/>
<path d="M23.144 12.4625L24.0169 12.5914V11.8822H23.144V12.4625Z" fill="#F2E73E"/>
<path d="M24.0296 10.9805H23.144V11.8831H24.0296V10.9805Z" fill="black"/>
<path d="M23.1439 24.4791H22.2584V25.3817H23.1439V24.4791Z" fill="black"/>
<path d="M23.1439 23.5775H22.2584V24.4801H23.1439V23.5775Z" fill="#F2E73E"/>
<path d="M23.1439 22.6743H22.2584V23.5768H23.1439V22.6743Z" fill="#F2E73E"/>
<path d="M23.1439 21.7725H22.2584V22.6751H23.1439V21.7725Z" fill="black"/>
<path d="M23.1439 20.8818H22.2584V21.7844H23.1439V20.8818Z" fill="black"/>
<path d="M22.2584 15.905V16.3821H23.1439V15.4795H22.6885L22.2584 15.905Z" fill="black"/>
<path d="M23.1439 15.48V15.0287L22.6885 15.48H23.1439Z" fill="#F9BF1C"/>
<path d="M22.2584 12.3335L23.1439 12.4625V11.8822H22.2584V12.3335Z" fill="#F2E73E"/>
<path d="M23.1439 10.9805H22.2584V11.8831H23.1439V10.9805Z" fill="black"/>
<path d="M21.6638 24.4791H21.6512H21.3729V25.3817H22.2584V24.4791H21.6638Z" fill="black"/>
<path d="M21.512 23.5775L21.6638 24.4801H22.2583V23.5775H21.512Z" fill="#F9BF1C"/>
<path d="M21.3729 24.4799H21.6512L21.3729 24.3252V24.4799Z" fill="#F9BF1C"/>
<path d="M21.3729 22.6743V22.7645L21.512 23.5768H22.2584V22.6743H21.3729Z" fill="#F2E73E"/>
<path d="M22.2584 21.7725H21.3729V22.6751H22.2584V21.7725Z" fill="#F2E73E"/>
<path d="M22.2584 20.8818H21.3729V21.7844H22.2584V20.8818Z" fill="#F2E73E"/>
<path d="M22.2584 19.9801H21.3729V20.8827H22.2584V19.9801Z" fill="black"/>
<path d="M22.2584 19.0768H21.3729V19.9794H22.2584V19.0768Z" fill="black"/>
<path d="M21.3729 16.7825V17.2725H22.2584V16.3828H21.7777L21.3729 16.7825Z" fill="black"/>
<path d="M22.2584 16.3825V15.9054L21.7777 16.3825H22.2584Z" fill="#F9BF1C"/>
<path d="M21.3729 12.2046L22.2584 12.3335V11.8822H21.3729V12.2046Z" fill="#F2E73E"/>
<path d="M22.2584 10.9805H21.3729V11.8831H22.2584V10.9805Z" fill="black"/>
<path d="M20.4875 23.848V24.4798H21.373V24.3251L20.4875 23.848Z" fill="black"/>
<path d="M21.3603 22.6743L21.3729 22.7645V22.6743H21.3603Z" fill="#F9BF1C"/>
<path d="M21.2084 21.7725L21.3602 22.6751H21.3729V21.7725H21.2084Z" fill="#F2E73E"/>
<path d="M21.0566 20.8818L21.2084 21.7715H21.3728V20.8818H21.0566Z" fill="#F2E73E"/>
<path d="M21.0565 20.8827H21.3728V19.9801H20.9047L21.0565 20.8827Z" fill="#F2E73E"/>
<path d="M20.9049 19.9794H21.373V19.0768H20.7531L20.9049 19.9794Z" fill="#F2E73E"/>
<path d="M20.753 19.0778H21.3729V18.1752H20.6012L20.753 19.0778Z" fill="black"/>
<path d="M20.5128 17.6459L20.6013 18.1745H21.373V17.2719H20.8796L20.5128 17.6459Z" fill="black"/>
<path d="M21.3729 17.2723V16.7823L20.8795 17.2723H21.3729Z" fill="#F9BF1C"/>
<path d="M20.4875 12.0756L21.373 12.2046V11.8822H20.4875V12.0756Z" fill="#F2E73E"/>
<path d="M21.373 10.9805H20.4875V11.8831H21.373V10.9805Z" fill="black"/>
<path d="M19.9688 23.5775H19.6019V24.4801H20.4874V23.8483L19.9688 23.5775Z" fill="black"/>
<path d="M19.6019 23.5781H19.9688L19.6019 23.3847V23.5781Z" fill="#F9BF1C"/>
<path d="M19.6019 11.9467L20.4874 12.0756V11.8822H19.6019V11.9467Z" fill="#F2E73E"/>
<path d="M20.4874 10.9805H19.6019V11.8831H20.4874V10.9805Z" fill="black"/>
<path d="M18.7291 22.9073V23.5778H19.6019V23.3844L18.7291 22.9073Z" fill="black"/>
<path d="M19.1971 11.8822L19.6019 11.9467V11.8822H19.1971Z" fill="#F2E73E"/>
<path d="M18.7291 11.8057L19.1971 11.8831H19.6019V10.9805H18.7291V11.8057Z" fill="black"/>
<path d="M19.6146 10.0772H18.7291V10.9798H19.6146V10.0772Z" fill="black"/>
<path d="M18.2989 22.6743H17.8435V23.5768H18.729V22.9063L18.2989 22.6743Z" fill="black"/>
<path d="M17.8435 22.6736H18.2989L17.8435 22.4286V22.6736Z" fill="#F9BF1C"/>
<path d="M18.7289 11.8057V10.9805H18.2482L18.653 11.8057H18.7289Z" fill="#F2E73E"/>
<path d="M18.2483 10.9798H18.729V10.0772H17.8435V10.1288L18.2483 10.9798Z" fill="#F2E73E"/>
<path d="M18.729 9.17413H17.8435V10.0767H18.729V9.17413Z" fill="black"/>
<path d="M18.729 8.28479H17.8435V9.18737H18.729V8.28479Z" fill="black"/>
<path d="M16.958 21.9653V22.6745H17.8435V22.4295L16.958 21.9653Z" fill="black"/>
<path d="M17.8182 10.0772L17.8435 10.1278V10.0772H17.8182Z" fill="#F2E73E"/>
<path d="M17.8435 10.0767V9.17413H17.3754L17.8182 10.0767H17.8435Z" fill="#F2E73E"/>
<path d="M17.3755 9.17448H17.8435V8.28479H16.958V8.31058L17.3755 9.17448Z" fill="#F2E73E"/>
<path d="M17.8435 7.38165H16.958V8.28423H17.8435V7.38165Z" fill="black"/>
<path d="M17.8435 6.47992H16.958V7.3825H17.8435V6.47992Z" fill="black"/>
<path d="M16.6166 21.7725H16.0726V22.6751H16.9581V21.9659L16.6166 21.7725Z" fill="black"/>
<path d="M16.0726 21.7718H16.6166L16.0726 21.4881V21.7718Z" fill="#F9BF1C"/>
<path d="M16.9454 8.28479L16.9581 8.31009V8.28479H16.9454Z" fill="#F2E73E"/>
<path d="M16.958 8.28423V7.38165H16.5026L16.9454 8.28423H16.958Z" fill="#F2E73E"/>
<path d="M16.5027 7.3825H16.9581V6.47992H16.0726V6.49281L16.5027 7.3825Z" fill="#F2E73E"/>
<path d="M16.9581 5.57669H16.0726V6.47927H16.9581V5.57669Z" fill="black"/>
<path d="M15.6298 21.2564L15.1996 21.4885V21.7722H16.0725V21.4885L15.6298 21.2564Z" fill="black"/>
<path d="M15.1996 6.47927L15.6298 5.57669H15.1996V6.47927Z" fill="#F9BF1C"/>
<path d="M16.0724 6.47927V5.57669H15.6423L16.0724 6.47927Z" fill="#F9BF1C"/>
<path d="M15.1996 4.6875V5.57719H15.6298H15.6424H16.0725V4.6875H15.1996Z" fill="black"/>
<path d="M14.6557 21.7725L14.3141 21.9659V22.6751H15.1997V21.7725H14.6557Z" fill="black"/>
<path d="M14.6558 21.7718H15.1998V21.4881L14.6558 21.7718Z" fill="#F9BF1C"/>
<path d="M14.3141 8.28479V8.31009L14.3268 8.28479H14.3141Z" fill="#F9BF1C"/>
<path d="M14.3268 8.28423L14.7569 7.38165H14.3141V8.28423H14.3268Z" fill="#F9BF1C"/>
<path d="M14.7569 7.3825L15.1997 6.49281V6.47992H14.3141V7.3825H14.7569Z" fill="#F9BF1C"/>
<path d="M15.1997 5.57669H14.3141V6.47927H15.1997V5.57669Z" fill="black"/>
<path d="M13.4286 22.4295V22.6745H14.3141V21.9653L13.4286 22.4295Z" fill="black"/>
<path d="M13.4286 10.0772V10.1278L13.4539 10.0772H13.4286Z" fill="#F9BF1C"/>
<path d="M13.4539 10.0767L13.8966 9.17413H13.4286V10.0767H13.4539Z" fill="#F9BF1C"/>
<path d="M13.8966 9.17448L14.3141 8.31058V8.28479H13.4286V9.17448H13.8966Z" fill="#F9BF1C"/>
<path d="M14.3141 7.38165H13.4286V8.28423H14.3141V7.38165Z" fill="black"/>
<path d="M14.3141 6.47992H13.4286V7.3825H14.3141V6.47992Z" fill="black"/>
<path d="M12.9732 22.6743L12.5431 22.9063V23.5768H13.4286V22.6743H12.9732Z" fill="black"/>
<path d="M12.9733 22.6736H13.4287V22.4286L12.9733 22.6736Z" fill="#F9BF1C"/>
<path d="M12.619 11.8057L13.0238 10.9805H12.5431V11.8057H12.619Z" fill="#F9BF1C"/>
<path d="M13.0238 10.9798L13.4286 10.1288V10.0772H12.5431V10.9798H13.0238Z" fill="#F9BF1C"/>
<path d="M13.4286 9.17413H12.5431V10.0767H13.4286V9.17413Z" fill="black"/>
<path d="M13.4286 8.28479H12.5431V9.18737H13.4286V8.28479Z" fill="black"/>
<path d="M11.6577 23.3844V23.5778H12.5432V22.9073L11.6577 23.3844Z" fill="black"/>
<path d="M11.6577 11.8822V11.9467L12.0751 11.8822H11.6577Z" fill="#F2E73E"/>
<path d="M12.5432 11.8057V10.9805H11.6577V11.8831H12.0751L12.5432 11.8057Z" fill="black"/>
<path d="M12.5432 10.0772H11.6577V10.9798H12.5432V10.0772Z" fill="black"/>
<path d="M11.2907 23.5775L10.7847 23.8483V24.4801H11.6576V23.5775H11.2907Z" fill="black"/>
<path d="M11.2908 23.5781H11.6577V23.3847L11.2908 23.5781Z" fill="#F9BF1C"/>
<path d="M11.6576 11.8822H10.7847V12.0756L11.6576 11.9467V11.8822Z" fill="#F2E73E"/>
<path d="M11.6702 10.9805H10.7847V11.8831H11.6702V10.9805Z" fill="black"/>
<path d="M9.89929 24.3251V24.4798H10.7848V23.848L9.89929 24.3251Z" fill="black"/>
<path d="M9.89929 22.6743V22.7645L9.91194 22.6743H9.89929Z" fill="#F9BF1C"/>
<path d="M9.89929 21.7725V22.6751H9.91194L10.0637 21.7725H9.89929Z" fill="#F9BF1C"/>
<path d="M9.89929 20.8818V21.7715H10.0637L10.2155 20.8818H9.89929Z" fill="#F9BF1C"/>
<path d="M9.89929 19.9801V20.8827H10.2155L10.3673 19.9801H9.89929Z" fill="#F9BF1C"/>
<path d="M10.5191 19.0768H9.89929V19.9794H10.3673L10.5191 19.0768Z" fill="#F9BF1C"/>
<path d="M10.671 18.1752H9.89929V19.0778H10.5191L10.671 18.1752Z" fill="black"/>
<path d="M10.7595 17.6459L10.3926 17.2719H9.89929V18.1745H10.671L10.7595 17.6459Z" fill="black"/>
<path d="M9.89929 16.7823V17.2723H10.3926L9.89929 16.7823Z" fill="#F9BF1C"/>
<path d="M10.7848 11.8822H9.89929V12.2046L10.7848 12.0756V11.8822Z" fill="#F2E73E"/>
<path d="M10.7848 10.9805H9.89929V11.8831H10.7848V10.9805Z" fill="black"/>
<path d="M9.62094 24.4791H9.60829H9.01373V25.3817H9.89924V24.4791H9.62094Z" fill="black"/>
<path d="M9.01373 23.5775V24.4801H9.60829L9.76009 23.5775H9.01373Z" fill="#F9BF1C"/>
<path d="M9.62091 24.4799H9.89921V24.3252L9.62091 24.4799Z" fill="#F9BF1C"/>
<path d="M9.89924 22.6743H9.01373V23.5768H9.76009L9.89924 22.7645V22.6743Z" fill="#F9BF1C"/>
<path d="M9.89924 21.7725H9.01373V22.6751H9.89924V21.7725Z" fill="#F9BF1C"/>
<path d="M9.89924 20.8818H9.01373V21.7844H9.89924V20.8818Z" fill="#F9BF1C"/>
<path d="M9.89924 19.9801H9.01373V20.8827H9.89924V19.9801Z" fill="black"/>
<path d="M9.89924 19.0768H9.01373V19.9794H9.89924V19.0768Z" fill="black"/>
<path d="M9.89924 16.7825L9.48179 16.3828H9.01373V17.2725H9.89924V16.7825Z" fill="black"/>
<path d="M9.01373 15.9054V16.3825H9.48179L9.01373 15.9054Z" fill="#F9BF1C"/>
<path d="M9.89924 11.8822H9.01373V12.3335L9.89924 12.2046V11.8822Z" fill="#F2E73E"/>
<path d="M9.89924 10.9805H9.01373V11.8831H9.89924V10.9805Z" fill="black"/>
<path d="M9.01362 24.4791H8.12811V25.3817H9.01362V24.4791Z" fill="black"/>
<path d="M9.01362 23.5775H8.12811V24.4801H9.01362V23.5775Z" fill="#F9BF1C"/>
<path d="M9.01362 22.6743H8.12811V23.5768H9.01362V22.6743Z" fill="#F9BF1C"/>
<path d="M9.01362 21.7725H8.12811V22.6751H9.01362V21.7725Z" fill="black"/>
<path d="M9.01362 20.8818H8.12811V21.7844H9.01362V20.8818Z" fill="black"/>
<path d="M9.01362 15.905L8.58352 15.4795H8.12811V16.3821H9.01362V15.905Z" fill="black"/>
<path d="M8.12811 15.0287V15.48H8.58352L8.12811 15.0287Z" fill="#F9BF1C"/>
<path d="M9.01362 11.8822H8.12811V12.4625L9.01362 12.3335V11.8822Z" fill="#F2E73E"/>
<path d="M9.01362 10.9805H8.12811V11.8831H9.01362V10.9805Z" fill="black"/>
<path d="M8.12825 24.4791H7.24274V25.3817H8.12825V24.4791Z" fill="black"/>
<path d="M8.12825 23.5775H7.24274V24.4801H8.12825V23.5775Z" fill="black"/>
<path d="M8.12825 22.6743H7.24274V23.5768H8.12825V22.6743Z" fill="black"/>
<path d="M8.12825 15.4795H7.24274V16.3821H8.12825V15.4795Z" fill="black"/>
<path d="M8.12825 15.0292L7.67284 14.5779H7.24274V15.4805H8.12825V15.0292Z" fill="#F9BF1C"/>
<path d="M7.24274 14.1519V14.5774H7.67284L7.24274 14.1519Z" fill="#F9BF1C"/>
<path d="M8.12825 11.8822H7.24274V12.5914L8.12825 12.4625V11.8822Z" fill="#F2E73E"/>
<path d="M8.12825 10.9805H7.24274V11.8831H8.12825V10.9805Z" fill="black"/>
<path d="M7.25538 14.5779H6.36987V15.4805H7.25538V14.5779Z" fill="black"/>
<path d="M7.24273 14.1517L6.77468 13.6747H6.36987V14.5772H7.24273V14.1517Z" fill="#F9BF1C"/>
<path d="M6.36987 13.2751V13.6748H6.77468L6.36987 13.2751Z" fill="#F9BF1C"/>
<path d="M7.24273 11.8822H6.36987V12.7203L7.24273 12.5914V11.8822Z" fill="#F9BF1C"/>
<path d="M7.25538 10.9805H6.36987V11.8831H7.25538V10.9805Z" fill="black"/>
<path d="M6.36988 13.6747H5.48438V14.5772H6.36988V13.6747Z" fill="black"/>
<path d="M6.36988 13.2753L5.88918 12.7983L6.00303 12.7854H5.48438V13.6751H6.36988V13.2753Z" fill="#F9BF1C"/>
<path d="M6.36988 12.7203V11.8822H5.48438V12.7848H6.00303L6.36988 12.7203Z" fill="black"/>
<path d="M5.48433 12.7854H4.59882V13.6879H5.48433V12.7854Z" fill="black"/>
<path d="M24.9024 13.2753L25.3831 12.7983L25.2693 12.7854H24.9024V13.2753Z" fill="#F2E73E"/>
<path d="M24.9024 12.7861H25.2693L24.9024 12.7216V12.7861Z" fill="black"/>
<path d="M24.4976 13.6747H24.0168V14.1517L24.4976 13.6747Z" fill="#F9BF1C"/>
<path d="M24.0168 12.7854V13.6751H24.4976L24.9024 13.2753V12.7854H24.0168Z" fill="#F2E73E"/>
<path d="M24.0168 12.7861H24.9024V12.7216L24.0168 12.5927V12.7861Z" fill="#F2E73E"/>
<path d="M23.5994 14.5779H23.144V15.0292L23.5994 14.5779Z" fill="#F9BF1C"/>
<path d="M23.144 14.5772H23.5994L24.0169 14.1517V13.6747H23.144V14.5772Z" fill="#F9BF1C"/>
<path d="M24.0296 12.7854H23.144V13.6879H24.0296V12.7854Z" fill="#F2E73E"/>
<path d="M23.144 12.7844H24.0169V12.591L23.144 12.462V12.7844Z" fill="#F2E73E"/>
<path d="M22.6885 15.4795H22.2584V15.905L22.6885 15.4795Z" fill="black"/>
<path d="M22.2584 15.4805H22.6885L23.1439 15.0292V14.5779H22.2584V15.4805Z" fill="#F9BF1C"/>
<path d="M23.1439 13.6747H22.2584V14.5772H23.1439V13.6747Z" fill="#F9BF1C"/>
<path d="M23.1439 12.7854H22.2584V13.6879H23.1439V12.7854Z" fill="#F2E73E"/>
<path d="M22.2584 12.7844H23.1439V12.4621L22.2584 12.3331V12.7844Z" fill="#F2E73E"/>
<path d="M21.3729 23.5775V24.3254L21.6512 24.4801H21.6638L21.512 23.5775H21.3729Z" fill="#F9BF1C"/>
<path d="M21.3729 23.5768H21.512L21.3729 22.7644V23.5768Z" fill="#F2E73E"/>
<path d="M21.7777 16.3828H21.3729V16.7825L21.7777 16.3828Z" fill="black"/>
<path d="M21.3729 16.3821H21.7777L22.2584 15.905V15.4795H21.3729V16.3821Z" fill="#F9BF1C"/>
<path d="M22.2584 14.5779H21.3729V15.4805H22.2584V14.5779Z" fill="#F9BF1C"/>
<path d="M22.2584 13.6747H21.3729V14.5772H22.2584V13.6747Z" fill="#F2E73E"/>
<path d="M22.2584 12.7854H21.3729V13.6879H22.2584V12.7854Z" fill="#F2E73E"/>
<path d="M21.3729 12.7842H22.2584V12.3329L21.3729 12.204V12.7842Z" fill="#F2E73E"/>
<path d="M20.4875 23.8483L21.373 24.3254V23.5775H20.4875V23.8483Z" fill="black"/>
<path d="M21.3603 22.6743H20.4875V23.5768H21.373V22.7645L21.3603 22.6743Z" fill="#F9BF1C"/>
<path d="M20.4875 21.7725V22.6751H21.3603L21.2085 21.7725H20.4875Z" fill="#F2E73E"/>
<path d="M20.4875 20.8818V21.7715H21.2085L21.0567 20.8818H20.4875Z" fill="#F2E73E"/>
<path d="M20.4875 19.9801V20.8827H21.0567L20.9049 19.9801H20.4875Z" fill="#F2E73E"/>
<path d="M20.4875 19.9794H20.9049L20.7531 19.0768H20.4875V19.9794Z" fill="#F2E73E"/>
<path d="M20.4875 19.0778H20.7531L20.6013 18.1752H20.4875V19.0778Z" fill="black"/>
<path d="M20.6013 18.1745L20.5128 17.6459L20.8796 17.2719H20.4875V18.1745H20.6013Z" fill="black"/>
<path d="M20.4875 17.2725H20.8796L21.373 16.7825V16.3828H20.4875V17.2725Z" fill="#F9BF1C"/>
<path d="M21.373 15.4795H20.4875V16.3821H21.373V15.4795Z" fill="#F2E73E"/>
<path d="M21.373 14.5779H20.4875V15.4805H21.373V14.5779Z" fill="#F2E73E"/>
<path d="M21.373 13.6747H20.4875V14.5772H21.373V13.6747Z" fill="#F2E73E"/>
<path d="M21.373 12.7854H20.4875V13.6879H21.373V12.7854Z" fill="#F2E73E"/>
<path d="M20.4875 12.7841H21.373V12.2038L20.4875 12.0749V12.7841Z" fill="#F2E73E"/>
<path d="M19.9688 23.5775L20.4874 23.8483V23.5775H19.9688Z" fill="black"/>
<path d="M20.4874 22.6743H19.6019V23.3834L19.9688 23.5768H20.4874V22.6743Z" fill="#F9BF1C"/>
<path d="M20.4874 21.7725H19.6019V22.6751H20.4874V21.7725Z" fill="#F2E73E"/>
<path d="M20.4874 20.8818H19.6019V21.7844H20.4874V20.8818Z" fill="#F2E73E"/>
<path d="M20.4874 19.9801H19.6019V20.8827H20.4874V19.9801Z" fill="#F2E73E"/>
<path d="M20.4874 19.0768H19.6019V19.9794H20.4874V19.0768Z" fill="#F2E73E"/>
<path d="M20.4874 18.1752H19.6019V19.0778H20.4874V18.1752Z" fill="#F2E73E"/>
<path d="M20.4874 17.2719H19.6019V18.1745H20.4874V17.2719Z" fill="#F9BF1C"/>
<path d="M20.4874 16.3828H19.6019V17.2854H20.4874V16.3828Z" fill="#F9BF1C"/>
<path d="M20.4874 15.4795H19.6019V16.3821H20.4874V15.4795Z" fill="#F2E73E"/>
<path d="M20.4874 14.5779H19.6019V15.4805H20.4874V14.5779Z" fill="#F2E73E"/>
<path d="M20.4874 13.6747H19.6019V14.5772H20.4874V13.6747Z" fill="#F2E73E"/>
<path d="M20.4609 13.0948H17.923V13.7416H20.4609V13.0948Z" fill="#F2E73E"/>
<path d="M19.6019 12.7841H20.4874V12.0749L19.6019 11.946V12.7841Z" fill="#F2E73E"/>
<path d="M18.7291 22.9063L19.6019 23.3834V22.6743H18.7291V22.9063Z" fill="black"/>
<path d="M19.6146 21.7725H18.7291V22.6751H19.6146V21.7725Z" fill="#F9BF1C"/>
<path d="M19.6146 20.8818H18.7291V21.7844H19.6146V20.8818Z" fill="#F2E73E"/>
<path d="M19.6146 19.9801H18.7291V20.8827H19.6146V19.9801Z" fill="#F2E73E"/>
<path d="M19.6146 19.0768H18.7291V19.9794H19.6146V19.0768Z" fill="#F2E73E"/>
<path d="M19.6146 18.1752H18.7291V19.0778H19.6146V18.1752Z" fill="#F2E73E"/>
<path d="M19.6146 17.2719H18.7291V18.1745H19.6146V17.2719Z" fill="#F2E73E"/>
<path d="M19.6146 16.3828H18.7291V17.2854H19.6146V16.3828Z" fill="#F2E73E"/>
<path d="M19.6146 15.4795H18.7291V16.3821H19.6146V15.4795Z" fill="#F2E73E"/>
<path d="M19.6146 14.5779H18.7291V15.4805H19.6146V14.5779Z" fill="#F2E73E"/>
<path d="M19.6146 13.6747H18.7291V14.5772H19.6146V13.6747Z" fill="#F2E73E"/>
<path d="M17.923 11.8014V13.0948H20.4609V11.8937L19.2839 11.8014H17.923Z" fill="#F2E73E"/>
<path d="M18.7291 11.8818H19.1971L18.7291 11.8044V11.8818Z" fill="black"/>
<path d="M18.2988 22.6743L18.7289 22.9063V22.6743H18.2988Z" fill="black"/>
<path d="M18.729 21.7725H17.8435V22.4301L18.2989 22.6751H18.729V21.7725Z" fill="#F9BF1C"/>
<path d="M18.729 20.8818H17.8435V21.7844H18.729V20.8818Z" fill="#F2E73E"/>
<path d="M18.729 19.9801H17.8435V20.8827H18.729V19.9801Z" fill="#F2E73E"/>
<path d="M18.729 19.0768H17.8435V19.9794H18.729V19.0768Z" fill="#F2E73E"/>
<path d="M18.729 18.1752H17.8435V19.0778H18.729V18.1752Z" fill="#F2E73E"/>
<path d="M18.729 17.2719H17.8435V18.1745H18.729V17.2719Z" fill="#F2E73E"/>
<path d="M18.729 16.3828H17.8435V17.2854H18.729V16.3828Z" fill="#F2E73E"/>
<path d="M18.729 15.4795H17.8435V16.3821H18.729V15.4795Z" fill="#F2E73E"/>
<path d="M18.729 14.5779H17.8435V15.4805H18.729V14.5779Z" fill="#F2E73E"/>
<path d="M18.729 13.6747H17.8435V14.5772H18.729V13.6747Z" fill="#F2E73E"/>
<path d="M18.729 11.8831V11.8057H18.6531L18.2483 10.9805H17.8435V11.8831H18.729Z" fill="#F2E73E"/>
<path d="M17.8435 10.1285V10.9795H18.2483L17.8435 10.1285Z" fill="#F2E73E"/>
<path d="M16.958 21.9659L17.8435 22.4301V21.7725H16.958V21.9659Z" fill="black"/>
<path d="M17.8435 20.8818H16.958V21.7844H17.8435V20.8818Z" fill="#F9BF1C"/>
<path d="M17.8435 19.9801H16.958V20.8827H17.8435V19.9801Z" fill="#F2E73E"/>
<path d="M17.8435 19.0768H16.958V19.9794H17.8435V19.0768Z" fill="#F2E73E"/>
<path d="M17.8435 18.1752H16.958V19.0778H17.8435V18.1752Z" fill="#F2E73E"/>
<path d="M17.8435 17.2719H16.958V18.1745H17.8435V17.2719Z" fill="#F2E73E"/>
<path d="M17.8435 16.3828H16.958V17.2854H17.8435V16.3828Z" fill="#F2E73E"/>
<path d="M17.8435 15.4795H16.958V16.3821H17.8435V15.4795Z" fill="#F2E73E"/>
<path d="M17.8435 14.5779H16.958V15.4805H17.8435V14.5779Z" fill="#F2E73E"/>
<path d="M17.8435 13.6747H16.958V14.5772H17.8435V13.6747Z" fill="#F2E73E"/>
<path d="M17.8435 12.7854H16.958V13.6879H17.8435V12.7854Z" fill="#F2E73E"/>
<path d="M17.8435 10.9805H16.958V11.8831H17.8435V10.9805Z" fill="#F2E73E"/>
<path d="M17.8435 10.9798V10.1288L17.8182 10.0772H16.958V10.9798H17.8435Z" fill="#F2E73E"/>
<path d="M17.8182 10.0767L17.3755 9.17413H16.958V10.0767H17.8182Z" fill="#F2E73E"/>
<path d="M16.958 8.30978V9.17368H17.3755L16.958 8.30978Z" fill="#F2E73E"/>
<path d="M16.6165 21.7725L16.958 21.9659V21.7725H16.6165Z" fill="black"/>
<path d="M16.9581 20.8818H16.0726V21.4879L16.6166 21.7715H16.9581V20.8818Z" fill="#F9BF1C"/>
<path d="M16.9581 19.9801H16.0726V20.8827H16.9581V19.9801Z" fill="#F2E73E"/>
<path d="M16.9581 19.0768H16.0726V19.9794H16.9581V19.0768Z" fill="#F2E73E"/>
<path d="M16.9581 18.1752H16.0726V19.0778H16.9581V18.1752Z" fill="#F2E73E"/>
<path d="M16.9581 17.2719H16.0726V18.1745H16.9581V17.2719Z" fill="#F2E73E"/>
<path d="M16.9581 16.3828H16.0726V17.2854H16.9581V16.3828Z" fill="#F2E73E"/>
<path d="M16.9581 15.4795H16.0726V16.3821H16.9581V15.4795Z" fill="#F2E73E"/>
<path d="M16.9581 14.5779H16.0726V15.4805H16.9581V14.5779Z" fill="#F2E73E"/>
<path d="M16.9581 13.6747H16.0726V14.5772H16.9581V13.6747Z" fill="#F2E73E"/>
<path d="M18.5575 9.86115H16.0195V13.7414H18.5575V9.86115Z" fill="#F2E73E"/>
<path d="M16.9581 9.17413H16.0726V10.0767H16.9581V9.17413Z" fill="#F2E73E"/>
<path d="M16.9581 9.17448V8.31058L16.9455 8.28479H16.0726V9.17448H16.9581Z" fill="#F2E73E"/>
<path d="M16.9455 8.28423L16.5027 7.38165H16.0726V8.28423H16.9455Z" fill="#F2E73E"/>
<path d="M16.0726 6.49237V7.38206H16.5027L16.0726 6.49237Z" fill="#F2E73E"/>
<path d="M15.1996 21.4879L15.6298 21.2558L16.0725 21.4879V20.8818H15.1996V21.4879Z" fill="black"/>
<path d="M16.0852 19.9801H15.1996V20.8827H16.0852V19.9801Z" fill="#F2E73E"/>
<path d="M16.0852 19.0768H15.1996V19.9794H16.0852V19.0768Z" fill="#F2E73E"/>
<path d="M16.0852 18.1752H15.1996V19.0778H16.0852V18.1752Z" fill="#F2E73E"/>
<path d="M16.0852 17.2719H15.1996V18.1745H16.0852V17.2719Z" fill="#F2E73E"/>
<path d="M16.0852 16.3828H15.1996V17.2854H16.0852V16.3828Z" fill="#F2E73E"/>
<path d="M16.0852 15.4795H15.1996V16.3821H16.0852V15.4795Z" fill="#F2E73E"/>
<path d="M16.0852 14.5779H15.1996V15.4805H16.0852V14.5779Z" fill="#F2E73E"/>
<path d="M16.0852 13.6747H15.1996V14.5772H16.0852V13.6747Z" fill="#F2E73E"/>
<path d="M16.0852 12.7854H15.1996V13.6879H16.0852V12.7854Z" fill="#F2E73E"/>
<path d="M16.0852 11.8822H15.1996V12.7848H16.0852V11.8822Z" fill="#F2E73E"/>
<path d="M16.0852 10.9805H15.1996V11.8831H16.0852V10.9805Z" fill="#F2E73E"/>
<path d="M16.0852 10.0772H15.1996V10.9798H16.0852V10.0772Z" fill="#F2E73E"/>
<path d="M16.0852 9.17413H15.1996V10.0767H16.0852V9.17413Z" fill="#F2E73E"/>
<path d="M16.0852 8.28479H15.1996V9.18737H16.0852V8.28479Z" fill="#F2E73E"/>
<path d="M16.0852 7.38165H15.1996V8.28423H16.0852V7.38165Z" fill="#F2E73E"/>
<path d="M15.1996 7.3825H16.0725V6.49281V6.47992H15.1996V6.49281V7.3825Z" fill="#F9BF1C"/>
<path d="M16.0725 6.47927L15.6424 5.57669H15.6298L15.1996 6.47927H16.0725Z" fill="#F9BF1C"/>
<path d="M14.3141 21.9659L14.6557 21.7725H14.3141V21.9659Z" fill="black"/>
<path d="M15.1997 20.8818H14.3141V21.7715H14.6557L15.1997 21.4879V20.8818Z" fill="#F9BF1C"/>
<path d="M15.1997 19.9801H14.3141V20.8827H15.1997V19.9801Z" fill="#F2E73E"/>
<path d="M15.1997 19.0768H14.3141V19.9794H15.1997V19.0768Z" fill="#F2E73E"/>
<path d="M15.1997 18.1752H14.3141V19.0778H15.1997V18.1752Z" fill="#F2E73E"/>
<path d="M15.1997 17.2719H14.3141V18.1745H15.1997V17.2719Z" fill="#F2E73E"/>
<path d="M15.1997 16.3828H14.3141V17.2854H15.1997V16.3828Z" fill="#F2E73E"/>
<path d="M15.1997 15.4795H14.3141V16.3821H15.1997V15.4795Z" fill="#F2E73E"/>
<path d="M15.1997 14.5779H14.3141V15.4805H15.1997V14.5779Z" fill="#F2E73E"/>
<path d="M15.1997 13.6747H14.3141V14.5772H15.1997V13.6747Z" fill="#F2E73E"/>
<path d="M15.1997 12.7854H14.3141V13.6879H15.1997V12.7854Z" fill="#F2E73E"/>
<path d="M15.1997 11.8822H14.3141V12.7848H15.1997V11.8822Z" fill="#F2E73E"/>
<path d="M15.1997 10.9805H14.3141V11.8831H15.1997V10.9805Z" fill="#F2E73E"/>
<path d="M15.1997 10.0772H14.3141V10.9798H15.1997V10.0772Z" fill="#F2E73E"/>
<path d="M15.1997 9.17413H14.3141V10.0767H15.1997V9.17413Z" fill="#F2E73E"/>
<path d="M14.3141 9.17448H15.1997V8.28479H14.3268L14.3141 8.31058V9.17448Z" fill="#F9BF1C"/>
<path d="M15.1996 8.28423V7.38165H14.7568L14.3267 8.28423H15.1996Z" fill="#F9BF1C"/>
<path d="M15.1997 6.49237L14.757 7.38206H15.1997V6.49237Z" fill="#F9BF1C"/>
<path d="M13.4286 21.7725V22.4301L14.3141 21.9659V21.7725H13.4286Z" fill="black"/>
<path d="M14.3141 20.8818H13.4286V21.7844H14.3141V20.8818Z" fill="#F9BF1C"/>
<path d="M14.3141 19.9801H13.4286V20.8827H14.3141V19.9801Z" fill="#F2E73E"/>
<path d="M14.3141 19.0768H13.4286V19.9794H14.3141V19.0768Z" fill="#F2E73E"/>
<path d="M14.3141 18.1752H13.4286V19.0778H14.3141V18.1752Z" fill="#F2E73E"/>
<path d="M14.3141 17.2719H13.4286V18.1745H14.3141V17.2719Z" fill="#F2E73E"/>
<path d="M14.3141 16.3828H13.4286V17.2854H14.3141V16.3828Z" fill="#F2E73E"/>
<path d="M14.3141 15.4795H13.4286V16.3821H14.3141V15.4795Z" fill="#F2E73E"/>
<path d="M14.3141 14.5779H13.4286V15.4805H14.3141V14.5779Z" fill="#F2E73E"/>
<path d="M14.3141 13.6747H13.4286V14.5772H14.3141V13.6747Z" fill="#F2E73E"/>
<path d="M14.3141 12.7854H13.4286V13.6879H14.3141V12.7854Z" fill="#F2E73E"/>
<path d="M14.3141 11.8822H13.4286V12.7848H14.3141V11.8822Z" fill="#F2E73E"/>
<path d="M14.3141 10.9805H13.4286V11.8831H14.3141V10.9805Z" fill="#F2E73E"/>
<path d="M13.4286 10.9798H14.3141V10.0772H13.4539L13.4286 10.1288V10.9798Z" fill="#F9BF1C"/>
<path d="M14.3141 10.0767V9.17413H13.8967L13.4539 10.0767H14.3141Z" fill="#F9BF1C"/>
<path d="M14.3142 8.30978L13.8967 9.17368H14.3142V8.30978Z" fill="#F9BF1C"/>
<path d="M12.5431 22.9063L12.9732 22.6743H12.5431V22.9063Z" fill="black"/>
<path d="M13.4286 21.7725H12.5431V22.6751H12.9732L13.4286 22.4301V21.7725Z" fill="#F9BF1C"/>
<path d="M13.4286 20.8818H12.5431V21.7844H13.4286V20.8818Z" fill="#F9BF1C"/>
<path d="M13.4286 19.9801H12.5431V20.8827H13.4286V19.9801Z" fill="#F2E73E"/>
<path d="M13.4286 19.0768H12.5431V19.9794H13.4286V19.0768Z" fill="#F2E73E"/>
<path d="M13.4286 18.1752H12.5431V19.0778H13.4286V18.1752Z" fill="#F2E73E"/>
<path d="M13.4286 17.2719H12.5431V18.1745H13.4286V17.2719Z" fill="#F2E73E"/>
<path d="M13.4286 16.3828H12.5431V17.2854H13.4286V16.3828Z" fill="#F2E73E"/>
<path d="M13.4286 15.4795H12.5431V16.3821H13.4286V15.4795Z" fill="#F2E73E"/>
<path d="M13.4286 14.5779H12.5431V15.4805H13.4286V14.5779Z" fill="#F2E73E"/>
<path d="M13.4286 13.6747H12.5431V14.5772H13.4286V13.6747Z" fill="#F2E73E"/>
<path d="M13.4286 12.7854H12.5431V13.6879H13.4286V12.7854Z" fill="#F2E73E"/>
<path d="M13.4286 11.8822H12.5431V12.7848H13.4286V11.8822Z" fill="#F2E73E"/>
<path d="M12.5431 11.8057V11.8831H13.4286V10.9805H13.0238L12.619 11.8057H12.5431Z" fill="#F9BF1C"/>
<path d="M13.4287 10.1285L13.0239 10.9795H13.4287V10.1285Z" fill="#F9BF1C"/>
<path d="M11.6577 22.6743V23.3834L12.5432 22.9063V22.6743H11.6577Z" fill="black"/>
<path d="M12.5432 21.7725H11.6577V22.6751H12.5432V21.7725Z" fill="#F9BF1C"/>
<path d="M12.5432 20.8818H11.6577V21.7844H12.5432V20.8818Z" fill="#F2E73E"/>
<path d="M12.5432 19.9801H11.6577V20.8827H12.5432V19.9801Z" fill="#F2E73E"/>
<path d="M12.5432 19.0768H11.6577V19.9794H12.5432V19.0768Z" fill="#F2E73E"/>
<path d="M12.5432 18.1752H11.6577V19.0778H12.5432V18.1752Z" fill="#F2E73E"/>
<path d="M12.5432 17.2719H11.6577V18.1745H12.5432V17.2719Z" fill="#F2E73E"/>
<path d="M12.5432 16.3828H11.6577V17.2854H12.5432V16.3828Z" fill="#F2E73E"/>
<path d="M12.5432 15.4795H11.6577V16.3821H12.5432V15.4795Z" fill="#F2E73E"/>
<path d="M12.5432 14.5779H11.6577V15.4805H12.5432V14.5779Z" fill="#F2E73E"/>
<path d="M12.5432 13.6747H11.6577V14.5772H12.5432V13.6747Z" fill="#F2E73E"/>
<path d="M12.5432 12.7854H11.6577V13.6879H12.5432V12.7854Z" fill="#F2E73E"/>
<path d="M12.5432 11.8822H12.0751L11.6577 11.9467V12.7848H12.5432V11.8822Z" fill="#F2E73E"/>
<path d="M12.0751 11.8818H12.5432V11.8044L12.0751 11.8818Z" fill="black"/>
<path d="M10.7847 23.8483L11.2907 23.5775H10.7847V23.8483Z" fill="black"/>
<path d="M11.6576 22.6743H10.7847V23.5768H11.2907L11.6576 23.3834V22.6743Z" fill="#F9BF1C"/>
<path d="M11.6702 21.7725H10.7847V22.6751H11.6702V21.7725Z" fill="#F9BF1C"/>
<path d="M11.6702 20.8818H10.7847V21.7844H11.6702V20.8818Z" fill="#F2E73E"/>
<path d="M11.6702 19.9801H10.7847V20.8827H11.6702V19.9801Z" fill="#F2E73E"/>
<path d="M11.6702 19.0768H10.7847V19.9794H11.6702V19.0768Z" fill="#F9BF1C"/>
<path d="M11.6702 18.1752H10.7847V19.0778H11.6702V18.1752Z" fill="#F9BF1C"/>
<path d="M11.6702 17.2719H10.7847V18.1745H11.6702V17.2719Z" fill="#F9BF1C"/>
<path d="M11.6702 16.3828H10.7847V17.2854H11.6702V16.3828Z" fill="#F9BF1C"/>
<path d="M11.6702 15.4795H10.7847V16.3821H11.6702V15.4795Z" fill="#F2E73E"/>
<path d="M11.6702 14.5779H10.7847V15.4805H11.6702V14.5779Z" fill="#F2E73E"/>
<path d="M11.6702 13.6747H10.7847V14.5772H11.6702V13.6747Z" fill="#F2E73E"/>
<path d="M11.6702 12.7854H10.7847V13.6879H11.6702V12.7854Z" fill="#F2E73E"/>
<path d="M11.6576 11.946L10.7847 12.0749V12.7841H11.6576V11.946Z" fill="#F2E73E"/>
<path d="M9.89929 23.5775V24.3254L10.7848 23.8483V23.5775H9.89929Z" fill="black"/>
<path d="M10.7848 22.6743H9.91194L9.89929 22.7645V23.5768H10.7848V22.6743Z" fill="#F9BF1C"/>
<path d="M10.0637 21.7725L9.91187 22.6751H10.7847V21.7725H10.0637Z" fill="#F9BF1C"/>
<path d="M10.2154 20.8818L10.0636 21.7715H10.7847V20.8818H10.2154Z" fill="#F9BF1C"/>
<path d="M10.3674 19.9801L10.2156 20.8827H10.7848V19.9801H10.3674Z" fill="#F9BF1C"/>
<path d="M10.5191 19.0768L10.3673 19.9794H10.7848V19.0768H10.5191Z" fill="#F9BF1C"/>
<path d="M10.7848 18.1752H10.6709L10.5191 19.0778H10.7848V18.1752Z" fill="black"/>
<path d="M10.7846 17.2719H10.3925L10.7593 17.6459L10.6708 18.1745H10.7846V17.2719Z" fill="black"/>
<path d="M10.7848 17.2725V16.3828H9.89929V16.7825L10.3926 17.2725H10.7848Z" fill="#F9BF1C"/>
<path d="M10.7848 15.4795H9.89929V16.3821H10.7848V15.4795Z" fill="#F2E73E"/>
<path d="M10.7848 14.5779H9.89929V15.4805H10.7848V14.5779Z" fill="#F2E73E"/>
<path d="M10.7848 13.6747H9.89929V14.5772H10.7848V13.6747Z" fill="#F2E73E"/>
<path d="M10.7848 12.7854H9.89929V13.6879H10.7848V12.7854Z" fill="#F2E73E"/>
<path d="M10.7848 12.0749L9.89929 12.2038V12.7841H10.7848V12.0749Z" fill="#F2E73E"/>
<path d="M9.89929 23.5775H9.76014L9.60834 24.4801H9.62099L9.89929 24.3254V23.5775Z" fill="#F9BF1C"/>
<path d="M9.76001 23.5768H9.89916V22.7644L9.76001 23.5768Z" fill="#F9BF1C"/>
<path d="M9.48187 16.3828L9.89933 16.7825V16.3828H9.48187Z" fill="black"/>
<path d="M9.89924 16.3821V15.4795H9.01373V15.905L9.48179 16.3821H9.89924Z" fill="#F9BF1C"/>
<path d="M9.89924 14.5779H9.01373V15.4805H9.89924V14.5779Z" fill="#F2E73E"/>
<path d="M9.89924 13.6747H9.01373V14.5772H9.89924V13.6747Z" fill="#F2E73E"/>
<path d="M9.89924 12.7854H9.01373V13.6879H9.89924V12.7854Z" fill="#F2E73E"/>
<path d="M9.89924 12.204L9.01373 12.3329V12.7842H9.89924V12.204Z" fill="#F2E73E"/>
<path d="M8.58362 15.4795L9.01372 15.905V15.4795H8.58362Z" fill="black"/>
<path d="M9.01362 15.4805V14.5779H8.12811V15.0292L8.58352 15.4805H9.01362Z" fill="#F9BF1C"/>
<path d="M9.01362 13.6747H8.12811V14.5772H9.01362V13.6747Z" fill="#F2E73E"/>
<path d="M9.01362 12.7854H8.12811V13.6879H9.01362V12.7854Z" fill="#F2E73E"/>
<path d="M9.01362 12.3331L8.12811 12.4621V12.7844H9.01362V12.3331Z" fill="#F2E73E"/>
<path d="M7.67279 14.5779L8.1282 15.0292V14.5779H7.67279Z" fill="#F9BF1C"/>
<path d="M8.12825 14.5772V13.6747H7.24274V14.1517L7.67284 14.5772H8.12825Z" fill="#F9BF1C"/>
<path d="M8.12825 12.7854H7.24274V13.6879H8.12825V12.7854Z" fill="#F2E73E"/>
<path d="M8.12825 12.462L7.24274 12.591V12.7844H8.12825V12.462Z" fill="#F2E73E"/>
<path d="M6.77472 13.6747L7.24277 14.1517V13.6747H6.77472Z" fill="#F9BF1C"/>
<path d="M7.24273 13.6751V12.7854H6.36987V13.2753L6.77468 13.6751H7.24273Z" fill="#F9BF1C"/>
<path d="M7.24273 12.7861V12.5927L6.36987 12.7216V12.7861H7.24273Z" fill="#F9BF1C"/>
<path d="M6.00289 12.7854L5.88904 12.7983L6.36974 13.2753V12.7854H6.00289Z" fill="#F9BF1C"/>
<path d="M6.00305 12.7861H6.36991V12.7216L6.00305 12.7861Z" fill="black"/>
</svg>
