<svg width="32" height="28" viewBox="0 0 32 28" fill="none" xmlns="http://www.w3.org/2000/svg">
<path d="M24.2082 1.73806L24.5175 2.28577L25.4901 1.71157L25.1808 1.16385L24.2082 1.73806Z" fill="#1D1D1B"/>
<path d="M24.5174 2.28568L24.8267 2.8334L25.7993 2.2592L25.49 1.71148L24.5174 2.28568Z" fill="#1D1D1B"/>
<path d="M24.8269 2.83352L25.1361 3.38123L26.1087 2.80703L25.7995 2.25931L24.8269 2.83352Z" fill="#1D1D1B"/>
<path d="M25.1361 3.38139L25.4453 3.92911L26.4179 3.35491L26.1087 2.80719L25.1361 3.38139Z" fill="#1D1D1B"/>
<path d="M25.4453 3.92899L25.7546 4.47671L26.7272 3.90251L26.4179 3.35479L25.4453 3.92899Z" fill="#1D1D1B"/>
<path d="M25.7489 4.46659L26.0581 5.01431L27.0307 4.4401L26.7215 3.89239L25.7489 4.46659Z" fill="#1D1D1B"/>
<path d="M26.0581 5.01426L26.3673 5.56197L27.3399 4.98777L27.0307 4.44005L26.0581 5.01426Z" fill="#1D1D1B"/>
<path d="M26.3673 5.56186L26.6765 6.10957L27.6491 5.53537L27.3399 4.98765L26.3673 5.56186Z" fill="#1D1D1B"/>
<path d="M26.6765 6.10949L26.9857 6.6572L27.9583 6.083L27.6491 5.53528L26.6765 6.10949Z" fill="#1D1D1B"/>
<path d="M26.9859 6.65751L27.2952 7.20524L28.2678 6.63104L27.9585 6.08331L26.9859 6.65751Z" fill="#1D1D1B"/>
<path d="M27.2951 7.2052L27.6044 7.75291L28.577 7.17871L28.2677 6.631L27.2951 7.2052Z" fill="#1D1D1B"/>
<path d="M27.6043 7.7528L27.9136 8.30051L28.8862 7.72631L28.5769 7.1786L27.6043 7.7528Z" fill="#1D1D1B"/>
<path d="M27.9078 8.29038L28.2171 8.8381L29.1897 8.2639L28.8805 7.71618L27.9078 8.29038Z" fill="#1D1D1B"/>
<path d="M28.2171 8.83802L28.5263 9.38573L29.4989 8.81153L29.1897 8.26382L28.2171 8.83802Z" fill="#1D1D1B"/>
<path d="M23.2359 2.31209L23.5452 2.85981L24.5178 2.28561L24.2085 1.7379L23.2359 2.31209Z" fill="#1D1D1B"/>
<path d="M23.5451 2.85968L23.8544 3.40741L24.827 2.83321L24.5177 2.28549L23.5451 2.85968Z" fill="#1D1D1B"/>
<path d="M23.8544 3.40731L24.1636 3.95503L25.1363 3.38084L24.827 2.83312L23.8544 3.40731Z" fill="#F2E73E"/>
<path d="M24.1638 3.95535L24.473 4.50307L25.4456 3.92887L25.1364 3.38115L24.1638 3.95535Z" fill="#F2E73E"/>
<path d="M24.473 4.50303L24.7823 5.05074L25.7549 4.47655L25.4456 3.92883L24.473 4.50303Z" fill="#F2E73E"/>
<path d="M24.7765 5.04062L25.0858 5.58833L26.0584 5.01414L25.7491 4.46642L24.7765 5.04062Z" fill="#F2E73E"/>
<path d="M25.0858 5.58822L25.395 6.13593L26.3676 5.56174L26.0584 5.01402L25.0858 5.58822Z" fill="#F2E73E"/>
<path d="M25.395 6.13585L25.7042 6.68356L26.6768 6.10937L26.3676 5.56165L25.395 6.13585Z" fill="#F2E73E"/>
<path d="M25.7044 6.68393L26.0137 7.23164L26.9863 6.65745L26.677 6.10973L25.7044 6.68393Z" fill="#F2E73E"/>
<path d="M26.0136 7.23155L26.3229 7.77927L27.2955 7.20508L26.9862 6.65735L26.0136 7.23155Z" fill="#F2E73E"/>
<path d="M26.3228 7.77916L26.6321 8.32687L27.6047 7.75268L27.2954 7.20496L26.3228 7.77916Z" fill="#F2E73E"/>
<path d="M26.632 8.32679L26.9413 8.8745L27.9139 8.30031L27.6046 7.75259L26.632 8.32679Z" fill="#F2E73E"/>
<path d="M26.9356 8.86441L27.2448 9.41214L28.2174 8.83794L27.9082 8.29022L26.9356 8.86441Z" fill="#F2E73E"/>
<path d="M27.2448 9.41202L27.554 9.95974L28.5266 9.38554L28.2174 8.83782L27.2448 9.41202Z" fill="#1D1D1B"/>
<path d="M22.2629 2.8863L22.5721 3.43402L23.5448 2.85982L23.2355 2.3121L22.2629 2.8863Z" fill="#1D1D1B"/>
<path d="M22.5721 3.43392L22.8813 3.98165L23.854 3.40745L23.5447 2.85972L22.5721 3.43392Z" fill="#1D1D1B"/>
<path d="M22.8815 3.98201L23.1908 4.52972L24.1634 3.95552L23.8542 3.40781L22.8815 3.98201Z" fill="#1D1D1B"/>
<path d="M23.1907 4.52964L23.5 5.07735L24.4726 4.50315L24.1634 3.95544L23.1907 4.52964Z" fill="#1D1D1B"/>
<path d="M23.4999 5.07724L23.8092 5.62495L24.7818 5.05075L24.4726 4.50304L23.4999 5.07724Z" fill="#1D1D1B"/>
<path d="M23.8035 5.61483L24.1127 6.16255L25.0854 5.58835L24.7761 5.04063L23.8035 5.61483Z" fill="#1D1D1B"/>
<path d="M24.1127 6.16251L24.422 6.71023L25.3946 6.13603L25.0854 5.58831L24.1127 6.16251Z" fill="#1D1D1B"/>
<path d="M24.4219 6.71035L24.7312 7.25806L25.7038 6.68386L25.3946 6.13615L24.4219 6.71035Z" fill="#1D1D1B"/>
<path d="M24.7313 7.25817L25.0406 7.80589L26.0132 7.23168L25.704 6.68397L24.7313 7.25817Z" fill="#F2E73E"/>
<path d="M25.0406 7.80576L25.3499 8.35349L26.3225 7.77928L26.0132 7.23156L25.0406 7.80576Z" fill="#F2E73E"/>
<path d="M25.3498 8.35369L25.6591 8.90141L26.6317 8.3272L26.3224 7.77949L25.3498 8.35369Z" fill="#F2E73E"/>
<path d="M25.659 8.90129L25.9683 9.44901L26.9409 8.8748L26.6316 8.32709L25.659 8.90129Z" fill="#F2E73E"/>
<path d="M25.9625 9.43887L26.2718 9.9866L27.2444 9.41239L26.9352 8.86467L25.9625 9.43887Z" fill="#F2E73E"/>
<path d="M26.2717 9.98651L26.581 10.5342L27.5536 9.96002L27.2444 9.41231L26.2717 9.98651Z" fill="#1D1D1B"/>
<path d="M22.2185 5.1036L22.5277 5.65131L23.5003 5.07711L23.1911 4.52939L22.2185 5.1036Z" fill="#1D1D1B"/>
<path d="M22.5277 5.65152L22.8369 6.19923L23.8095 5.62503L23.5003 5.07731L22.5277 5.65152Z" fill="#1D1D1B"/>
<path d="M22.8312 6.18887L23.1404 6.73659L24.1131 6.16239L23.8038 5.61467L22.8312 6.18887Z" fill="#1D1D1B"/>
<path d="M23.1405 6.73647L23.4497 7.28419L24.4223 6.70999L24.1131 6.16227L23.1405 6.73647Z" fill="#1D1D1B"/>
<path d="M23.4497 7.28434L23.7589 7.83205L24.7315 7.25785L24.4223 6.71014L23.4497 7.28434Z" fill="#1D1D1B"/>
<path d="M23.759 7.83217L24.0683 8.37989L25.0409 7.80569L24.7317 7.25797L23.759 7.83217Z" fill="#F2E73E"/>
<path d="M24.0683 8.38004L24.3776 8.92776L25.3502 8.35356L25.0409 7.80584L24.0683 8.38004Z" fill="#F2E73E"/>
<path d="M24.3775 8.92765L24.6868 9.47536L25.6594 8.90116L25.3501 8.35345L24.3775 8.92765Z" fill="#F2E73E"/>
<path d="M24.6867 9.47528L24.996 10.023L25.9686 9.44879L25.6593 8.90108L24.6867 9.47528Z" fill="#F2E73E"/>
<path d="M24.9902 10.0129L25.2995 10.5606L26.2721 9.98644L25.9629 9.43871L24.9902 10.0129Z" fill="#F2E73E"/>
<path d="M25.2994 10.5605L25.6087 11.1082L26.5813 10.534L26.2721 9.98631L25.2994 10.5605Z" fill="#1D1D1B"/>
<path d="M21.2454 5.67813L21.5547 6.22585L22.5273 5.65165L22.218 5.10393L21.2454 5.67813Z" fill="#1D1D1B"/>
<path d="M21.5546 6.22573L21.8639 6.77345L22.8365 6.19925L22.5273 5.65153L21.5546 6.22573Z" fill="#F2E73E"/>
<path d="M21.8582 6.76332L22.1674 7.31104L23.14 6.73685L22.8308 6.18913L21.8582 6.76332Z" fill="#F2E73E"/>
<path d="M22.1674 7.31099L22.4766 7.85871L23.4492 7.28452L23.14 6.7368L22.1674 7.31099Z" fill="#F2E73E"/>
<path d="M22.4766 7.8586L22.7859 8.40632L23.7585 7.83212L23.4492 7.2844L22.4766 7.8586Z" fill="#F2E73E"/>
<path d="M22.786 8.40666L23.0953 8.95438L24.0679 8.38018L23.7586 7.83246L22.786 8.40666Z" fill="#F2E73E"/>
<path d="M23.0952 8.9543L23.4045 9.50202L24.3771 8.92783L24.0678 8.3801L23.0952 8.9543Z" fill="#F2E73E"/>
<path d="M23.4045 9.50194L23.7137 10.0497L24.6864 9.47546L24.3771 8.92774L23.4045 9.50194Z" fill="#F2E73E"/>
<path d="M23.7137 10.0495L24.0229 10.5973L24.9956 10.0231L24.6863 9.47534L23.7137 10.0495Z" fill="#F2E73E"/>
<path d="M24.0172 10.5871L24.3265 11.1348L25.2991 10.5606L24.9898 10.0129L24.0172 10.5871Z" fill="#F2E73E"/>
<path d="M24.3266 11.1352L24.6359 11.683L25.6085 11.1088L25.2992 10.561L24.3266 11.1352Z" fill="#1D1D1B"/>
<path d="M20.2731 6.25209L20.5824 6.7998L21.555 6.2256L21.2458 5.67789L20.2731 6.25209Z" fill="#1D1D1B"/>
<path d="M20.5823 6.79976L20.8916 7.34748L21.8642 6.77328L21.555 6.22556L20.5823 6.79976Z" fill="#1D1D1B"/>
<path d="M20.8859 7.33736L21.1951 7.88508L22.1678 7.31088L21.8585 6.76316L20.8859 7.33736Z" fill="#1D1D1B"/>
<path d="M21.1951 7.88496L21.5043 8.43268L22.477 7.85848L22.1677 7.31076L21.1951 7.88496Z" fill="#1D1D1B"/>
<path d="M21.5043 8.43259L21.8136 8.98031L22.7862 8.40611L22.477 7.85839L21.5043 8.43259Z" fill="#1D1D1B"/>
<path d="M21.8135 8.98019L22.1228 9.52791L23.0954 8.95371L22.7862 8.40599L21.8135 8.98019Z" fill="#F2E73E"/>
<path d="M22.1229 9.52829L22.4322 10.076L23.4048 9.50181L23.0956 8.95408L22.1229 9.52829Z" fill="#F2E73E"/>
<path d="M22.4322 10.0759L22.7415 10.6236L23.7141 10.0494L23.4048 9.50169L22.4322 10.0759Z" fill="#F2E73E"/>
<path d="M22.7414 10.6235L23.0507 11.1712L24.0233 10.597L23.714 10.0493L22.7414 10.6235Z" fill="#F2E73E"/>
<path d="M23.0449 11.1612L23.3542 11.7089L24.3268 11.1347L24.0176 10.5869L23.0449 11.1612Z" fill="#F2E73E"/>
<path d="M23.3541 11.7088L23.6634 12.2565L24.636 11.6823L24.3268 11.1346L23.3541 11.7088Z" fill="#1D1D1B"/>
<path d="M20.5313 9.00708L20.8405 9.5548L21.8131 8.98061L21.5039 8.43289L20.5313 9.00708Z" fill="#1D1D1B"/>
<path d="M20.8407 9.55515L21.15 10.1029L22.1226 9.52867L21.8133 8.98095L20.8407 9.55515Z" fill="#F2E73E"/>
<path d="M21.1499 10.1028L21.4592 10.6505L22.4318 10.0763L22.1225 9.52859L21.1499 10.1028Z" fill="#F2E73E"/>
<path d="M21.4591 10.6504L21.7684 11.1981L22.741 10.6239L22.4317 10.0762L21.4591 10.6504Z" fill="#F2E73E"/>
<path d="M21.7684 11.198L22.0776 11.7457L23.0503 11.1715L22.741 10.6238L21.7684 11.198Z" fill="#F2E73E"/>
<path d="M22.0718 11.7356L22.3811 12.2833L23.3537 11.7091L23.0445 11.1614L22.0718 11.7356Z" fill="#F2E73E"/>
<path d="M22.3811 12.2833L22.6904 12.831L23.663 12.2568L23.3537 11.7091L22.3811 12.2833Z" fill="#1D1D1B"/>
<path d="M19.5689 9.57544L19.8781 10.1232L20.8507 9.54896L20.5415 9.00125L19.5689 9.57544Z" fill="#1D1D1B"/>
<path d="M19.8783 10.1233L20.1876 10.671L21.1602 10.0968L20.8509 9.54907L19.8783 10.1233Z" fill="#F2E73E"/>
<path d="M20.1875 10.6709L20.4968 11.2186L21.4694 10.6444L21.1601 10.0967L20.1875 10.6709Z" fill="#F2E73E"/>
<path d="M20.4967 11.2187L20.806 11.7665L21.7786 11.1923L21.4693 10.6445L20.4967 11.2187Z" fill="#F2E73E"/>
<path d="M20.8059 11.7664L21.1152 12.3141L22.0878 11.7399L21.7785 11.1922L20.8059 11.7664Z" fill="#F2E73E"/>
<path d="M21.1094 12.3037L21.4187 12.8515L22.3913 12.2773L22.0821 11.7295L21.1094 12.3037Z" fill="#F2E73E"/>
<path d="M21.4189 12.8518L21.7281 13.3995L22.7008 12.8253L22.3915 12.2776L21.4189 12.8518Z" fill="#1D1D1B"/>
<path d="M18.5966 10.1494L18.9058 10.6972L19.8784 10.1229L19.5692 9.57523L18.5966 10.1494Z" fill="#1D1D1B"/>
<path d="M18.9058 10.697L19.215 11.2448L20.1877 10.6705L19.8784 10.1228L18.9058 10.697Z" fill="#F2E73E"/>
<path d="M19.2152 11.2448L19.5245 11.7926L20.4971 11.2184L20.1878 10.6706L19.2152 11.2448Z" fill="#F2E73E"/>
<path d="M19.5244 11.7927L19.8337 12.3405L20.8063 11.7663L20.497 11.2185L19.5244 11.7927Z" fill="#F2E73E"/>
<path d="M19.8336 12.3404L20.1429 12.8881L21.1155 12.3139L20.8063 11.7662L19.8336 12.3404Z" fill="#F2E73E"/>
<path d="M20.1372 12.878L20.4464 13.4257L21.419 12.8515L21.1098 12.3038L20.1372 12.878Z" fill="#F2E73E"/>
<path d="M20.4464 13.4256L20.7557 13.9733L21.7283 13.3991L21.419 12.8514L20.4464 13.4256Z" fill="#1D1D1B"/>
<path d="M17.6235 10.7237L17.9328 11.2714L18.9054 10.6972L18.5962 10.1495L17.6235 10.7237Z" fill="#1D1D1B"/>
<path d="M17.933 11.2718L18.2422 11.8195L19.2149 11.2453L18.9056 10.6976L17.933 11.2718Z" fill="#F2E73E"/>
<path d="M18.2422 11.8193L18.5515 12.3671L19.5241 11.7929L19.2148 11.2451L18.2422 11.8193Z" fill="#F2E73E"/>
<path d="M18.5514 12.367L18.8607 12.9147L19.8333 12.3405L19.524 11.7928L18.5514 12.367Z" fill="#F2E73E"/>
<path d="M18.8606 12.9146L19.1699 13.4623L20.1425 12.8881L19.8332 12.3404L18.8606 12.9146Z" fill="#F2E73E"/>
<path d="M19.1641 13.4522L19.4734 13.9999L20.446 13.4257L20.1368 12.878L19.1641 13.4522Z" fill="#F2E73E"/>
<path d="M19.4736 14.0003L19.7828 14.548L20.7555 13.9738L20.4462 13.4261L19.4736 14.0003Z" fill="#1D1D1B"/>
<path d="M16.6513 11.2977L16.9605 11.8454L17.9331 11.2712L17.6239 10.7235L16.6513 11.2977Z" fill="#1D1D1B"/>
<path d="M16.9607 11.8457L17.27 12.3934L18.2426 11.8192L17.9333 11.2715L16.9607 11.8457Z" fill="#F2E73E"/>
<path d="M17.2699 12.3934L17.5792 12.9411L18.5518 12.3669L18.2425 11.8192L17.2699 12.3934Z" fill="#F2E73E"/>
<path d="M17.5791 12.941L17.8884 13.4887L18.861 12.9145L18.5517 12.3668L17.5791 12.941Z" fill="#F2E73E"/>
<path d="M17.8883 13.4886L18.1976 14.0363L19.1702 13.4621L18.8609 12.9144L17.8883 13.4886Z" fill="#F2E73E"/>
<path d="M18.1918 14.0262L18.5011 14.5739L19.4737 13.9997L19.1645 13.452L18.1918 14.0262Z" fill="#F2E73E"/>
<path d="M18.501 14.5738L18.8103 15.1215L19.7829 14.5473L19.4737 13.9996L18.501 14.5738Z" fill="#1D1D1B"/>
<path d="M15.6782 11.8722L15.9875 12.4199L16.9601 11.8457L16.6509 11.298L15.6782 11.8722Z" fill="#1D1D1B"/>
<path d="M15.9876 12.4202L16.2969 12.968L17.2695 12.3938L16.9602 11.846L15.9876 12.4202Z" fill="#F2E73E"/>
<path d="M16.2969 12.9678L16.6061 13.5156L17.5788 12.9414L17.2695 12.3936L16.2969 12.9678Z" fill="#F2E73E"/>
<path d="M16.6061 13.5155L16.9153 14.0632L17.888 13.489L17.5787 12.9413L16.6061 13.5155Z" fill="#F2E73E"/>
<path d="M16.9153 14.0631L17.2245 14.6108L18.1972 14.0366L17.8879 13.4889L16.9153 14.0631Z" fill="#F2E73E"/>
<path d="M17.2188 14.6007L17.5281 15.1484L18.5007 14.5742L18.1914 14.0265L17.2188 14.6007Z" fill="#F2E73E"/>
<path d="M17.528 15.1483L17.8373 15.6961L18.8099 15.1219L18.5006 14.5741L17.528 15.1483Z" fill="#1D1D1B"/>
<path d="M13.4747 10.2657L13.784 10.8134L14.7566 10.2392L14.4474 9.69148L13.4747 10.2657Z" fill="#1D1D1B"/>
<path d="M13.784 10.8133L14.0933 11.361L15.0659 10.7868L14.7566 10.2391L13.784 10.8133Z" fill="#1D1D1B"/>
<path d="M14.0875 11.3509L14.3967 11.8987L15.3693 11.3245L15.0601 10.7768L14.0875 11.3509Z" fill="#1D1D1B"/>
<path d="M14.3967 11.8985L14.706 12.4463L15.6786 11.8721L15.3694 11.3243L14.3967 11.8985Z" fill="#1D1D1B"/>
<path d="M14.7059 12.4462L15.0152 12.9939L15.9878 12.4197L15.6786 11.872L14.7059 12.4462Z" fill="#1D1D1B"/>
<path d="M15.0153 12.9942L15.3246 13.5419L16.2972 12.9677L15.9879 12.42L15.0153 12.9942Z" fill="#F2E73E"/>
<path d="M15.3246 13.5419L15.6339 14.0896L16.6065 13.5154L16.2972 12.9677L15.3246 13.5419Z" fill="#F2E73E"/>
<path d="M15.6338 14.0895L15.9431 14.6372L16.9157 14.063L16.6064 13.5153L15.6338 14.0895Z" fill="#F2E73E"/>
<path d="M15.943 14.6371L16.2523 15.1848L17.2249 14.6106L16.9156 14.0629L15.943 14.6371Z" fill="#F2E73E"/>
<path d="M16.2465 15.1747L16.5558 15.7224L17.5284 15.1482L17.2191 14.6005L16.2465 15.1747Z" fill="#F2E73E"/>
<path d="M16.556 15.7228L16.8652 16.2705L17.8378 15.6963L17.5286 15.1486L16.556 15.7228Z" fill="#1D1D1B"/>
<path d="M16.8652 16.2704L17.1744 16.8181L18.1471 16.2439L17.8378 15.6962L16.8652 16.2704Z" fill="#1D1D1B"/>
<path d="M17.1744 16.818L17.4836 17.3657L18.4563 16.7915L18.147 16.2438L17.1744 16.818Z" fill="#1D1D1B"/>
<path d="M17.4836 17.3656L17.7928 17.9134L18.7655 17.3392L18.4562 16.7914L17.4836 17.3656Z" fill="#1D1D1B"/>
<path d="M17.7928 17.9132L18.1021 18.461L19.0747 17.8868L18.7654 17.339L17.7928 17.9132Z" fill="#1D1D1B"/>
<path d="M11.8831 9.74449L12.1923 10.2922L13.1649 9.71801L12.8557 9.17029L11.8831 9.74449Z" fill="#1D1D1B"/>
<path d="M12.1925 10.2926L12.5018 10.8403L13.4744 10.2661L13.1651 9.71837L12.1925 10.2926Z" fill="#1D1D1B"/>
<path d="M12.5015 10.8398L12.8107 11.3875L13.7834 10.8133L13.4741 10.2656L12.5015 10.8398Z" fill="#F2E73E"/>
<path d="M12.8109 11.3878L13.1202 11.9355L14.0928 11.3613L13.7835 10.8136L12.8109 11.3878Z" fill="#F2E73E"/>
<path d="M13.1145 11.9254L13.4237 12.4731L14.3963 11.8989L14.0871 11.3512L13.1145 11.9254Z" fill="#F2E73E"/>
<path d="M13.4237 12.473L13.7329 13.0208L14.7055 12.4466L14.3963 11.8988L13.4237 12.473Z" fill="#F2E73E"/>
<path d="M13.7329 13.0207L14.0422 13.5684L15.0148 12.9942L14.7055 12.4465L13.7329 13.0207Z" fill="#F2E73E"/>
<path d="M14.0421 13.5683L14.3514 14.116L15.324 13.5418L15.0147 12.9941L14.0421 13.5683Z" fill="#F2E73E"/>
<path d="M14.3515 14.1163L14.6608 14.6641L15.6334 14.0899L15.3241 13.5421L14.3515 14.1163Z" fill="#F2E73E"/>
<path d="M14.6608 14.664L14.97 15.2117L15.9427 14.6375L15.6334 14.0898L14.6608 14.664Z" fill="#F2E73E"/>
<path d="M14.97 15.2116L15.2792 15.7593L16.2519 15.1851L15.9426 14.6374L14.97 15.2116Z" fill="#F2E73E"/>
<path d="M15.2735 15.7492L15.5828 16.2969L16.5554 15.7227L16.2461 15.175L15.2735 15.7492Z" fill="#F2E73E"/>
<path d="M15.5827 16.2968L15.892 16.8446L16.8646 16.2704L16.5553 15.7226L15.5827 16.2968Z" fill="#F2E73E"/>
<path d="M15.8919 16.8445L16.2012 17.3922L17.1738 16.818L16.8645 16.2703L15.8919 16.8445Z" fill="#F2E73E"/>
<path d="M16.2014 17.3925L16.5106 17.9403L17.4832 17.3661L17.174 16.8183L16.2014 17.3925Z" fill="#F2E73E"/>
<path d="M16.5106 17.9401L16.8198 18.4879L17.7924 17.9137L17.4832 17.3659L16.5106 17.9401Z" fill="#F2E73E"/>
<path d="M16.8198 18.4878L17.129 19.0355L18.1017 18.4613L17.7924 17.9136L16.8198 18.4878Z" fill="#F2E73E"/>
<path d="M17.1233 19.0254L17.4326 19.5731L18.4052 18.9989L18.0959 18.4512L17.1233 19.0254Z" fill="#1D1D1B"/>
<path d="M17.4325 19.573L17.7418 20.1207L18.7144 19.5465L18.4051 18.9988L17.4325 19.573Z" fill="#1D1D1B"/>
<path d="M10.6115 9.76494L10.9207 10.3127L11.8933 9.73846L11.5841 9.19074L10.6115 9.76494Z" fill="#1D1D1B"/>
<path d="M10.9207 10.3126L11.2299 10.8603L12.2025 10.2861L11.8933 9.73841L10.9207 10.3126Z" fill="#F2E73E"/>
<path d="M11.2299 10.8602L11.5391 11.4079L12.5117 10.8337L12.2025 10.286L11.2299 10.8602Z" fill="#F2E73E"/>
<path d="M11.5393 11.4082L11.8486 11.956L12.8212 11.3818L12.5119 10.834L11.5393 11.4082Z" fill="#F2E73E"/>
<path d="M11.8485 11.9559L12.1578 12.5036L13.1304 11.9294L12.8211 11.3817L11.8485 11.9559Z" fill="#F2E73E"/>
<path d="M12.152 12.4935L12.4613 13.0412L13.4339 12.467L13.1247 11.9193L12.152 12.4935Z" fill="#F2E73E"/>
<path d="M12.4613 13.0411L12.7705 13.5889L13.7431 13.0147L13.4339 12.4669L12.4613 13.0411Z" fill="#F2E73E"/>
<path d="M12.7705 13.5887L13.0797 14.1365L14.0523 13.5623L13.7431 13.0145L12.7705 13.5887Z" fill="#F2E73E"/>
<path d="M13.0797 14.1364L13.3889 14.6841L14.3615 14.1099L14.0523 13.5622L13.0797 14.1364Z" fill="#F2E73E"/>
<path d="M13.3891 14.6844L13.6984 15.2322L14.671 14.658L14.3617 14.1102L13.3891 14.6844Z" fill="#F2E73E"/>
<path d="M13.6983 15.2321L14.0076 15.7798L14.9802 15.2056L14.6709 14.6579L13.6983 15.2321Z" fill="#F2E73E"/>
<path d="M14.0076 15.7797L14.3168 16.3274L15.2895 15.7532L14.9802 15.2055L14.0076 15.7797Z" fill="#F2E73E"/>
<path d="M14.311 16.3173L14.6203 16.865L15.5929 16.2908L15.2837 15.7431L14.311 16.3173Z" fill="#F2E73E"/>
<path d="M14.6203 16.8649L14.9296 17.4126L15.9022 16.8384L15.5929 16.2907L14.6203 16.8649Z" fill="#F2E73E"/>
<path d="M14.9297 17.413L15.239 17.9607L16.2116 17.3865L15.9023 16.8388L14.9297 17.413Z" fill="#F2E73E"/>
<path d="M15.239 17.9606L15.5482 18.5083L16.5208 17.9341L16.2116 17.3864L15.239 17.9606Z" fill="#F2E73E"/>
<path d="M15.5482 18.5082L15.8574 19.0559L16.83 18.4817L16.5208 17.934L15.5482 18.5082Z" fill="#F2E73E"/>
<path d="M15.8574 19.0561L16.1666 19.6038L17.1393 19.0296L16.83 18.4819L15.8574 19.0561Z" fill="#F2E73E"/>
<path d="M16.1609 19.5935L16.4702 20.1412L17.4428 19.567L17.1335 19.0193L16.1609 19.5935Z" fill="#F2E73E"/>
<path d="M16.4701 20.1411L16.7794 20.6888L17.752 20.1146L17.4427 19.5669L16.4701 20.1411Z" fill="#F0C745"/>
<path d="M16.7795 20.6891L17.0888 21.2369L18.0614 20.6627L17.7522 20.1149L16.7795 20.6891Z" fill="#1D1D1B"/>
<path d="M9.32991 9.79135L9.63916 10.3391L10.6118 9.76486L10.3025 9.21715L9.32991 9.79135Z" fill="#1D1D1B"/>
<path d="M9.63911 10.339L9.94836 10.8867L10.921 10.3125L10.6117 9.76478L9.63911 10.339Z" fill="#F2E73E"/>
<path d="M9.94764 10.8871L10.2569 11.4348L11.2295 10.8606L10.9203 10.3129L9.94764 10.8871Z" fill="#F2E73E"/>
<path d="M10.2568 11.4347L10.5661 11.9824L11.5387 11.4082L11.2295 10.8605L10.2568 11.4347Z" fill="#F2E73E"/>
<path d="M10.5663 11.9828L10.8755 12.5305L11.8482 11.9563L11.5389 11.4086L10.5663 11.9828Z" fill="#F2E73E"/>
<path d="M10.8762 12.5299L11.1855 13.0776L12.1581 12.5034L11.8489 11.9557L10.8762 12.5299Z" fill="#F2E73E"/>
<path d="M11.1798 13.0675L11.489 13.6152L12.4616 13.041L12.1524 12.4933L11.1798 13.0675Z" fill="#F2E73E"/>
<path d="M11.4882 13.6156L11.7975 14.1634L12.7701 13.5892L12.4609 13.0414L11.4882 13.6156Z" fill="#F2E73E"/>
<path d="M11.7974 14.1633L12.1067 14.711L13.0793 14.1368L12.7701 13.5891L11.7974 14.1633Z" fill="#F2E73E"/>
<path d="M12.1069 14.7113L12.4161 15.259L13.3888 14.6848L13.0795 14.1371L12.1069 14.7113Z" fill="#F2E73E"/>
<path d="M12.4161 15.2589L12.7253 15.8067L13.698 15.2325L13.3887 14.6847L12.4161 15.2589Z" fill="#F2E73E"/>
<path d="M12.726 15.8061L13.0353 16.3538L14.0079 15.7796L13.6986 15.2319L12.726 15.8061Z" fill="#F2E73E"/>
<path d="M13.0345 16.3542L13.3438 16.9019L14.3164 16.3277L14.0071 15.78L13.0345 16.3542Z" fill="#F2E73E"/>
<path d="M13.338 16.8918L13.6473 17.4395L14.6199 16.8653L14.3106 16.3176L13.338 16.8918Z" fill="#F2E73E"/>
<path d="M13.6472 17.4394L13.9565 17.9871L14.9291 17.4129L14.6199 16.8652L13.6472 17.4394Z" fill="#F2E73E"/>
<path d="M13.9567 17.9875L14.2659 18.5352L15.2386 17.961L14.9293 17.4133L13.9567 17.9875Z" fill="#F2E73E"/>
<path d="M14.2666 18.5346L14.5759 19.0824L15.5485 18.5082L15.2392 17.9604L14.2666 18.5346Z" fill="#F2E73E"/>
<path d="M14.5758 19.0822L14.8851 19.63L15.8577 19.0558L15.5484 18.508L14.5758 19.0822Z" fill="#F2E73E"/>
<path d="M14.8851 19.6301L15.1943 20.1778L16.167 19.6036L15.8577 19.0559L14.8851 19.6301Z" fill="#F2E73E"/>
<path d="M15.1878 20.1679L15.4971 20.7157L16.4697 20.1415L16.1604 19.5937L15.1878 20.1679Z" fill="#F2E73E"/>
<path d="M15.4973 20.716L15.8065 21.2638L16.7791 20.6896L16.4699 20.1418L15.4973 20.716Z" fill="#F2E73E"/>
<path d="M15.8072 21.2632L16.1165 21.8109L17.0891 21.2367L16.7798 20.689L15.8072 21.2632Z" fill="#F2E73E"/>
<path d="M16.1164 21.8108L16.4257 22.3585L17.3983 21.7843L17.089 21.2366L16.1164 21.8108Z" fill="#1D1D1B"/>
<path d="M8.04768 9.8182L8.35693 10.3659L9.32955 9.79172L9.02029 9.24401L8.04768 9.8182Z" fill="#1D1D1B"/>
<path d="M8.35688 10.3658L8.66614 10.9136L9.63875 10.3394L9.3295 9.79164L8.35688 10.3658Z" fill="#F2E73E"/>
<path d="M8.66609 10.9135L8.97534 11.4612L9.94796 10.887L9.6387 10.3393L8.66609 10.9135Z" fill="#F2E73E"/>
<path d="M8.97529 11.4611L9.28455 12.0088L10.2572 11.4346L9.9479 10.8869L8.97529 11.4611Z" fill="#F2E73E"/>
<path d="M9.28474 12.0091L9.59399 12.5569L10.5666 11.9827L10.2574 11.4349L9.28474 12.0091Z" fill="#F2E73E"/>
<path d="M9.59394 12.5568L9.9032 13.1045L10.8758 12.5303L10.5666 11.9826L9.59394 12.5568Z" fill="#F2E73E"/>
<path d="M9.90315 13.1044L10.2124 13.6522L11.185 13.078L10.8758 12.5302L9.90315 13.1044Z" fill="#F2E73E"/>
<path d="M10.2067 13.642L10.5159 14.1898L11.4885 13.6156L11.1793 13.0678L10.2067 13.642Z" fill="#F2E73E"/>
<path d="M10.5159 14.1896L10.8252 14.7374L11.7978 14.1632L11.4886 13.6154L10.5159 14.1896Z" fill="#F2E73E"/>
<path d="M10.8251 14.7373L11.1344 15.285L12.107 14.7108L11.7978 14.1631L10.8251 14.7373Z" fill="#1D1D1B"/>
<path d="M11.1345 15.2853L11.4438 15.8331L12.4164 15.2589L12.1071 14.7111L11.1345 15.2853Z" fill="#1D1D1B"/>
<path d="M11.4438 15.833L11.7531 16.3807L12.7257 15.8065L12.4164 15.2588L11.4438 15.833Z" fill="#1D1D1B"/>
<path d="M11.753 16.3806L12.0623 16.9283L13.0349 16.3541L12.7256 15.8064L11.753 16.3806Z" fill="#1D1D1B"/>
<path d="M12.0622 16.9282L12.3715 17.4759L13.3441 16.9017L13.0348 16.354L12.0622 16.9282Z" fill="#1D1D1B"/>
<path d="M12.3657 17.4658L12.675 18.0135L13.6476 17.4393L13.3383 16.8916L12.3657 17.4658Z" fill="#1D1D1B"/>
<path d="M12.6749 18.0134L12.9842 18.5612L13.9568 17.987L13.6476 17.4392L12.6749 18.0134Z" fill="#1D1D1B"/>
<path d="M12.9841 18.5611L13.2934 19.1088L14.266 18.5346L13.9568 17.9869L12.9841 18.5611Z" fill="#F2E73E"/>
<path d="M13.2936 19.1091L13.6028 19.6568L14.5755 19.0826L14.2662 18.5349L13.2936 19.1091Z" fill="#F2E73E"/>
<path d="M13.6028 19.6567L13.912 20.2045L14.8847 19.6303L14.5754 19.0825L13.6028 19.6567Z" fill="#F2E73E"/>
<path d="M13.912 20.2044L14.2213 20.7521L15.1939 20.1779L14.8846 19.6302L13.912 20.2044Z" fill="#F2E73E"/>
<path d="M14.2155 20.742L14.5248 21.2897L15.4974 20.7155L15.1881 20.1678L14.2155 20.742Z" fill="#F2E73E"/>
<path d="M14.5247 21.2896L14.834 21.8373L15.8066 21.2631L15.4973 20.7154L14.5247 21.2896Z" fill="#F2E73E"/>
<path d="M14.8339 21.8372L15.1432 22.3849L16.1158 21.8108L15.8065 21.263L14.8339 21.8372Z" fill="#F2E73E"/>
<path d="M15.1434 22.3853L15.4526 22.933L16.4253 22.3588L16.116 21.8111L15.1434 22.3853Z" fill="#1D1D1B"/>
<path d="M15.4526 22.9329L15.7618 23.4807L16.7345 22.9065L16.4252 22.3587L15.4526 22.9329Z" fill="#222321"/>
<path d="M7.07539 10.3922L7.38464 10.9399L8.35727 10.3657L8.04801 9.81799L7.07539 10.3922Z" fill="#1D1D1B"/>
<path d="M7.38459 10.9398L7.69385 11.4876L8.66647 10.9134L8.35722 10.3656L7.38459 10.9398Z" fill="#F2E73E"/>
<path d="M7.6938 11.4875L8.00305 12.0352L8.97568 11.461L8.66642 10.9133L7.6938 11.4875Z" fill="#F2E73E"/>
<path d="M8.003 12.0351L8.31226 12.5828L9.28488 12.0086L8.97562 11.4609L8.003 12.0351Z" fill="#F2E73E"/>
<path d="M8.31221 12.5827L8.62146 13.1304L9.59408 12.5562L9.28483 12.0085L8.31221 12.5827Z" fill="#F2E73E"/>
<path d="M8.62165 13.1308L8.93091 13.6785L9.90353 13.1043L9.59428 12.5566L8.62165 13.1308Z" fill="#F2E73E"/>
<path d="M8.93086 13.6784L9.24011 14.2261L10.2127 13.6519L9.90348 13.1042L8.93086 13.6784Z" fill="#F2E73E"/>
<path d="M9.23439 14.216L9.54364 14.7637L10.5163 14.1895L10.207 13.6418L9.23439 14.216Z" fill="#F2E73E"/>
<path d="M9.54365 14.7636L9.85291 15.3113L10.8255 14.7371L10.5163 14.1894L9.54365 14.7636Z" fill="#1D1D1B"/>
<path d="M12.0121 19.1355L12.3214 19.6832L13.294 19.109L12.9847 18.5613L12.0121 19.1355Z" fill="#1D1D1B"/>
<path d="M12.3213 19.6831L12.6306 20.2309L13.6032 19.6567L13.2939 19.1089L12.3213 19.6831Z" fill="#F2E73E"/>
<path d="M12.6305 20.2307L12.9398 20.7785L13.9124 20.2043L13.6031 19.6565L12.6305 20.2307Z" fill="#F2E73E"/>
<path d="M12.9397 20.7784L13.249 21.3261L14.2216 20.7519L13.9123 20.2042L12.9397 20.7784Z" fill="#F2E73E"/>
<path d="M13.2425 21.3164L13.5518 21.8641L14.5244 21.2899L14.2151 20.7422L13.2425 21.3164Z" fill="#F2E73E"/>
<path d="M13.5527 21.864L13.8619 22.4118L14.8346 21.8376L14.5253 21.2898L13.5527 21.864Z" fill="#F2E73E"/>
<path d="M13.8619 22.4117L14.1711 22.9594L15.1438 22.3852L14.8345 21.8375L13.8619 22.4117Z" fill="#F2E73E"/>
<path d="M14.1711 22.9593L14.4803 23.507L15.453 22.9328L15.1437 22.3851L14.1711 22.9593Z" fill="#F2E73E"/>
<path d="M14.4803 23.5069L14.7896 24.0546L15.7622 23.4804L15.4529 22.9327L14.4803 23.5069Z" fill="#1D1D1B"/>
<path d="M6.10237 10.9667L6.41162 11.5144L7.38424 10.9402L7.07498 10.3925L6.10237 10.9667Z" fill="#1D1D1B"/>
<path d="M6.41157 11.5143L6.72083 12.062L7.69344 11.4878L7.38419 10.9401L6.41157 11.5143Z" fill="#F2E73E"/>
<path d="M6.72078 12.062L7.03003 12.6097L8.00264 12.0355L7.69339 11.4878L6.72078 12.062Z" fill="#F2E73E"/>
<path d="M7.02997 12.6096L7.33923 13.1573L8.31185 12.5831L8.00259 12.0354L7.02997 12.6096Z" fill="#F2E73E"/>
<path d="M7.33943 13.1576L7.64868 13.7053L8.6213 13.1311L8.31204 12.5834L7.33943 13.1576Z" fill="#F2E73E"/>
<path d="M7.64863 13.7053L7.95789 14.253L8.9305 13.6788L8.62125 13.1311L7.64863 13.7053Z" fill="#F2E73E"/>
<path d="M7.95784 14.2529L8.26709 14.8007L9.23971 14.2265L8.93045 13.6787L7.95784 14.2529Z" fill="#F2E73E"/>
<path d="M8.26136 14.7905L8.57062 15.3382L9.54323 14.764L9.23398 14.2163L8.26136 14.7905Z" fill="#1D1D1B"/>
<path d="M5.28842 16.4858L8.70874 22.5435L9.74007 21.9346L6.31975 15.8769L5.28842 16.4858Z" fill="#1D1D1B"/>
<path d="M11.3483 20.2576L11.6575 20.8053L12.6301 20.2311L12.3209 19.6834L11.3483 20.2576Z" fill="#1D1D1B"/>
<path d="M11.6575 20.8052L11.9667 21.3529L12.9394 20.7787L12.6301 20.231L11.6575 20.8052Z" fill="#F2E73E"/>
<path d="M11.9667 21.3529L12.2759 21.9006L13.2486 21.3264L12.9393 20.7787L11.9667 21.3529Z" fill="#F2E73E"/>
<path d="M12.2702 21.8905L12.5795 22.4382L13.5521 21.864L13.2428 21.3163L12.2702 21.8905Z" fill="#F2E73E"/>
<path d="M12.5794 22.4381L12.8887 22.9858L13.8613 22.4116L13.552 21.8639L12.5794 22.4381Z" fill="#F2E73E"/>
<path d="M12.8889 22.9861L13.1981 23.5338L14.1707 22.9596L13.8615 22.4119L12.8889 22.9861Z" fill="#F2E73E"/>
<path d="M13.1981 23.5338L13.5073 24.0815L14.4799 23.5073L14.1707 22.9596L13.1981 23.5338Z" fill="#F2E73E"/>
<path d="M13.5073 24.0814L13.8165 24.6292L14.7891 24.055L14.4799 23.5072L13.5073 24.0814Z" fill="#1D1D1B"/>
<path d="M5.13008 11.5407L5.43933 12.0884L6.41196 11.5142L6.1027 10.9665L5.13008 11.5407Z" fill="#1D1D1B"/>
<path d="M5.43928 12.0883L5.74854 12.636L6.72116 12.0618L6.4119 11.5141L5.43928 12.0883Z" fill="#F2E73E"/>
<path d="M5.74848 12.636L6.05774 13.1837L7.03036 12.6095L6.72111 12.0618L5.74848 12.636Z" fill="#F2E73E"/>
<path d="M6.05768 13.1836L6.36694 13.7313L7.33957 13.1571L7.03031 12.6094L6.05768 13.1836Z" fill="#F2E73E"/>
<path d="M6.36689 13.7312L6.67615 14.2789L7.64877 13.7047L7.33952 13.157L6.36689 13.7312Z" fill="#F2E73E"/>
<path d="M6.67634 14.2793L6.9856 14.827L7.95822 14.2528L7.64897 13.7051L6.67634 14.2793Z" fill="#F2E73E"/>
<path d="M6.98555 14.8269L7.2948 15.3746L8.26742 14.8004L7.95817 14.2527L6.98555 14.8269Z" fill="#1D1D1B"/>
<path d="M7.28907 15.3645L7.59833 15.9122L8.57095 15.338L8.2617 14.7903L7.28907 15.3645Z" fill="#1D1D1B"/>
<path d="M10.376 20.8316L10.6852 21.3793L11.6579 20.8051L11.3486 20.2574L10.376 20.8316Z" fill="#1D1D1B"/>
<path d="M10.6852 21.3792L10.9944 21.9269L11.9671 21.3527L11.6578 20.805L10.6852 21.3792Z" fill="#1D1D1B"/>
<path d="M10.9944 21.9269L11.3036 22.4746L12.2763 21.9004L11.967 21.3526L10.9944 21.9269Z" fill="#F2E73E"/>
<path d="M11.2979 22.4645L11.6072 23.0122L12.5798 22.438L12.2705 21.8902L11.2979 22.4645Z" fill="#F2E73E"/>
<path d="M11.6071 23.0121L11.9164 23.5598L12.889 22.9856L12.5798 22.4379L11.6071 23.0121Z" fill="#F2E73E"/>
<path d="M11.9166 23.5602L12.2258 24.1079L13.1985 23.5337L12.8892 22.986L11.9166 23.5602Z" fill="#F2E73E"/>
<path d="M12.2258 24.1078L12.535 24.6555L13.5077 24.0813L13.1984 23.5336L12.2258 24.1078Z" fill="#F2E73E"/>
<path d="M12.535 24.6554L12.8442 25.2031L13.8169 24.6289L13.5076 24.0812L12.535 24.6554Z" fill="#1D1D1B"/>
<path d="M4.46626 12.6626L4.77551 13.2103L5.74813 12.6361L5.43888 12.0884L4.46626 12.6626Z" fill="#1D1D1B"/>
<path d="M4.77546 13.2105L5.08472 13.7582L6.05734 13.184L5.74808 12.6363L4.77546 13.2105Z" fill="#F2E73E"/>
<path d="M5.08466 13.7581L5.39392 14.3058L6.36654 13.7316L6.05728 13.1839L5.08466 13.7581Z" fill="#F2E73E"/>
<path d="M5.39387 14.3057L5.70312 14.8534L6.67575 14.2792L6.36649 13.7315L5.39387 14.3057Z" fill="#F2E73E"/>
<path d="M5.70332 14.8537L6.01257 15.4015L6.98519 14.8273L6.67594 14.2796L5.70332 14.8537Z" fill="#F2E73E"/>
<path d="M6.01252 15.4014L6.32178 15.9491L7.2944 15.3749L6.98514 14.8272L6.01252 15.4014Z" fill="#F2E73E"/>
<path d="M6.31605 15.939L6.62531 16.4867L7.59793 15.9125L7.28867 15.3648L6.31605 15.939Z" fill="#1D1D1B"/>
<path d="M9.40296 21.4061L9.71222 21.9538L10.6848 21.3796L10.3756 20.8319L9.40296 21.4061Z" fill="#1D1D1B"/>
<path d="M9.71217 21.9538L10.0214 22.5015L10.994 21.9273L10.6848 21.3796L9.71217 21.9538Z" fill="#F2E73E"/>
<path d="M10.0214 22.5013L10.3306 23.0491L11.3032 22.4749L10.994 21.9272L10.0214 22.5013Z" fill="#F2E73E"/>
<path d="M10.3249 23.039L10.6342 23.5867L11.6068 23.0125L11.2975 22.4648L10.3249 23.039Z" fill="#F2E73E"/>
<path d="M10.6343 23.587L10.9436 24.1347L11.9162 23.5605L11.607 23.0128L10.6343 23.587Z" fill="#F2E73E"/>
<path d="M10.9433 24.1342L11.2526 24.6819L12.2252 24.1077L11.9159 23.56L10.9433 24.1342Z" fill="#F2E73E"/>
<path d="M11.2528 24.6823L11.562 25.23L12.5346 24.6558L12.2254 24.1081L11.2528 24.6823Z" fill="#1D1D1B"/>
<path d="M3.80317 13.7845L4.11243 14.3322L5.08505 13.758L4.77579 13.2103L3.80317 13.7845Z" fill="#1D1D1B"/>
<path d="M4.11237 14.3321L4.42163 14.8798L5.39425 14.3056L5.08499 13.7579L4.11237 14.3321Z" fill="#F2E73E"/>
<path d="M4.42182 14.8802L4.73108 15.4279L5.7037 14.8537L5.39444 14.306L4.42182 14.8802Z" fill="#F2E73E"/>
<path d="M4.73103 15.4278L5.04028 15.9755L6.0129 15.4013L5.70365 14.8536L4.73103 15.4278Z" fill="#F2E73E"/>
<path d="M5.04023 15.9754L5.34949 16.5231L6.32211 15.9489L6.01285 15.4012L5.04023 15.9754Z" fill="#F2E73E"/>
<path d="M5.34376 16.513L5.65302 17.0607L6.62563 16.4865L6.31638 15.9388L5.34376 16.513Z" fill="#1D1D1B"/>
<path d="M8.43067 21.9801L8.73993 22.5278L9.71255 21.9536L9.40329 21.4059L8.43067 21.9801Z" fill="#1D1D1B"/>
<path d="M8.73988 22.5277L9.04913 23.0754L10.0218 22.5012L9.7125 21.9535L8.73988 22.5277Z" fill="#F2E73E"/>
<path d="M9.04908 23.0753L9.35834 23.6231L10.331 23.0489L10.0217 22.5011L9.04908 23.0753Z" fill="#F2E73E"/>
<path d="M9.35261 23.6129L9.66187 24.1607L10.6345 23.5865L10.3252 23.0387L9.35261 23.6129Z" fill="#F2E73E"/>
<path d="M9.66182 24.1606L9.97107 24.7083L10.9437 24.1341L10.6344 23.5864L9.66182 24.1606Z" fill="#F2E73E"/>
<path d="M9.97126 24.7086L10.2805 25.2564L11.2531 24.6822L10.9439 24.1344L9.97126 24.7086Z" fill="#1D1D1B"/>
<path d="M3.14918 14.9007L3.45844 15.4484L4.43105 14.8742L4.1218 14.3265L3.14918 14.9007Z" fill="#1D1D1B"/>
<path d="M3.45863 15.4487L3.76788 15.9964L4.7405 15.4222L4.43125 14.8745L3.45863 15.4487Z" fill="#1D1D1B"/>
<path d="M3.76783 15.9964L4.07709 16.5441L5.04971 15.9699L4.74045 15.4222L3.76783 15.9964Z" fill="#F2E73E"/>
<path d="M4.0771 16.544L4.38635 17.0917L5.35897 16.5175L5.04972 15.9698L4.0771 16.544Z" fill="#F2E73E"/>
<path d="M4.38057 17.0816L4.68982 17.6293L5.66244 17.0551L5.35318 16.5074L4.38057 17.0816Z" fill="#F2E73E"/>
<path d="M4.68983 17.6292L4.99908 18.1769L5.9717 17.6027L5.66245 17.055L4.68983 17.6292Z" fill="#F2E73E"/>
<path d="M4.99922 18.1773L5.30847 18.725L6.28109 18.1508L5.97184 17.6031L4.99922 18.1773Z" fill="#F2E73E"/>
<path d="M5.30848 18.7249L5.61774 19.2726L6.59036 18.6984L6.2811 18.1507L5.30848 18.7249Z" fill="#F2E73E"/>
<path d="M5.61768 19.2725L5.92694 19.8202L6.89956 19.246L6.5903 18.6983L5.61768 19.2725Z" fill="#F2E73E"/>
<path d="M5.92689 19.8202L6.23615 20.3679L7.20876 19.7937L6.89951 19.246L5.92689 19.8202Z" fill="#F2E73E"/>
<path d="M6.23609 20.3678L6.54535 20.9155L7.51797 20.3413L7.20871 19.7936L6.23609 20.3678Z" fill="#F2E73E"/>
<path d="M6.53962 20.9054L6.84888 21.4531L7.8215 20.8789L7.51224 20.3312L6.53962 20.9054Z" fill="#F2E73E"/>
<path d="M6.84883 21.453L7.15808 22.0007L8.1307 21.4265L7.82145 20.8788L6.84883 21.453Z" fill="#F2E73E"/>
<path d="M7.15803 22.0006L7.46729 22.5483L8.4399 21.9741L8.13065 21.4264L7.15803 22.0006Z" fill="#F2E73E"/>
<path d="M7.46748 22.5487L7.77673 23.0964L8.74935 22.5222L8.4401 21.9745L7.46748 22.5487Z" fill="#F2E73E"/>
<path d="M7.77668 23.0963L8.08594 23.6441L9.05856 23.0699L8.7493 22.5221L7.77668 23.0963Z" fill="#F2E73E"/>
<path d="M8.08588 23.644L8.39514 24.1917L9.36776 23.6175L9.0585 23.0698L8.08588 23.644Z" fill="#F2E73E"/>
<path d="M8.38942 24.1816L8.69867 24.7293L9.67129 24.1551L9.36203 23.6074L8.38942 24.1816Z" fill="#21221F"/>
<path d="M8.69862 24.7292L9.00787 25.2769L9.98049 24.7027L9.67124 24.155L8.69862 24.7292Z" fill="#1D1D1B"/>
<path d="M2.79554 16.5704L3.1048 17.1181L4.07742 16.5439L3.76817 15.9962L2.79554 16.5704Z" fill="#1D1D1B"/>
<path d="M3.10481 17.118L3.41406 17.6657L4.38669 17.0915L4.07743 16.5438L3.10481 17.118Z" fill="#1D1D1B"/>
<path d="M3.40827 17.6556L3.71753 18.2033L4.69015 17.6291L4.3809 17.0814L3.40827 17.6556Z" fill="#F2E73E"/>
<path d="M3.71754 18.2032L4.02679 18.7509L4.99942 18.1767L4.69016 17.629L3.71754 18.2032Z" fill="#F2E73E"/>
<path d="M4.02674 18.7509L4.336 19.2986L5.30862 18.7244L4.99937 18.1767L4.02674 18.7509Z" fill="#F2E73E"/>
<path d="M4.33619 19.2989L4.64545 19.8466L5.61807 19.2724L5.30882 18.7247L4.33619 19.2989Z" fill="#F2E73E"/>
<path d="M4.64539 19.8465L4.95465 20.3942L5.92728 19.82L5.61802 19.2723L4.64539 19.8465Z" fill="#F2E73E"/>
<path d="M4.9546 20.3942L5.26385 20.9419L6.23648 20.3677L5.92722 19.82L4.9546 20.3942Z" fill="#F2E73E"/>
<path d="M5.2638 20.9418L5.57306 21.4895L6.54568 20.9153L6.23643 20.3676L5.2638 20.9418Z" fill="#F2E73E"/>
<path d="M5.56733 21.4794L5.87659 22.0271L6.84921 21.4529L6.53995 20.9052L5.56733 21.4794Z" fill="#F2E73E"/>
<path d="M5.87654 22.027L6.18579 22.5747L7.15842 22.0005L6.84916 21.4528L5.87654 22.027Z" fill="#F2E73E"/>
<path d="M6.18599 22.5751L6.49524 23.1228L7.46786 22.5486L7.15861 22.0009L6.18599 22.5751Z" fill="#F2E73E"/>
<path d="M6.49519 23.1227L6.80444 23.6704L7.77707 23.0962L7.46781 22.5485L6.49519 23.1227Z" fill="#F2E73E"/>
<path d="M6.80439 23.6703L7.11365 24.218L8.08627 23.6438L7.77702 23.0961L6.80439 23.6703Z" fill="#1D1D1B"/>
<path d="M7.11365 24.2179L7.42291 24.7656L8.39554 24.1914L8.08628 23.6437L7.11365 24.2179Z" fill="#1D1D1B"/>
<path d="M2.74482 18.7775L3.05408 19.3252L4.0267 18.751L3.71744 18.2033L2.74482 18.7775Z" fill="#1D1D1B"/>
<path d="M2.43562 18.2298L2.74487 18.7775L3.71749 18.2034L3.40824 17.6556L2.43562 18.2298Z" fill="#1D1D1B"/>
<path d="M3.05409 19.3251L3.36334 19.8728L4.33596 19.2986L4.02671 18.7509L3.05409 19.3251Z" fill="#1D1D1B"/>
<path d="M3.36348 19.8732L3.67273 20.4209L4.64535 19.8467L4.33609 19.299L3.36348 19.8732Z" fill="#1D1D1B"/>
<path d="M3.67274 20.4208L3.98199 20.9685L4.95461 20.3943L4.64535 19.8466L3.67274 20.4208Z" fill="#1D1D1B"/>
<path d="M3.98194 20.9684L4.2912 21.5161L5.26382 20.9419L4.95456 20.3942L3.98194 20.9684Z" fill="#1D1D1B"/>
<path d="M4.29115 21.516L4.6004 22.0637L5.57302 21.4895L5.26377 20.9418L4.29115 21.516Z" fill="#1D1D1B"/>
<path d="M4.59467 22.0536L4.90393 22.6014L5.87655 22.0272L5.56729 21.4794L4.59467 22.0536Z" fill="#1D1D1B"/>
<path d="M4.90388 22.6013L5.21313 23.149L6.18575 22.5748L5.8765 22.0271L4.90388 22.6013Z" fill="#1D1D1B"/>
<path d="M5.21333 23.1493L5.52258 23.697L6.4952 23.1228L6.18595 22.5751L5.21333 23.1493Z" fill="#1D1D1B"/>
<path d="M5.52253 23.6969L5.83179 24.2446L6.80441 23.6704L6.49515 23.1227L5.52253 23.6969Z" fill="#1D1D1B"/>
</svg>
