<svg width="41" height="40" viewBox="0 0 41 40" fill="none" xmlns="http://www.w3.org/2000/svg">
<rect x="4.08478" width="33.6" height="1.6" fill="#8B2BFF"/>
<rect x="4.08478" y="38.4005" width="33.6" height="1.6" fill="#8B2BFF"/>
<rect x="2.48526" y="3.20007" width="33.6" height="1.6" transform="rotate(90 2.48526 3.20007)" fill="#8B2BFF"/>
<rect x="40.8848" y="3.20007" width="33.6" height="1.6" transform="rotate(90 40.8848 3.20007)" fill="#8B2BFF"/>
<rect x="2.48526" y="1.59949" width="1.6" height="1.6" fill="#8B2BFF"/>
<rect x="2.48526" y="36.7999" width="1.6" height="1.6" fill="#8B2BFF"/>
<rect x="37.6847" y="1.59949" width="1.6" height="1.6" fill="#8B2BFF"/>
<rect x="37.6847" y="36.7999" width="1.6" height="1.6" fill="#8B2BFF"/>
<rect x="13.8846" y="13.0005" width="13.9997" height="13.9997" fill="#8B2BFF"/>
<path d="M14.9916 12.0085C18.9202 11.9985 22.8494 11.996 26.778 12.0091C26.7805 12.3477 26.7786 12.6863 26.7799 13.025C22.85 13.025 18.9196 13.025 14.9897 13.025C14.991 12.6857 14.9891 12.3471 14.9916 12.0085Z" fill="#8B2BFF"/>
<path d="M13.9094 13.1992C13.8956 13.1023 13.9856 13.0161 14.0812 13.0274C14.3817 13.0211 14.6828 13.0261 14.9839 13.0305C14.9933 13.3872 14.992 13.7439 14.9833 14.1013C14.6266 14.11 14.2692 14.1107 13.9125 14.1019C13.9087 13.8008 13.9025 13.4997 13.9094 13.1992Z" fill="#8B2BFF"/>
<path d="M26.7862 13.0287C27.0873 13.0244 27.3884 13.0188 27.6896 13.025C27.782 13.015 27.8701 13.1037 27.8614 13.1968C27.867 13.4979 27.862 13.7991 27.8576 14.1002C27.5009 14.1096 27.1435 14.1083 26.7868 14.0996C26.7781 13.7422 26.7768 13.3855 26.7862 13.0287Z" fill="#8B2BFF"/>
<path d="M12.8932 14.1089C13.2318 14.1064 13.5704 14.1076 13.909 14.1076C13.9084 18.0366 13.909 21.9656 13.909 25.8947C13.5704 25.8928 13.2318 25.8947 12.8932 25.8928C12.8782 23.5125 12.8913 21.1316 12.8863 18.7513C12.8907 17.2038 12.8775 15.6564 12.8932 14.1089Z" fill="#8B2BFF"/>
<path d="M27.8621 14.1076C28.2007 14.1076 28.5393 14.1064 28.8785 14.1089C28.8879 18.0366 28.8873 21.965 28.8791 25.8928C28.5399 25.8947 28.2007 25.8934 27.8621 25.8947C27.8627 21.9656 27.8621 18.0366 27.8621 14.1076Z" fill="#8B2BFF"/>
<path d="M13.9125 25.8977C14.2693 25.8883 14.6266 25.889 14.9833 25.8983C14.9921 26.2551 14.9927 26.6124 14.984 26.9691C14.6828 26.9735 14.3817 26.9785 14.0812 26.9729C13.9875 26.9823 13.8994 26.8929 13.9088 26.8005C13.9032 26.4993 13.9082 26.1988 13.9125 25.8977Z" fill="#8B2BFF"/>
<path d="M26.7868 25.9005C27.1435 25.8912 27.5009 25.8905 27.8576 25.8999C27.862 26.201 27.867 26.5022 27.8614 26.8033C27.8701 26.8945 27.782 26.9838 27.6896 26.9751C27.3884 26.9807 27.0873 26.9751 26.7862 26.9713C26.7768 26.6146 26.7781 26.2573 26.7868 25.9005Z" fill="#8B2BFF"/>
<path d="M14.9897 26.9761C18.9196 26.9761 22.85 26.9761 26.7799 26.9761C26.7786 27.3147 26.7805 27.6533 26.778 27.9925C24.939 28.0138 23.0987 27.9894 21.2597 28.0013C19.1701 27.9907 17.0812 28.0125 14.9916 27.9925C14.9891 27.6533 14.991 27.3147 14.9897 26.9761Z" fill="#8B2BFF"/>
<path d="M24.3939 15.4985C24.8512 15.5017 25.3085 15.4942 25.7652 15.5048C25.7752 15.9615 25.7683 16.4188 25.7708 16.8761C25.3104 16.8892 24.8499 16.8817 24.3889 16.8811C24.3876 16.42 24.3807 15.959 24.3939 15.4985Z" fill="white"/>
<path d="M18.4341 16.5923C19.837 16.5749 21.2411 16.5749 22.6433 16.5923C22.6414 16.9272 22.6439 17.2621 22.6421 17.5969C21.2398 17.6069 19.8376 17.6063 18.4354 17.5969C18.4335 17.2621 18.436 16.9272 18.4341 16.5923Z" fill="white"/>
<path d="M17.4165 17.6095C17.7557 17.5945 18.0956 17.6095 18.4348 17.597C18.4336 17.94 18.4354 18.283 18.4323 18.626C18.0893 18.6285 17.7463 18.6273 17.4034 18.6285C17.4165 18.2886 17.4009 17.9488 17.4165 17.6095Z" fill="white"/>
<path d="M22.6423 17.597C22.9803 17.6083 23.3189 17.5989 23.6575 17.6052C23.6768 17.9457 23.6606 18.2874 23.6737 18.6285C23.3307 18.6273 22.9878 18.6291 22.6448 18.626C22.6416 18.283 22.6435 17.94 22.6423 17.597Z" fill="white"/>
<path d="M16.3988 18.6257C16.7337 18.6276 17.0686 18.6251 17.4034 18.627C17.4134 20.0289 17.4134 21.4308 17.4034 22.8328C17.0686 22.834 16.7337 22.8321 16.3995 22.834C16.3807 21.4315 16.3813 20.0277 16.3988 18.6257Z" fill="white"/>
<path d="M23.6738 18.627C24.0087 18.6251 24.3435 18.627 24.6784 18.6257C24.6959 20.0283 24.6959 21.4321 24.6784 22.8346C24.3435 22.8315 24.0087 22.834 23.6738 22.8328C23.6638 21.4308 23.6638 20.0289 23.6738 18.627Z" fill="white"/>
<path d="M17.4034 22.8335C17.7463 22.8341 18.0893 22.8322 18.4323 22.836C18.4354 23.179 18.4336 23.5213 18.4348 23.8649C18.0956 23.8518 17.7563 23.8668 17.4171 23.8525C17.4009 23.5126 17.4165 23.1727 17.4034 22.8335Z" fill="white"/>
<path d="M22.6448 22.836C22.9878 22.8322 23.3307 22.8341 23.6737 22.8335C23.6612 23.1721 23.6737 23.5113 23.6631 23.85C23.3232 23.8674 22.9821 23.8518 22.6423 23.8649C22.6435 23.5213 22.6416 23.1784 22.6448 22.836Z" fill="white"/>
<path d="M18.4354 23.8632C19.8376 23.8532 21.2398 23.8532 22.6421 23.8632C22.6439 24.1974 22.6414 24.5323 22.6433 24.8672C21.2411 24.8859 19.837 24.8853 18.4341 24.8678C18.436 24.5323 18.4335 24.1974 18.4354 23.8632Z" fill="white"/>
</svg>
