<svg width="40" height="40" viewBox="0 0 40 40" fill="none" xmlns="http://www.w3.org/2000/svg">
<rect x="3.19952" width="33.6" height="1.6" fill="white"/>
<rect x="3.19952" y="38.4005" width="33.6" height="1.6" fill="white"/>
<rect x="1.60004" y="3.20001" width="33.6" height="1.6" transform="rotate(90 1.60004 3.20001)" fill="white"/>
<rect x="39.9995" y="3.20001" width="33.6" height="1.6" transform="rotate(90 39.9995 3.20001)" fill="white"/>
<rect x="1.60004" y="1.59949" width="1.6" height="1.6" fill="white"/>
<rect x="1.60004" y="36.8" width="1.6" height="1.6" fill="white"/>
<rect x="36.7994" y="1.59949" width="1.6" height="1.6" fill="white"/>
<rect x="36.7994" y="36.8" width="1.6" height="1.6" fill="white"/>
<rect x="12.9993" y="13.0005" width="13.9997" height="13.9997" fill="white"/>
<path d="M14.1064 12.0085C18.035 11.9985 21.9642 11.996 25.8928 12.0091C25.8953 12.3477 25.8934 12.6863 25.8946 13.025C21.9648 13.025 18.0343 13.025 14.1045 13.025C14.1057 12.6857 14.1039 12.3471 14.1064 12.0085Z" fill="white"/>
<path d="M13.0241 13.1992C13.0104 13.1023 13.1004 13.0161 13.1959 13.0274C13.4964 13.0211 13.7976 13.0261 14.0987 13.0305C14.1081 13.3872 14.1068 13.7439 14.0981 14.1013C13.7413 14.11 13.384 14.1107 13.0273 14.1019C13.0235 13.8008 13.0173 13.4997 13.0241 13.1992Z" fill="white"/>
<path d="M25.901 13.0287C26.2021 13.0244 26.5032 13.0188 26.8044 13.025C26.8968 13.015 26.9849 13.1037 26.9762 13.1968C26.9818 13.4979 26.9768 13.7991 26.9724 14.1002C26.6157 14.1096 26.2583 14.1083 25.9016 14.0996C25.8928 13.7422 25.8916 13.3855 25.901 13.0287Z" fill="white"/>
<path d="M12.0079 14.1089C12.3465 14.1064 12.6851 14.1076 13.0237 14.1076C13.0231 18.0366 13.0237 21.9656 13.0237 25.8947C12.6851 25.8928 12.3465 25.8947 12.0079 25.8928C11.9929 23.5125 12.006 21.1316 12.001 18.7513C12.0054 17.2038 11.9923 15.6564 12.0079 14.1089Z" fill="white"/>
<path d="M26.9768 14.1076C27.3154 14.1076 27.654 14.1064 27.9933 14.1089C28.0026 18.0366 28.002 21.965 27.9939 25.8928C27.6547 25.8947 27.3154 25.8934 26.9768 25.8947C26.9774 21.9656 26.9768 18.0366 26.9768 14.1076Z" fill="white"/>
<path d="M13.0273 25.8978C13.384 25.8884 13.7414 25.889 14.0981 25.8984C14.1069 26.2551 14.1075 26.6125 14.0987 26.9692C13.7976 26.9736 13.4965 26.9786 13.196 26.973C13.1023 26.9823 13.0142 26.893 13.0236 26.8005C13.0179 26.4994 13.0229 26.1989 13.0273 25.8978Z" fill="white"/>
<path d="M25.9016 25.9005C26.2583 25.8912 26.6157 25.8905 26.9724 25.8999C26.9768 26.201 26.9818 26.5022 26.9762 26.8033C26.9849 26.8945 26.8968 26.9838 26.8044 26.9751C26.5032 26.9807 26.2021 26.9751 25.901 26.9713C25.8916 26.6146 25.8928 26.2573 25.9016 25.9005Z" fill="white"/>
<path d="M14.1045 26.9761C18.0343 26.9761 21.9648 26.9761 25.8946 26.9761C25.8934 27.3147 25.8953 27.6533 25.8928 27.9925C24.0538 28.0138 22.2135 27.9894 20.3745 28.0013C18.2849 27.9907 16.196 28.0125 14.1064 27.9925C14.1039 27.6533 14.1057 27.3147 14.1045 26.9761Z" fill="white"/>
<path d="M23.5086 15.4985C23.966 15.5017 24.4233 15.4942 24.88 15.5048C24.89 15.9615 24.8831 16.4188 24.8856 16.8761C24.4251 16.8892 23.9647 16.8817 23.5036 16.8811C23.5024 16.42 23.4955 15.959 23.5086 15.4985Z" fill="#8B2AFF"/>
<path d="M17.5489 16.5923C18.9517 16.5749 20.3558 16.5749 21.7581 16.5923C21.7562 16.9272 21.7587 17.2621 21.7568 17.5969C20.3546 17.6069 18.9524 17.6063 17.5501 17.5969C17.5483 17.2621 17.5508 16.9272 17.5489 16.5923Z" fill="#8B2AFF"/>
<path d="M16.5312 17.6095C16.8704 17.5945 17.2103 17.6095 17.5495 17.597C17.5483 17.94 17.5501 18.283 17.547 18.626C17.204 18.6285 16.8611 18.6273 16.5181 18.6285C16.5312 18.2886 16.5156 17.9488 16.5312 17.6095Z" fill="#8B2AFF"/>
<path d="M21.757 17.597C22.095 17.6083 22.4336 17.5989 22.7722 17.6052C22.7916 17.9457 22.7754 18.2874 22.7885 18.6285C22.4455 18.6273 22.1025 18.6291 21.7595 18.626C21.7564 18.283 21.7583 17.94 21.757 17.597Z" fill="#8B2AFF"/>
<path d="M15.5136 18.6257C15.8484 18.6275 16.1833 18.625 16.5182 18.6269C16.5282 20.0288 16.5282 21.4308 16.5182 22.8327C16.1833 22.8339 15.8484 22.8321 15.5142 22.8339C15.4955 21.4314 15.4961 20.0276 15.5136 18.6257Z" fill="#8B2AFF"/>
<path d="M22.7886 18.6269C23.1234 18.625 23.4583 18.6269 23.7932 18.6257C23.8106 20.0282 23.8106 21.432 23.7932 22.8346C23.4583 22.8315 23.1234 22.8339 22.7886 22.8327C22.7786 21.4308 22.7786 20.0288 22.7886 18.6269Z" fill="#8B2AFF"/>
<path d="M16.5181 22.8336C16.8611 22.8342 17.204 22.8323 17.547 22.8361C17.5501 23.179 17.5483 23.5214 17.5495 23.865C17.2103 23.8519 16.871 23.8669 16.5318 23.8525C16.5156 23.5127 16.5312 23.1728 16.5181 22.8336Z" fill="#8B2AFF"/>
<path d="M21.7595 22.8361C22.1025 22.8323 22.4455 22.8342 22.7885 22.8336C22.776 23.1722 22.7885 23.5114 22.7779 23.85C22.438 23.8675 22.0969 23.8519 21.757 23.865C21.7583 23.5214 21.7564 23.1784 21.7595 22.8361Z" fill="#8B2AFF"/>
<path d="M17.5501 23.8631C18.9524 23.8532 20.3546 23.8532 21.7568 23.8631C21.7587 24.1974 21.7562 24.5323 21.7581 24.8671C20.3558 24.8859 18.9517 24.8852 17.5489 24.8677C17.5508 24.5323 17.5483 24.1974 17.5501 23.8631Z" fill="#8B2AFF"/>
</svg>
