<svg width="80" height="80" viewBox="0 0 80 80" fill="none" xmlns="http://www.w3.org/2000/svg">
<rect x="5.51764" width="68.9655" height="80" fill="white"/>
<rect x="80" y="7.27344" width="65.4546" height="80" transform="rotate(90 80 7.27344)" fill="white"/>
<rect x="2.75879" y="2.91016" width="2.75862" height="4.36364" fill="white"/>
<rect width="2.75862" height="4.36364" transform="matrix(-1 0 0 1 77.2412 2.91016)" fill="white"/>
<rect x="2.75879" y="72.7266" width="2.75862" height="4.36364" fill="white"/>
<rect width="2.75862" height="4.36364" transform="matrix(-1 0 0 1 77.2412 72.7266)" fill="white"/>
<path d="M35.3047 16H37.0824V18.0955H35.3047V16Z" fill="#8B2BFF"/>
<path d="M37.0823 17.0477H38.86V35.9071H37.0823V17.0477Z" fill="#8B2BFF"/>
<path d="M38.8604 18.0955H40.6381V20.191H38.8604V18.0955Z" fill="#8B2BFF"/>
<path d="M40.638 19.1432H42.4157V33.8116H40.638V19.1432Z" fill="#8B2BFF"/>
<path d="M42.4155 20.191H44.1933V22.2864H42.4155V20.191Z" fill="#8B2BFF"/>
<path d="M44.1937 21.2387H45.9714V31.7161H44.1937V21.2387Z" fill="#8B2BFF"/>
<path d="M45.9712 22.2864H47.749V24.3819H45.9712V22.2864Z" fill="#8B2BFF"/>
<path d="M35.3047 38.0025H37.0824L37.0823 17.0477L35.3047 17.0477V38.0025Z" fill="#8B2BFF"/>
<path d="M37.0823 36.9548H38.86V34.8593H37.0823V36.9548Z" fill="#8B2BFF"/>
<path d="M38.86 35.9071H40.6381L40.638 19.1432L38.8604 19.1432L38.86 35.9071Z" fill="#8B2BFF"/>
<path d="M40.638 34.8593H42.4157V32.7638H40.638V34.8593Z" fill="#8B2BFF"/>
<path d="M42.4157 33.8116H44.1933L44.1937 21.2387L42.4155 21.2387L42.4157 33.8116Z" fill="#8B2BFF"/>
<path d="M44.1937 32.7638H45.9714V30.6684H44.1937V32.7638Z" fill="#8B2BFF"/>
<path d="M45.9714 31.7161H47.749V23.3342H45.9712L45.9714 31.7161Z" fill="#8B2BFF"/>
<path d="M47.749 23.3342H49.5266V29.6206H47.7488L47.749 23.3342Z" fill="#8B2BFF"/>
<path d="M49.5269 24.3819H51.3047V26.4774H49.5269V24.3819Z" fill="#8B2BFF"/>
<path d="M49.5269 26.4774H51.3047V29.6206H49.5266L49.5269 26.4774Z" fill="#8B2BFF"/>
<path d="M47.7488 28.5729H49.5266V30.6684H47.7488V28.5729Z" fill="#8B2BFF"/>
<path d="M28.4678 55.1074V59.0039H27.1553V49.0508H30.8262C31.9154 49.0508 32.7676 49.3288 33.3828 49.8848C34.0026 50.4408 34.3125 51.1768 34.3125 52.0928C34.3125 53.0589 34.0094 53.804 33.4033 54.3281C32.8018 54.8477 31.9382 55.1074 30.8125 55.1074H28.4678ZM28.4678 54.0342H30.8262C31.528 54.0342 32.0658 53.8701 32.4395 53.542C32.8132 53.2093 33 52.7308 33 52.1064C33 51.514 32.8132 51.04 32.4395 50.6846C32.0658 50.3291 31.5531 50.1445 30.9014 50.1309H28.4678V54.0342ZM37.1631 59.0039H35.8984V48.5039H37.1631V59.0039ZM43.7598 59.0039C43.6868 58.8581 43.6276 58.5983 43.582 58.2246C42.9941 58.8353 42.2923 59.1406 41.4766 59.1406C40.7474 59.1406 40.1481 58.9355 39.6787 58.5254C39.2139 58.1107 38.9814 57.5866 38.9814 56.9531C38.9814 56.1829 39.2731 55.5859 39.8564 55.1621C40.4443 54.7337 41.2692 54.5195 42.3311 54.5195H43.5615V53.9385C43.5615 53.4964 43.4294 53.1455 43.165 52.8857C42.9007 52.6214 42.5111 52.4893 41.9961 52.4893C41.5449 52.4893 41.1667 52.6032 40.8613 52.8311C40.556 53.0589 40.4033 53.3346 40.4033 53.6582H39.1318C39.1318 53.2891 39.2617 52.9336 39.5215 52.5918C39.7858 52.2454 40.1413 51.972 40.5879 51.7715C41.0391 51.571 41.5335 51.4707 42.0713 51.4707C42.9235 51.4707 43.5911 51.6849 44.0742 52.1133C44.5573 52.5371 44.8079 53.1227 44.8262 53.8701V57.2744C44.8262 57.9535 44.9128 58.4935 45.0859 58.8945V59.0039H43.7598ZM41.6611 58.04C42.0576 58.04 42.4336 57.9375 42.7891 57.7324C43.1445 57.5273 43.402 57.2607 43.5615 56.9326V55.415H42.5703C41.0208 55.415 40.2461 55.8685 40.2461 56.7754C40.2461 57.1719 40.3783 57.4818 40.6426 57.7051C40.9069 57.9284 41.2464 58.04 41.6611 58.04ZM49.1191 57.1514L50.8418 51.6074H52.1953L49.2217 60.1455C48.7614 61.376 48.0299 61.9912 47.0273 61.9912L46.7881 61.9707L46.3164 61.8818V60.8564L46.6582 60.8838C47.0866 60.8838 47.4193 60.7972 47.6562 60.624C47.8978 60.4508 48.096 60.1341 48.251 59.6738L48.5312 58.9219L45.8926 51.6074H47.2734L49.1191 57.1514Z" fill="#8B2BFF"/>
</svg>
