<svg xmlns="http://www.w3.org/2000/svg" style="border: 0 !important; clip: rect(0 0 0 0) !important; height: 1px !important; margin: -1px !important; overflow: hidden !important; padding: 0 !important; position: absolute !important; width: 1px !important;" class="root-svg-symbols-element">
  <defs>
      <clipPath id="clip0"><path fill="#fff" transform="translate(0 4)" d="M0 0H219.327V24H0z"/></clipPath>
<clipPath id="clip0"><path fill="#fff" transform="rotate(-180 88 74.5)" d="M0 0H176V149H0z"/></clipPath>
  </defs>
    <symbol id="button-arrow" viewBox="0 0 25 24">
      <path d="M15.7931 6.70711C15.4026 6.31658 15.4026 5.68342 15.7931 5.29289C16.1837 4.90237 16.8168 4.90237 17.2074 5.29289L23.2073 11.2929C23.5979 11.6834 23.5979 12.3166 23.2073 12.7071L17.2074 18.7071C16.8168 19.0976 16.1837 19.0976 15.7931 18.7071C15.4026 18.3166 15.4026 17.6834 15.7931 17.2929L20.086 13H2.51103C1.95265 13 1.5 12.5523 1.5 12C1.5 11.4477 1.95265 11 2.51103 11H20.086L15.7931 6.70711Z" fill="#fff"/>
    </symbol>
    <symbol id="inst-icon" viewBox="0 0 24 24">
      <path opacity=".1" fill-rule="evenodd" clip-rule="evenodd" d="M0 12C0 5.37258 5.37258 0 12 0C18.6274 0 24 5.37258 24 12C24 18.6274 18.6274 24 12 24C5.37258 24 0 18.6274 0 12Z" fill="#18191F"/><path fill-rule="evenodd" clip-rule="evenodd" d="M12.0006 5.6001C10.2624 5.6001 10.0443 5.6077 9.36161 5.63876C8.68027 5.66997 8.2152 5.77783 7.80827 5.9361C7.38733 6.09957 7.03026 6.31824 6.67452 6.67411C6.31852 7.02985 6.09985 7.38692 5.93585 7.80772C5.77718 8.21479 5.66918 8.68 5.63851 9.36107C5.60798 10.0437 5.59998 10.262 5.59998 12.0002C5.59998 13.7383 5.60771 13.9558 5.63864 14.6385C5.66998 15.3198 5.77784 15.7849 5.93598 16.1918C6.09958 16.6127 6.31825 16.9698 6.67412 17.3256C7.02972 17.6816 7.38679 17.9008 7.80747 18.0642C8.21467 18.2225 8.67987 18.3304 9.36108 18.3616C10.0438 18.3926 10.2618 18.4002 11.9998 18.4002C13.7381 18.4002 13.9555 18.3926 14.6382 18.3616C15.3195 18.3304 15.7851 18.2225 16.1924 18.0642C16.6132 17.9008 16.9697 17.6816 17.3253 17.3256C17.6813 16.9698 17.9 16.6127 18.064 16.1919C18.2213 15.7849 18.3293 15.3197 18.3613 14.6386C18.392 13.9559 18.4 13.7383 18.4 12.0002C18.4 10.262 18.392 10.0439 18.3613 9.3612C18.3293 8.67986 18.2213 8.21479 18.064 7.80785C17.9 7.38692 17.6813 7.02985 17.3253 6.67411C16.9693 6.31811 16.6133 6.09944 16.192 5.9361C15.7839 5.77783 15.3186 5.66997 14.6373 5.63876C13.9546 5.6077 13.7373 5.6001 11.9986 5.6001H12.0006ZM11.4264 6.75343C11.5968 6.75316 11.7869 6.75343 12.0005 6.75343C13.7094 6.75343 13.9119 6.75956 14.5867 6.79023C15.2107 6.81876 15.5494 6.92303 15.775 7.01063C16.0737 7.12663 16.2866 7.2653 16.5105 7.4893C16.7345 7.7133 16.8731 7.92664 16.9894 8.22531C17.077 8.45064 17.1814 8.78931 17.2098 9.41332C17.2405 10.088 17.2471 10.2907 17.2471 11.9987C17.2471 13.7067 17.2405 13.9094 17.2098 14.584C17.1813 15.208 17.077 15.5467 16.9894 15.7721C16.8734 16.0707 16.7345 16.2834 16.5105 16.5073C16.2865 16.7313 16.0738 16.8699 15.775 16.9859C15.5497 17.0739 15.2107 17.1779 14.5867 17.2065C13.912 17.2371 13.7094 17.2438 12.0005 17.2438C10.2916 17.2438 10.0891 17.2371 9.41439 17.2065C8.79038 17.1777 8.45171 17.0734 8.22598 16.9858C7.92731 16.8698 7.71397 16.7311 7.48997 16.5071C7.26597 16.2831 7.1273 16.0703 7.01103 15.7715C6.92343 15.5462 6.81903 15.2075 6.79063 14.5835C6.75996 13.9088 6.75383 13.7062 6.75383 11.9971C6.75383 10.288 6.75996 10.0864 6.79063 9.41172C6.81916 8.78771 6.92343 8.44904 7.01103 8.22344C7.12703 7.92477 7.26597 7.71143 7.48997 7.48743C7.71397 7.26343 7.92731 7.12476 8.22598 7.00849C8.45158 6.92049 8.79038 6.81649 9.41439 6.78783C10.0048 6.76116 10.2336 6.75316 11.4264 6.75182V6.75343ZM15.4169 7.81611C14.9928 7.81611 14.6488 8.15971 14.6488 8.58385C14.6488 9.00785 14.9928 9.35185 15.4169 9.35185C15.8409 9.35185 16.1849 9.00785 16.1849 8.58385C16.1849 8.15984 15.8409 7.81611 15.4169 7.81611ZM12.0006 8.71345C10.1855 8.71345 8.71389 10.1851 8.71389 12.0001C8.71389 13.8152 10.1855 15.2862 12.0006 15.2862C13.8157 15.2862 15.2868 13.8152 15.2868 12.0001C15.2868 10.1851 13.8157 8.71345 12.0006 8.71345ZM12.0006 9.86679C13.1787 9.86679 14.1339 10.8219 14.1339 12.0001C14.1339 13.1783 13.1787 14.1335 12.0006 14.1335C10.8223 14.1335 9.86721 13.1783 9.86721 12.0001C9.86721 10.8219 10.8223 9.86679 12.0006 9.86679Z" fill="currentColor"/>
    </symbol>
    <symbol id="logo" viewBox="0 0 220 32">
      <g clip-path="url(#clip0)"><path d="M29.3163 4C29.5076 11.8789 29.6988 19.643 29.9092 27.4645C27.0598 27.4645 24.2486 27.4645 21.4566 27.4645C21.4566 25.3227 21.4566 23.2382 21.4566 21.0199C20.902 21.0199 20.3092 21.0199 19.7163 21.0199C18.9896 21.0199 18.2438 21.0199 17.5171 21.0199C13.8837 21.0199 13.8837 21.0199 11.7227 23.9267C10.9578 24.9594 10.1546 25.992 9.33227 26.9865C9.14104 27.2159 8.79681 27.4837 8.50996 27.4837C5.73705 27.5219 2.96414 27.5028 0 27.5028C0.172112 27.1012 0.248606 26.757 0.439841 26.5275C4.99124 21.3259 9.56175 16.1243 14.1131 10.9036C15.9681 8.76175 17.7466 6.56255 19.5825 4.42072C19.7546 4.21036 20.0988 4.03825 20.3665 4.01912C23.3307 4 26.2757 4 29.3163 4ZM22.0303 10.8653C20.7299 12.4526 19.5442 13.906 18.3203 15.4359C19.6398 15.4359 20.8064 15.4359 22.0303 15.4359C22.0303 13.9442 22.0303 12.51 22.0303 10.8653Z" fill="#EA2D44"/><path d="M140.596 14.7855C143.063 13.4851 146.964 13.5616 147.729 15.3019C149.661 13.9058 151.802 13.6955 154.097 14.0971C155.761 14.3839 156.354 16.0285 155.857 17.3289C154.747 20.2548 153.581 23.1807 152.453 26.0875C151.898 27.5027 151.898 27.5027 150.349 27.5027C148.953 27.5027 147.557 27.5027 145.989 27.5027C146.601 25.9919 147.194 24.5959 147.748 23.1999C148.226 21.9568 148.704 20.6947 149.106 19.4325C149.202 19.1074 149.068 18.725 149.049 18.2469C147.863 18.6867 147.213 19.4134 146.83 20.3122C145.97 22.3393 145.147 24.3664 144.363 26.4317C144.076 27.1776 143.79 27.6174 142.853 27.5409C141.265 27.4262 139.678 27.5027 138.014 27.5027C138.951 24.4046 140.806 21.7082 141.189 18.3234C139.487 18.725 138.932 19.8915 138.454 21.0389C137.67 22.8939 136.982 24.7871 136.274 26.6803C136.045 27.2923 135.777 27.5791 135.05 27.5409C133.406 27.4835 131.742 27.5218 129.944 27.5218C131.704 23.066 133.406 18.7058 135.108 14.3648C139.066 14.1544 140.29 14.2501 140.596 14.7855Z" fill="#fff"/><path d="M53.7753 9.92835C57.1984 9.92835 60.7553 9.83273 64.3123 9.9666C66.0908 10.0431 67.0661 11.2096 66.9513 13.3323C66.7601 16.9658 63.6621 20.3124 60.0478 20.8096C59.0916 20.9435 58.0972 20.9817 57.1219 21.0009C55.9745 21.02 55.9171 20.9052 56.1274 19.7387C56.1657 19.5283 56.1274 19.2989 56.0127 19.0311C55.4964 20.3698 54.9418 21.7084 54.4446 23.0662C53.9665 24.3283 53.5649 25.6287 53.0677 26.8718C52.9721 27.1204 52.6278 27.4455 52.3984 27.4646C50.6199 27.522 48.8414 27.4837 46.9099 27.4837C49.2239 21.6319 51.4804 15.8375 53.7753 9.92835ZM56.9115 16.6598C58.3075 17.2144 59.4932 16.7746 60.3346 15.4359C60.6597 14.9005 60.8892 14.3459 60.1434 13.9443C59.4167 13.5427 58.1163 13.6957 57.8868 14.2311C57.5426 15.0343 57.2366 15.8375 56.9115 16.6598Z" fill="#fff"/><path d="M175.917 14.3267C176.453 14.3267 177.045 14.3076 177.657 14.3267C179.13 14.4032 180.66 14.5753 182.075 14.5562C183.509 14.5371 185.02 13.8295 186.588 13.9634C187.334 14.0207 188.118 14.0972 188.768 14.4032C190.107 14.996 190.413 15.9331 189.896 17.7307C189.17 20.255 188.08 22.6837 187.123 25.1315C186.817 25.9156 186.684 27.0247 186.11 27.3881C185.46 27.7897 184.389 27.5219 183.49 27.5411C182.438 27.5602 181.386 27.5411 180.182 27.5411C180.66 26.3363 181.1 25.2654 181.539 24.1753C182.056 22.8749 182.572 21.5745 183.05 20.2741C183.165 19.9682 183.222 19.5666 183.127 19.2606C182.955 18.706 182.706 18.247 181.903 18.553C180.22 19.1841 179.474 20.5992 178.805 22.0717C178.078 23.6781 177.504 25.3419 176.816 26.9674C176.701 27.216 176.376 27.5411 176.147 27.5602C174.521 27.6176 172.896 27.5984 171.27 27.5793C171.041 27.5793 170.83 27.5602 170.562 27.5411C172.341 23.1044 174.119 18.7825 175.917 14.3267Z" fill="#fff"/><path d="M108.564 27.9999C107.704 27.8851 106.767 27.866 105.906 27.6174C103.095 26.8334 102.062 24.7298 102.904 21.6126C104.07 17.3098 107.072 15.0533 111.261 14.1545C113.02 13.772 114.818 13.8294 116.577 14.3266C118.221 14.7855 119.426 16.3537 119.503 18.1322C119.694 22.4923 115.659 27.2732 110.859 27.7322C110.113 27.7895 109.367 27.9043 108.564 27.9999ZM108.717 22.3585C108.66 23.4294 109.616 24.1178 110.591 23.6588C112.331 22.8557 113.116 21.3258 113.517 19.6047C113.747 18.5529 112.771 17.8262 111.777 18.1704C110.285 18.6485 108.813 20.6756 108.717 22.3585Z" fill="#fff"/><path d="M168.096 27.5027C166.145 27.5027 164.271 27.5027 162.263 27.5027C162.416 27.0628 160.752 28.0381 159.414 27.9234C158.668 27.866 157.903 27.866 157.176 27.7322C154.805 27.3497 154.767 25.8007 155.13 24.1369C155.665 21.7274 157.578 20.5608 159.777 19.9106C161.154 19.4899 162.569 19.2604 163.965 18.9353C164.233 18.878 164.577 18.878 164.768 18.725C165.189 18.3616 165.916 17.8262 165.839 17.5393C165.648 16.87 164.883 16.9465 164.29 17.0995C162.779 17.482 161.288 17.9218 159.796 18.3234C159.605 18.3808 159.299 18.3425 159.184 18.2278C159.069 18.113 159.088 17.8071 159.165 17.6349C159.567 16.7744 159.853 15.8182 160.465 15.1489C160.905 14.6708 161.766 14.4796 162.473 14.4031C164.52 14.1927 166.566 14.0589 168.612 14.0206C169.377 14.0015 170.161 14.1927 170.888 14.4604C172.15 14.9194 172.609 16.2581 171.978 17.9027C170.716 21.0772 169.396 24.2708 168.096 27.5027ZM160.81 24.3855C162.339 25.5521 163.755 24.6915 164.328 22.2437C163.028 22.7792 161.345 22.6262 160.81 24.3855Z" fill="#fff"/><path d="M40.2168 23.9459C41.8805 23.8694 43.5634 23.7929 45.4566 23.7164C44.902 25.0168 44.4239 26.2025 43.9076 27.3499C43.8693 27.4646 43.5825 27.5029 43.4295 27.5029C39.3562 27.5029 35.2829 27.5029 30.9801 27.5029C31.6685 26.0303 31.6494 24.4431 33.0263 23.4104C35.7992 21.3068 38.5721 19.1841 41.2877 17.0232C41.7084 16.6981 41.8805 16.0479 42.1674 15.5507C41.5745 15.3212 40.9817 14.9005 40.3889 14.9196C39.318 14.9578 38.247 15.2447 37.157 15.4168C36.8893 15.455 36.6024 15.5124 36.1434 15.608C36.2391 15.1682 36.2582 14.8431 36.3921 14.5562C36.8128 13.6766 37.1952 12.7395 37.7689 11.9554C38.0558 11.573 38.7251 11.3052 39.2415 11.267C41.1347 11.1331 43.0279 11.0758 44.9403 11.0566C45.5522 11.0566 46.1833 11.1523 46.7952 11.3244C49.4725 12.0511 49.7785 14.1929 48.4016 16.2582C47.5411 17.5586 46.3554 18.6678 45.1697 19.7196C43.5825 21.1347 41.8423 22.3969 40.1785 23.7355C40.1785 23.812 40.1976 23.8885 40.2168 23.9459Z" fill="#EA2D44"/><path d="M78.1769 23.5253C77.4693 24.8639 76.8573 26.0113 76.2454 27.1205C76.1689 27.2352 75.9585 27.3117 75.7864 27.35C72.9944 28.0575 70.2023 28.2105 67.3912 27.5221C65.5553 27.0631 64.5992 25.2655 64.8669 23.2384C65.2494 20.2551 66.6836 17.9221 68.9211 16.0097C70.4318 14.7284 72.2486 14.1165 74.18 13.9826C75.5187 13.887 76.9338 13.9253 78.2342 14.2312C80.7012 14.7858 81.1792 16.6025 80.7394 18.9547C80.2422 21.632 80.1466 21.6129 77.4502 21.6129C75.5761 21.6129 73.6828 21.5938 71.8087 21.632C71.5219 21.632 71.0247 21.8233 70.9864 21.9954C70.8717 22.4352 70.8143 23.028 71.0438 23.3531C71.6557 24.2519 72.6502 24.4241 73.6637 24.2328C74.792 24.0225 75.9203 23.7547 77.0486 23.5444C77.3354 23.4679 77.6223 23.5253 78.1769 23.5253ZM72.1338 19.299C72.937 19.299 73.702 19.3372 74.4478 19.2798C74.7155 19.2607 75.1553 19.0504 75.2127 18.84C75.2892 18.4958 75.2127 18.0177 75.0024 17.75C74.8494 17.5587 74.3521 17.5013 74.0653 17.5778C73.1856 17.8264 72.4972 18.3428 72.1338 19.299Z" fill="#fff"/><path d="M216.612 23.5251C215.904 24.8638 215.369 26.0877 214.642 27.1777C214.432 27.5028 213.686 27.5985 213.189 27.6176C210.875 27.6749 208.523 27.8853 206.228 27.6367C204.067 27.3881 203.053 25.3992 203.34 23.2C203.742 20.255 205.157 17.9411 207.375 16.0479C208.886 14.7475 210.703 14.1546 212.615 14.0016C213.935 13.906 215.292 13.9443 216.574 14.212C219.098 14.7475 219.633 16.4877 219.194 18.9355C218.716 21.6319 218.601 21.6128 215.924 21.6128C214.011 21.6128 212.099 21.5937 210.186 21.6319C209.919 21.6319 209.498 21.804 209.441 21.9761C209.326 22.3777 209.211 22.9514 209.422 23.2574C210.033 24.2136 211.047 24.424 212.099 24.2327C213.227 24.0415 214.355 23.7546 215.484 23.5251C215.771 23.4678 216.057 23.5251 216.612 23.5251ZM210.588 19.2988C211.429 19.2988 212.214 19.3371 212.978 19.2797C213.227 19.2606 213.61 19.0311 213.648 18.8399C213.705 18.4765 213.629 18.0367 213.437 17.7307C213.323 17.5395 212.864 17.3865 212.653 17.4821C211.793 17.8072 210.951 18.2471 210.588 19.2988Z" fill="#fff"/><path d="M93.5139 18.3427C94.0494 16.9467 94.4509 15.7802 94.9673 14.6519C95.0629 14.4606 95.541 14.3268 95.8087 14.3459C96.5163 14.4033 96.784 14.1355 96.9561 13.4662C97.4342 11.5921 98.3521 9.89012 100.379 9.46941C101.928 9.16343 103.592 9.12518 105.179 9.29729C106.919 9.48853 106.9 9.66064 106.422 11.3818C105.887 13.3515 105.887 13.3515 103.936 12.8734C103.114 12.6822 102.54 13.0837 102.043 14.2885C102.884 14.2885 103.688 14.2885 104.72 14.2885C104.185 15.6272 103.802 16.8128 103.229 17.9029C103.114 18.1515 102.368 18.1706 101.928 18.1132C100.991 18.0176 100.57 18.3618 100.284 19.2989C99.4422 21.8614 98.4669 24.3857 97.5107 26.91C97.4151 27.1587 97.09 27.4837 96.8414 27.4837C95.0247 27.522 93.2079 27.5029 91.2573 27.5029C92.5195 24.3475 93.7243 21.3069 94.9673 18.1897C94.5274 18.2471 94.145 18.2853 93.5139 18.3427Z" fill="#fff"/><path d="M204.545 14.4414C204.201 15.7418 203.914 16.9657 203.512 18.1514C203.436 18.3617 202.843 18.4956 202.499 18.4956C202.078 18.4765 201.657 18.2661 201.237 18.1514C198.292 17.3099 196.226 20.1976 196.073 22.3968C195.997 23.4677 197.335 24.0605 198.273 23.8311C199.229 23.6016 200.204 23.4295 201.485 23.1617C201.16 23.8884 200.95 24.3474 200.739 24.8064C200.376 25.5139 200.051 26.2406 199.63 26.9099C199.458 27.1968 199.133 27.5219 198.846 27.5793C196.666 27.9235 194.467 28.2295 192.306 27.5793C190.222 26.9673 189.59 25.1697 189.896 23.2191C190.26 20.886 191.12 18.7251 192.727 16.9466C194.084 15.4358 195.729 14.3075 197.794 14.1546C199.726 14.0016 201.677 14.1163 203.627 14.1354C203.876 14.1546 204.143 14.3075 204.545 14.4414Z" fill="#fff"/><path d="M84.9466 27.5027C83.1873 27.5027 81.3132 27.5027 79.2096 27.5027C80.9307 23.066 82.6136 18.7441 84.3538 14.2501C86.1323 14.3266 88.0064 14.4222 89.8996 14.4987C90.0717 14.4987 90.2439 14.3648 90.4351 14.3457C91.3339 14.2118 92.2327 14.0588 93.1124 13.9632C93.8199 13.8867 93.9538 14.3457 93.82 14.862C93.5331 15.9521 93.208 17.023 92.7873 18.0748C92.6917 18.3042 92.1753 18.572 91.9267 18.5146C89.957 18.0365 88.6948 19.1074 87.9299 20.5991C86.8016 22.7792 85.9602 25.1122 84.9466 27.5027Z" fill="#fff"/><path d="M124.341 27.4837C122.41 27.4837 120.516 27.4837 118.413 27.4837C120.134 23.0661 121.798 18.7442 123.461 14.4797C125.259 14.4797 127.152 14.4797 129.045 14.4797C129.217 14.4797 129.39 14.3841 129.562 14.3649C130.461 14.2311 131.359 14.0781 132.239 13.9633C132.985 13.8677 133.157 14.3267 133.004 14.9004C132.717 15.9522 132.411 17.0231 132.01 18.0367C131.914 18.2853 131.359 18.5721 131.092 18.5147C129.16 18.0367 127.898 19.0884 127.171 20.5418C126.081 22.6837 125.335 24.9976 124.437 27.2351C124.398 27.3116 124.36 27.4072 124.341 27.4837Z" fill="#fff"/></g>
    </symbol>
    <symbol id="menu-close" viewBox="0 0 513 512">
      <path d="M284.286 256.002L506.143 34.144C513.954 26.333 513.954 13.669 506.143 5.85901C498.332 -1.95099 485.668 -1.95199 477.858 5.85901L256 227.717L34.143 5.85901C26.332 -1.95199 13.668 -1.95199 5.858 5.85901C-1.952 13.67 -1.953 26.334 5.858 34.144L227.715 256.001L5.858 477.859C-1.953 485.67 -1.953 498.334 5.858 506.144C9.763 510.049 14.882 512.001 20.001 512.001C25.12 512.001 30.238 510.049 34.144 506.144L256 284.287L477.857 506.144C481.762 510.049 486.881 512.001 492 512.001C497.119 512.001 502.237 510.049 506.143 506.144C513.954 498.333 513.954 485.669 506.143 477.859L284.286 256.002Z" fill="currentColor"/>
    </symbol>
    <symbol id="menu-icon" viewBox="0 0 512 360">
      <path d="M492 160H20C8.954 160 0 168.954 0 180C0 191.046 8.954 200 20 200H492C503.046 200 512 191.046 512 180C512 168.954 503.046 160 492 160Z" fill="currentColor"/><path d="M492 0H20C8.954 0 0 8.954 0 20C0 31.046 8.954 40 20 40H492C503.046 40 512 31.046 512 20C512 8.954 503.046 0 492 0Z" fill="currentColor"/><path d="M492 320H20C8.954 320 0 328.954 0 340C0 351.046 8.954 360 20 360H492C503.046 360 512 351.046 512 340C512 328.954 503.046 320 492 320Z" fill="currentColor"/>
    </symbol>
    <symbol id="price-arrow" viewBox="0 0 8 12">
      <path fill-rule="evenodd" clip-rule="evenodd" d="M0.910948 0.410704C0.585511 0.736141 0.585511 1.26378 0.910948 1.58922L5.32169 5.99996L0.910948 10.4107C0.585511 10.7361 0.585511 11.2638 0.910948 11.5892C1.23638 11.9147 1.76402 11.9147 2.08946 11.5892L7.08946 6.58922C7.41489 6.26378 7.41489 5.73614 7.08946 5.4107L2.08946 0.410704C1.76402 0.0852667 1.23638 0.0852667 0.910948 0.410704Z" fill="#EA2D44"/>
    </symbol>
    <symbol id="quote-icon" viewBox="0 0 176 149">
      <g opacity=".05" clip-path="url(#clip0)"><path fill-rule="evenodd" clip-rule="evenodd" d="M0.771866 125.729C27.0171 112.8 40.1395 97.6096 40.1395 80.1562C28.953 78.8633 19.7028 74.2846 12.3885 66.4197C5.0743 58.5549 1.41725 49.4512 1.41725 39.1085C1.41725 28.1193 4.96675 18.854 12.0659 11.3124C19.165 3.77075 28.0925 0 38.8488 0C50.8958 0 61.3292 4.90198 70.1493 14.7061C78.9694 24.5102 83.3794 36.415 83.3794 50.4208C83.3794 92.4384 59.9312 125.298 13.0339 149L0.771866 125.729ZM93.3924 125.729C119.853 112.8 133.083 97.6096 133.083 80.1562C121.681 78.8633 112.323 74.2846 105.009 66.4197C97.6949 58.5549 94.0378 49.4512 94.0378 39.1085C94.0378 28.1193 97.6411 18.854 104.848 11.3124C112.054 3.77075 121.036 0 131.792 0C143.839 0 154.219 4.90198 162.931 14.7061C171.644 24.5102 176 36.415 176 50.4208C176 92.4384 152.659 125.298 105.977 149L93.3924 125.729Z" fill="#fff"/></g>
    </symbol>
    <symbol id="vk-icon" viewBox="0 0 20 20">
      <path fill-rule="evenodd" clip-rule="evenodd" d="M6.93331 0H13.0667C18.6665 0 20 1.33336 20 6.93339V13.0668C20 18.6667 18.6665 20 13.0667 20H6.93331C1.33334 20 0 18.6667 0 13.0668V6.93339C-8.33333e-08 1.33336 1.33334 0 6.93331 0Z" fill="#2787F5"/><path fill-rule="evenodd" clip-rule="evenodd" d="M16.38 6.89034C16.4727 6.58145 16.38 6.35425 15.9391 6.35425H14.4807C14.1098 6.35425 13.939 6.5504 13.8463 6.76672C13.8463 6.76672 13.1046 8.57435 12.054 9.74854C11.7142 10.0885 11.5597 10.1967 11.3742 10.1967C11.2816 10.1967 11.1474 10.0885 11.1474 9.77959V6.89034C11.1474 6.51963 11.0397 6.35425 10.7307 6.35425H8.43905C8.20734 6.35425 8.06793 6.52642 8.06793 6.68953C8.06793 7.04105 8.59329 7.12217 8.64748 8.11094V10.2584C8.64748 10.7293 8.56239 10.8148 8.37697 10.8148C7.88266 10.8148 6.67996 8.99895 5.96679 6.92124C5.82695 6.51739 5.68684 6.35425 5.31415 6.35425H3.85579C3.4391 6.35425 3.35583 6.5504 3.35583 6.76672C3.35583 7.15294 3.85014 9.06881 5.65778 11.6026C6.86284 13.3329 8.56068 14.271 10.1057 14.271C11.0327 14.271 11.1474 14.0626 11.1474 13.7037V12.3961C11.1474 11.9792 11.2351 11.8963 11.5288 11.8963C11.745 11.8963 12.1158 12.0042 12.9811 12.8386C13.9699 13.8274 14.1329 14.271 14.6891 14.271H16.1475C16.564 14.271 16.7723 14.0626 16.6522 13.6515C16.5206 13.2418 16.0486 12.6473 15.4222 11.9426C15.0822 11.5408 14.5723 11.1083 14.4179 10.8918C14.2016 10.6138 14.2634 10.4902 14.4179 10.243C14.4179 10.243 16.1948 7.7401 16.38 6.89034Z" fill="#fff"/>
    </symbol></svg>